<?xml version="1.0" encoding="utf-8"?>
<!-- Generator: Adobe Illustrator 12.0.1, SVG Export Plug-In . SVG Version: 6.00 Build 51448)  -->
<!DOCTYPE svg PUBLIC "-//W3C//DTD SVG 1.1//EN" "http://www.w3.org/Graphics/SVG/1.1/DTD/svg11.dtd" [
	<!ENTITY ns_svg "http://www.w3.org/2000/svg">
	<!ENTITY ns_xlink "http://www.w3.org/1999/xlink">
]>
<svg  version="1.1" id="Layer_1" xmlns="&ns_svg;" xmlns:xlink="&ns_xlink;" width="1344" height="1360" viewBox="0 0 1344 1360"
	 overflow="visible" enable-background="new 0 0 1344 1360" xml:space="preserve">
<g>
	<rect width="1344" height="1360"/>
	<path d="M672,680"/>
</g>
<g>
	<path fill="#414142" d="M516.5,1311c0,0,7.5-60.5,6.5-82s2-15.5-5.5-37s-18-36.5-23-51s-5.5-18.5-8-38s-5.5-39-15-46
		s-20.5-13.5-37-14s-25,1-53,1s-36.5,3.5-59,0s-23-2-42.5-10s-33-17.5-40-28s-15.5-20-16.5-30s-1-24.5,4.5-35s11-26,7.5-38.5
		s-7-25-13-32.5s-11.5-11.5-10-18.5s3-13,6-17.5s8.5-12,8.5-12s-6.5-3.5-11.5-10s-10.5-8-9-16s5-12.5,8-24s8-26,4.5-34.5
		s-6-16-12.5-18.5s-15.5-6-28.5-11.5s-21.5-9-29.5-18.5s-16.5-16.5-17-22.5s-4-8.5,1-17.5s9-17.5,17.5-30s18-29.5,25.5-41
		s12.5-18.5,22-32.5s19-25.5,28-37s25-23.5,29.5-38s7.5-16.5,3.5-25s-7-15.5-9.5-26s-7-16.5-4.5-31s5.5-23,10-33s8.5-23,18.5-41.5
		s13.5-28.5,21-45.5s10-23.5,18.5-39.5s14-23.5,26.5-38s25.5-35,43.5-47.5s35.5-25.5,52-35.5S474,87,494,80.5S540.5,68,564.5,63
		s40.5-9,69.5-9s47.5,1,78,3s47.5,3,69,5s35.5,3.5,56.5,7s38,7.5,55,13s42,15.5,57.5,25.5s38,25.5,58,41.5s41.5,35,58.5,49
		s31.5,30.5,46,50.5s32,50.5,40.5,72.5s14,33.5,17.5,49.5s10,68.5,10,93.5s-1,38.5-3.5,52s-5.5,26.5-10.5,36.5s-10,22-14.5,33.5
		s-2,12-10,29.5s-13,26.5-23.5,43S1096,695,1089,708s-17.5,29-24,46.5s-20,50-27.5,77s-15.5,40.5-16,71.5s-2.5,36.5-1.5,56.5
		s2,35.5,6,53.5s10.5,44.5,16,60s11,36,22,54.5s15.5,26.5,26.5,43.5s16,21.5,21.5,35.5s10,28,14,37s6.5,13,14,20.5s19,14,25,22
		s21,24,21,24L516.5,1311z"/>
</g>
<g>
	<path fill="#808284" d="M800,682.5l-1,9.5h-47c0,0,0-8-5.5-16.5s-10-10.5-9.5-19s0.5-13.5,2-17.5s4.5-9.5,4.5-9.5s-0.5,2-9.5-3
		s-24-13.5-31-28s-12.5-26-14-41s-2.5-27.5,0-34.5s5.5-11.5,10-16.5s9-9,12-9.5s0-3.5-3.5-9s-8-16.5-15-19s-18-4-21,9s2.5,18-4.5,28
		s-11.5,10.5-11.5,10.5s-30-1-41,0.5s-31.5,1.5-48.5-3s-42.5-15-60-25s-24-15.5-38.5-20.5s-26.5-5-38-9s-31-14-42-26
		S361,403,354,385.5s-10-35-8.5-49.5s5-36.5,12-53.5s15.5-38.5,23-50.5s13.5-25,22.5-34s21-20,30-26.5s26-18.5,52-32.5
		s44-19.5,64.5-24.5s55.5-8,78-11.5s53.5-6,81.5-3.5s57.5,8.5,77,12s47.5,9.5,67.5,16.5s45,16,60,25.5S935,169,935,169
		s18.5,8,34.5,20.5s25.5,27,36.5,37s23.5,21.5,34.5,38s21,36.5,28,51s14,24.5,21,45.5s12,34.5,15.5,55.5s5,37.5,3.5,52.5
		s-3,21.5-7.5,31.5s-13.5,26.5-20.5,32s-14.5,7-22.5,5.5s-23-8.5-28-14s-16-13-22-18s-17-11.5-17-11.5s-22.5-29-42.5-37.5
		s-34.5-14.5-42-14.5s-16.5,1-14,1.5s-23,2-39.5,11s-25,16-29.5,32s-4.5,22.5-0.5,31.5s5.5,15,11.5,18.5s17,6,17,6s-17.5-1-21-30
		s0.5-29,4.5-34.5s8.5-10.5,12-10s6,2,6,2s-1-2.5,3-6s7-5,13-5.5s7.5-1,12.5-3s7-2.5,9.5-1.5s5.5,5,7.5,6.5s1.5,1.5,5.5-0.5
		s10.5-4.5,16.5-3s12.5,3,16,7s6,7,6,7s3.5-2,9,0.5s9.5,5.5,11,8s3.5,7.5,2.5,10s-2.5,5-2.5,5s4.5-3,8-3s4-1,9.5,4s9.5,8,15.5,15.5
		s13.5,15,17.5,24.5s6,15.5,6,23s2.5,16-1.5,23s-4.5,11.5-10.5,15.5s-9,6-11.5,7.5s-3.5,5-7,5.5s-5,2.5-9.5-1s-15.5-10-15.5-10
		s1.5,6.5,4,15s7,12.5,2,20.5s-6.5,10-13.5,12s-10.5,5-14.5,4s-9.5-3.5-9.5-3.5s-1,5-3.5,7s-10.5,4-16.5,3.5s-15,1-16.5-0.5
		s-5.5-5-5.5-5s0.5,5-3.5,6s-12.5,1.5-20-3s-13.5-6.5-15-11s-1.5-9-1.5-11s0.5-4.5,0.5-4.5s-2,3.5-6,0s-9.5-5.5-9-14
		s0.5-14.5,0.5-21s-2-8,2-15.5s5.5-10.5,10-15s10.5-8,10.5-8s-23,1.5-30.5,12.5s-10,14.5-13,27.5s-4,26-6,38S801.5,669,800,682.5
		s-1.5,13.5-1.5,13.5"/>
</g>
<path fill="#D1D3D4" d="M217.25,726.5c-3.638-8.247-17.75-14.5-29.75-18.5s-22-6.5-27-11S147,685,143,679.5s-12-14-11-21.5
	s5.5-18.5,15-32s21-33.5,26-41.5s19.5-28.5,25.5-37.5s12.5-18.5,20.5-27s27-28,32-34.5s11-19,11.5-28.5s-4.5-16.5-6.5-23
	s-10-22.5-9.5-32.5s-1-17.5,4-30.5s13.5-34.5,20.5-47.5s17.5-33,21.5-43S303,255,310,240s13.5-28,31.5-50s23.5-30.5,40-43.5
	s32.5-26,54.5-38s41-21.5,64-29S538.5,68,562,64s46.5-9,87-8.5s80.5,3.5,102.5,5s41,3,67.5,6.5s57.5,9.5,81.5,18.5S932,97,963,117.5
	s44,31.5,64,48s47,40,64.5,59s32.5,40,45.5,65s29.5,69,33.5,92s8,63,7.5,85s-2.5,48-5.5,62s-11.5,31.5-16.5,43s-10.5,24.5-13.5,34
	s-10,26.5-16.5,37.5s-34,54.5-42,68s-21,37.5-29,60s-23,63.5-29,88.5s-10,54-10.5,74.5s3.5,58,8,81.5s16,60.5,21,75.5s17,38,23.5,51
	s17.5,30.5,25,40s12.5,16,18,27.5s9.5,27.5,13.5,37.5s15.5,19.5,23,26.5s19,19.5,24,24.5s14.5,12,14.5,12s-20-26.5-26.5-32.5
	s-17.5-12-23.5-22s-5.5-4-10.5-19s-8-23.5-15.5-39s-11.5-21-21-38s-20.5-33.5-30-56.5s-16-31.5-23-58.5s-13.5-54.5-13.5-86.5
	s-1-51,5-79s16.5-64,27-87.5s13-37.5,27.5-64.5s22.5-42.5,36.5-64s20-30.5,28-51.5s7-27.5,15.5-44s13.5-23.5,16.5-41
	s7-38.5,5.5-66.5s-5.5-68-11-87s-4.5-17-11-34s-16-43-29.5-64.5s-34.5-48-47.5-61.5s-48-42.5-62-54s-49.5-39-68.5-50.5
	s-54.5-27-76-32.5s-81-14.5-106.5-16.5s-48.5-4-76.5-5s-58-3-89.5,0s-92,17-112,24.5s-48.5,19.5-64.5,29.5s-42,28-56.5,41.5
	s-35,38.5-47.5,54.5s-21,29.5-27.5,46S285.5,281,280.5,293s-11,23-17,36.5S252,357,248,368.5s-7,19.5-6,29.5s5,24.5,7.5,32.5
	s8.5,15,6,27s-9,24-16,32s-19,22-29,35.5s-23,33-31,44.5s-16,26-23,37s-12,18-18,28s-9.5,15.5-9.5,23s2,16,6.5,21S148,693,155,698
	s16.5,10,25,12.5s14.5,3.5,21,8.5s12.5,6.5,14,15s3,20,0.5,28s-8,21.5-9.5,26.5s-2,12,0,15s7,9.5,10.5,12.5s8,6.5,8,6.5s-4,7-7,11
	s-5,11-5.5,16.5s0,9,3,13.5s15.5,20.5,16.5,31.5s5.5,23.5-1,36.5s-10.5,27-9.5,34.5s4,22.5,13.5,34.5s24,26.5,35,32.5
	s35.5,11.5,53.5,13.5s42,1.5,62,0.5s34.5-1.5,51-1s26.5,3,32.5,11s13,21.5,15,36s2,30,5,38.5s11,21.5,15,29.5s15,30,16.5,48.5
	s2.5,47,1,62s-3.5,39-3.5,39s6.5-40,7-58.5s2-33.5-2.5-51.5s-10.5-33-19.5-48s-10.5-24-12.5-41.5s-2.5-38.5-11-48.5
	s-16-22.5-39.5-23s-56,2.5-73,3s-35,1-52-1.5s-42-9.5-54.5-19s-19.5-15.5-25.5-26.5S223,973.5,224,963s8-25.5,11-33.5s6-22,0.5-38
	s-12-23-15-26.5s-6-7-5.5-14s2-14,5.5-18.5s4-8,7-8.5s7,0,9.5-1s2.5-2.25,5-1.5s5.25,2.5,8.5,3.25s9,2,14.25,1.5s-4-0.5-7.25-2.25
	s-6.75-1.75-9-3s-12-7.75-12-7.75s0.5,3.75,1.5,5s1,1.25,0.5,1.75s-3,2.5-6.25,2s-6.5-2.25-11.5-6.5s-8.5-8-11-12s-3-9.75-1-13.25
	s6.5-11,9-21s4-24.5,3-31.25S221,735,217.25,726.5z"/>
<path fill="#D1D3D4" d="M299,432.25c0,0,8.5,18,16.25,23.5S336.5,470,343.75,473s16.75,6,23,12s17.5,18.25,23,24s9,11.25,18.5,14
	s16.25,5,20.75,5.5s9,1.5,9,1.5l-27-3.5c0,0,3.75,5.25,7.25,7.5s8.75,5.75,8.75,5.75s-11.5-4.5-15.75-8.5s-2.75-3-7.25-6.25
	s-11.5-8.75-16-13.25s-8.25-7.5-14.5-14.25s-7-8.25-14.25-12.5s-11.75-5.75-20.5-10s-15.25-8.75-20.25-12.75s-11-9-13.5-14.25
	S299,432.25,299,432.25z"/>
<path fill="#D1D3D4" d="M314.5,457.25c0,0-1,7,1.5,12s2.75,9.25,11,13.5s12.5,6,17.5,7s8.75,1.75,12.75,3.75s13.25,6.5,13.25,6.5
	s-8.25-6-13.5-7.75s-13.25-4-20.75-7.5s-10.5-3.75-14-8.25s-4-5-5.25-9.5S314.5,457.25,314.5,457.25z"/>
<path fill="#D1D3D4" d="M288.25,492c0,0,11.5-6,16.5-10.25s11.5-14.25,11.5-14.25s-1.25,8-6,11.75S288.25,492,288.25,492z"/>
<path fill="#D1D3D4" d="M318.25,472.25c0,0-1.5,6.25-5.75,9.5s-14.75,10-14.75,10s12-6,16-9.25S318.25,472.25,318.25,472.25z"/>
<path fill="#D1D3D4" d="M321.75,478c0,0-1.75,4.75-5.75,8s-13.25,8.5-13.25,8.5s13.5-6.25,16.25-9.25S321.75,478,321.75,478z"/>
<path fill="#D1D3D4" d="M328.25,483c0,0-0.25,2.5-5,5s-8.5,5-8.5,5s7.25-2.75,10.5-5.25s4.25-4.25,4.25-4.25L328.25,483z"/>
<path fill="#D1D3D4" d="M336.25,486.25c0,0-1.75,3-5,4.5s-5,2.5-5,2.5s4.75-1,6.75-2.5S336.25,486.25,336.25,486.25z"/>
<path fill="#D1D3D4" d="M342,488.75c0,0-0.25,1.25-3,3s-6.5,3.75-6.5,3.75s4.5-1.25,6.75-3S342,488.75,342,488.75z"/>
<path fill="#D1D3D4" d="M352.75,491.75c0,0,0.25,1.75-2.5,3.25s-5.25,2.75-5.25,2.75s5.5-1.25,6.75-2.75
	S352.75,491.75,352.75,491.75z"/>
<path fill="#D1D3D4" d="M318.75,477.25c0,0-5.5,15-3.75,22.75s3,16.5,9,19.5s18,4.75,26.75,4.75s16.25,0.25,24.75-1
	s10.5-2.5,14.75-3s8.75-0.5,8.75-0.5s-13,0-22.75,1.5s-19.25,2-27.75,1.5s-17-2.25-20.5-3.5s-6-2.75-7.75-7s-4.25-8.25-4-15.5
	S318.75,477.25,318.75,477.25z"/>
<path fill="#D1D3D4" d="M335,526.75c0,0,10.75,2.75,23.5,2.25s17.5-1,24-2s15-1,15-1s-15,2.5-22.5,3.5s-9.75,2.5-17.25,2
	s-15.5-1.75-18.25-2.75S335,526.75,335,526.75z"/>
<path fill="#D1D3D4" d="M312.75,513.25c0,0,5.25,10.5,13.75,17s15.25,10.75,21.5,13.5s13.75,6.75,18.5,7.75s14.25,2.5,14.25,2.5
	s-17.5-1-29.25-5.75s-17.75-7.5-23.25-12.5S315.5,523,314,519.75S312.75,513.25,312.75,513.25z"/>
<path fill="#D1D3D4" d="M307.25,528c0,0-4.75,4.75-5.25,11.5s-0.25,8.25,2.5,13.75s6.75,5.75,10,10.5s3.75,7.75,5.75,12.75
	S325,584,329,586.75s7.25,2.25,12.75,4.75s10.25,8.25,17.5,10s16,2.25,22.75,0s18.25-10.25,23.75-21.25s15.5-43.75,15.75-56
	s1.25-38.75-2.5-47S401.25,453,394.25,448s-17.25-9.25-21-13.5s-11-12.25-14.25-17s-9.75-9.75-13.25-7.5s-4,8.25-3,14.5
	s4,12,5.5,13.75s4.25,3.75,4.25,3.75s-1.25-2-3.25-6.25S344.5,426,344.5,422s0.25-7.5,2.75-8s5.5,1.25,9.75,7.75s13.5,16.75,18.5,21
	s18.25,13.5,23.5,18.25s10.75,11.75,14,18.75s3.75,13.25,4,23.25s1,13.75-1,27s-4,21.75-6.5,29.25s-4.25,15.5-8,21.5
	s-6.25,10.25-10.75,13.5s-11.5,7.75-19.25,7.25s-15.25-3-19.75-6.75s-11-5.75-15.25-7.75s-6.5-3.5-10.25-11.5s-5.75-12.75-11-16.25
	s-9-4.5-10.25-11s-2-7.75-0.25-12.25S307.25,528,307.25,528z"/>
<path fill="#D1D3D4" d="M251.5,539.5c0,0-35.75,37.5-44,48s-24.25,33.25-27.75,39.25s-6.25,13.25-6,20.25s3.75,12,6.5,15.25
	s12,11,12,11s-13.75-13.5-15-18.75s-2.5-9-0.25-15.75s11.25-22,19.75-33.5s18.25-24.75,25.5-32.5S251.5,539.5,251.5,539.5z"/>
<path fill="#D1D3D4" d="M318.25,431.25c0,0-4.25,4.5-8.75-0.5s-10.25-12.25-11-25.25s-0.5-30,1-40.5s7.25-25.25,11.25-34.75
	s12-23.75,14.25-29.25s2.5-10.5,5-10.25s3.5,4.25,3.75,13s-4,34-4.5,45.75s0.5,22.25,2,27.75s5,12.5,5.75,18.75s0.75,12.25-0.75,15
	s-4.5,7.25-6.5,9.25s8.5-4.75,9-11.75s0.75-13.5-1.5-21s-5.25-14.75-5.5-27.75s1.5-23.25,2.5-33.5s2-21,1-27.5s-3.75-9.25-5.25-9.5
	s-3.25,4.5-5.75,9.5s-9.25,16.5-12.75,24.5s-9.5,21.5-11.5,28.5s-4,18.75-4.5,26.25s0,24.75,0.75,28.75s3,13,5.25,16.5
	s4.75,8.25,8,10s3.75,1.5,5.75,1S318.25,431.25,318.25,431.25z"/>
<path fill="#D1D3D4" d="M279.5,582.25c0,0-0.25,2-3,3s-3,1-6,2.25s-4,4.5-8.75,0.5s-7.5-4.75-9-11.25s-5.25-13-8-18.25
	s-6.25-8.25-8.75-11.5s-5.75-3.5-7.25-4.25s-3.75,0-1.5-3.5s8.5-12.5,15-20s19-22,25-31s15.25-23,15-32.5s-4.5-21.5-6-28
	s-3.75-16.75-2.5-30.25s2.5-20.5,7-35.5s6.5-22.75,10.5-34.5s14-38,18.75-48s8.5-17.5,21.25-37.5s21-34.75,46.75-59.25
	s40.5-31,65-47.25s37.25-22.75,54.75-29.75s45.25-17.5,68.5-20.5s49.5-6.75,88.25-7.25s69.5,2.25,96,3.75s55.5,4.75,68,6.75
	s34,8.5,51.75,14.25s34,13.5,44.25,17.75s24.75,10.5,40,19.75s27,17,42.5,29s27.75,21.75,41.75,38.5s25,28.5,31,35.75
	s20,27.75,24.25,35.25s8.5,12.5,14,24.75s14.5,41,17.5,53.75s7.25,31.5,8.75,39.75s6.75,29.25,7.25,48.5s-0.25,33.5-4.25,50.75
	s-11,32.25-15.25,41.25s-9.5,19-11.5,28.75s-0.25,14.5-4.25,21s-4.5,9.75-12,15S1071,614.25,1062,620s-17.75,10.5-26,16.75
	s-19.5,19-26.25,23.25s-23,15-34.25,18.5s-26.25,9.75-40.75,13.25s-11.75,3.75-22.75,6s-20.5,5-29.25,4.25s-14.75-2.5-14.25-6
	s-4.25-4.75,15-10.75s37.75-10,53.5-16s37.75-17.25,46.75-25.5s18.25-20.5,26-28.25s20.25-20.75,23.5-29.25s4.75-19.25,4.25-27
	s-10.5-20.75-14.75-26s-11.75-18-21.5-27.25S982,487.5,973.5,480.25s-11-10.5-19.5-16s-23.5-12.5-28.75-14.75s-16.75-5-16.75-5
	s11.5,0.75,22,5s23,10.25,33,18.75s26.25,22.25,33.75,29s14,14.75,21.25,20.75s10,8,15.25,11.5s11.25,6.5,13.5,7.5
	s4.25,1.75,8.75,1.75s-9.5,0.25-24.75-12.75s-29-27.75-39.25-36.75s-20.5-21-33.25-28s-12.75-7-12.75-7s-6.5-4.5-14.25-7.25
	s-16.5-6.25-22.75-6s-10.25,0.25-13.75,1s-8,3.5-8,3.5s6.5-1.75,17.75,0.25s24.75,8.5,35.25,13.75s21,13.5,30,21.25
	S992.5,499.25,1000,508s16,19,21.5,26.25s13,14.25,14,21.25s2.25,10,0,18s-6.75,19-13.75,26s-12.5,12.5-18,18.25
	S992,631.75,986,637.5s-21.25,13.75-30.25,18.25s-19,8.75-32.5,12.75s-30.25,10-39.75,12.75s-17.25,6-20,9s-3.25,10.5,2.25,12.25
	s15.5,5.5,29.25,3.75s51.5-13,65.25-18s23.25-9,30-12.25s8.5-4.75,11.25-5.75s3.5-0.25,1,4.5s-8.25,17.25-12.5,26s-4.25,8.75-4.25,9
	s-9,21.5-14.5,34.75s-14.5,33.75-18,48.25s-8,30-11.25,43.5s12.25-42.75,13.5-47s4.5-15,9.25-26.25s16-37.25,19.25-43.5
	s16.75-31,24.75-44.75s18.5-24,25.25-29.25s12.75-11.5,23-17.75s24.25-14.5,27.75-15.75s5.25-2.75,2,5s-18,35.5-19.5,38.75
	s-15.5,31-22.5,44s-13.25,26.25-17.5,34.5s-13,31.25-17.25,44s-11.75,31.25-16.25,48.25s-11.75,42.75-15,68.75S973.5,940,974,957
	s4.5,46.25,7,59.5s13,50.5,17.25,62s16.5,34,22,43s20.5,31.25,27.25,40.25s14.75,19.75,18.75,27.5s9.5,19.5,12,28.75
	s4.75,15.25,6.75,18.75s10.25,14.5,14.75,17.5s-7.75-6-13.25-18.75s-8.75-28-14.25-39.5s-13-23.75-22.25-35.75s-21-30-27-39.5
	s-20-32.25-27.75-56.75S982,1017.5,980,999s-4.5-36-3.5-57s3-40.5,6.75-61s7-31.25,12.5-50.5s11.75-37.75,18.25-54.5
	c0,0,9-24.75,12-30.75s18-36.75,27-54s20.75-38.75,29.5-53.75s14-25.25,20.25-36s9.5-16.75,12-27.25s5.75-22.5,9.5-31.5
	s12.5-22,15.75-37s8.5-36.25,6-57.75s-7-48.25-11.75-69s-14.75-53.5-19.75-65.5s-11.25-23-15.75-29.75S1085.5,262,1078,252.25
	s-16.5-22-25.25-31.5S1040.5,205.5,1028,193.5s-28.75-26.5-40.25-34.25S953,136.75,941.25,131s-48.25-23.75-70.5-30.25
	s-40.75-13-69.5-16.25S756,80.25,734.75,79s-35-3.5-64.5-3.5S626.75,76.75,607,79s-32.5,3.5-47,6.25S529,92,516.75,96
	s-18,6.5-32.75,13.25s-32,17.5-42.5,24.25s-22,13.5-34.5,23s-23.75,19.25-35,30.75s-15.75,16.25-24,27.5s-13,16.75-21,30.5
	S313.75,266.5,310.5,274s-8.5,16.75-13.75,32.75s-8.5,24.5-12.25,36.5s-9.25,28.25-11.75,42.75s-1.75,20.5-0.5,31
	s6.75,20.75,7.5,28.5s2.75,10.75,0,17.5s-7.25,14-11.25,19.75s-12,14.75-16.25,20.75s-8.5,12.25-14,18.25s-6.5,6.25-9.75,11.25
	s-7,9-5.25,9.75S226,543,228.5,544s6.5,4,8,6s3.75,5.25,6.5,10.25s4,6,6.75,13.75s1.5,9,6,12.5s4.75,5.25,9,4.75s5.5-2,7.25-2.75
	s2.25-0.25,2,3.5c0,0-0.75,5.25,2,5.5s3.25-2.5,5.75,1.5s1,8.5,2,13.75s2.5,10.75,7.5,17s11,15.75,13.75,24.5s4.75,13.25,3.75,20.5
	s-3,12.25-8,16s-7.75,7.75-16.25,10s-18,4.25-20.25,6s-4,4-2.25,7s4.25,4,6,8.75s2.75,11.75,1.75,18.5s-2.75,12.25-7,20.25
	s-8.75,13.75-10.5,18.5s-1.25,8.75-0.25,13s2.25,7,2.25,7s-0.75,5.5-1.25,11s-2,23.25-1,26.5s2.5,5.5,4.75,6s-0.5,0.75-0.5,0.75
	s-0.5,13.75,1,18s4.25,9.5,4.25,9.5s-4,4.25-3.5,9.25s2.5,9,5.25,11.5s6.25,4,7.75,17.5s2.5,16.75,1.75,28.5s-4.5,23.75-3.5,31.75
	s4,17.5,16,24.25s25.75,13,38,13.25s21.25-3,30.25-5.25s15.5-5.75,31.25-9.25s18.75-3.25,31.25-8.5s19.5-10,32.25-16
	s20.25-10.75,30.5-15.25s17.25-6.5,30-10.25s20.5-5,30.5-6.75s14.5-1.25,19-2.5s7.5-6.5,14-10.5s10-7,15.5-11.5s9.75-8.5,11.25-12
	s1.75-7.75,5.75-12.25s8-12,11.75-17.75s6.25-10,6.75-26s-1.25-25.5,0-41.5s3.5-31.25,6.5-40.5s12-24.5,17.5-35.5
	s13.75-26,16.5-31.25s7-15.5,8.5-26s-0.5-27-0.5-27s0.25,17.75-2.5,27.75s-5.5,15.5-11.75,26.75s-15,25.75-21,38.25
	s-9.75,20.5-12,31.75s-5.5,23.75-5.75,38s0,28.25,0,36.75s-0.5,14-2.75,21.5s-5.5,11.25-9.75,17s-6.25,7.5-8,11.5s-1.25,5.25-5,9.25
	s-13.5,12.75-19.25,17s-7,8.5-14,10.5s-19.75,3-28.25,4.5s-22.5,5.5-34,9s-26.5,10.25-36.5,14.5s-28,14.25-39,19
	S396,984.75,381,988.25s-16.25,7-29,10.5s-24.75,7-35.25,4.5s-18.75-5-25.75-8.5s-11.75-5.5-15.75-12.5s-4.25-9.5-3.75-18.5
	s4.25-17.5,4.25-27.75s0-19.5-2.5-28.25s-5-14.25-8.25-17.5s-5.75-6.5-5-10.25s1.25-7.5,4-4.25s3.75,5.25,5.75,4.5
	s5.75-5.75,5.75-5.75s-2.25,3.75-5,3.25s-4.25-1.25-7.25-6.75s-5.25-9.75-5.5-16.25s0-11,0-11s3.75-1.25,5.5-2.5s3.75-4,3.75-4
	s-5.5,4.25-8,4s-4.25-2-4.5-6s0.25-21.25,1.25-26.75s1.25-8.5,2.5-12.5s1.5-10.25,3.25-12s5.75-3.75,5.75-0.25s-0.25,5.75,0.75,7
	s1.75,2.25,1.75,2.25s-1.25-2.25-1.5-5.75s0.75-6-2-6.75s-5.25,0.25-6.5,2.75s-2.25,6.25-2.5,8s-1,3.5-1,3.5s-1.5,1.25-1.75-6.25
	s0-8.25,3-13s4.75-7.25,8.5-16.5s6.75-19,6-25.75s-1.25-11.75-4-15s-5.75-5.5-4.25-7.75s3-2.75,7-3.75s12-2.25,21.75-7.5
	s15.75-8.75,17.25-18.25s1.75-14.25-2-24.75s-4.75-14-10.5-22s-10-13.25-11-19s0.5-9.25-1-13.25s-2-5.25-4.5-6.25
	s-3.5,1.25-4.25-0.25s-1.5-2.5-1-5.5s1.5-2.75,2.75-4.5S279.5,582.25,279.5,582.25z"/>
<path fill="#D1D3D4" d="M408.5,689c0,0,14-2.5,18-7.5s6.75-11.25,15-12.5s14.75,2.75,24.25,0.5s13-2,24-13.5S507,637,519,629
	s20-12.25,30.5-16.25s28-10,40-13.25s20-3.75,25.5-3.75s-8,1.25-16.25,3.5s-23.5,7-35,11.25s-18.5,8.25-28.25,13.25
	s-20.5,12.25-22,14s-1.5,1.75-2,2s2-1.25,6.5,2s11.25,15,15,20s14.25,15.75,34.75,13.5s34-9,38.75-18.75s6.5-14.75,7.75-20.25
	s3.5-10,3.5-10s-19.75-2.75-29-5.5s-29.25-11-40.25-19.5S527.5,585,519,575.5s-18.25-23-22.5-29.25s-8.75-13-13.25-17s-9-6.5-9-6.5
	s12.5,6.75,17.25,13.5s14.5,21,21.25,28.75s18.75,18.75,25.5,24.25s17.75,13,24,16.5s10,7.25,22.25,10.25s16.5,4.5,29.25,5.25
	s21,3.5,30.5,6s14,3.75,23.25,8s26.25,14.5,31.25,19s8.25,10,12,10.5s5.25,2,6-2s0.25-9.25-1.5-14.5s-4-15.25-11.25-28.5
	s-13.75-27-20.25-38s-13-23.75-16.25-34.25s-3-17.25-5.5-22s-3.5-5.75-8.5-7.5s-6.75-1.75-13.25-2s-24.5,0.75-24.5,0.75
	s19.75-2.5,29-2.5s15-1.5,17.5,3.25s4.75,13.75,7.5,23.25s8.25,23.75,13,32.75s24.25,45,26.75,51s10.5,24,10.25,30
	s0.25,11.5-2.5,12.5s-7,1.5-12.25-3.25S691,653.5,684.5,649s-17-10.5-30.25-14.75s-18.25-5.75-24-6.25S620,627,620,627
	s-2,10.75-4.75,18.5s-5,14.25-12,20.25s-14.75,13-27.25,14.5s-13.75,1.25-24.75-1.75S531.5,667.5,528,661s-5.25-12.5-9.5-15
	s-8.75-6.75-13.75-0.25S494,660.5,490,663.25s-10,8.75-18.5,9.5s-12.5,0.25-19.5,0s-11.5-1.5-15,3.75s-8.75,11.75-10.5,20.75
	s-1.25,13.25-2,18.75s0,10.25-0.75,15s-5,14-5,14s4.25-9.75,4-18.25s-1.5-20,0-27.5s4.75-11.75,4.75-11.75s3-4-1.5-2
	s-9,3.25-11.5,3.25S408.5,689,408.5,689z"/>
<path fill="#D1D3D4" d="M289.5,707.5c0,0,33-1,52.5,1.5s46.5,8.5,61,9.5s39,1.5,54.5,0.5s18.5,0,18.5,0s-51,3-68.5,1.5
	s-40-5.5-54.5-8s-37-4-46.5-4S289.5,707.5,289.5,707.5z"/>
<path fill="#D1D3D4" d="M506,722.5c18.5,4,37.5,11,53.5,21.5s27,19,34,26s18.5,22.5,18.5,22.5s-28-28-40-37s-32-20-44.5-25
	S506,722.5,506,722.5z"/>
<path fill="#D1D3D4" d="M499,778.5c0,0,46.5,17.5,61.5,27S608,840,608,840s-39.5-28.5-52.5-35S499,778.5,499,778.5z"/>
<path fill="#D1D3D4" d="M495,795.5c0,0,25,5,52.5,23.5s48.5,44.5,48.5,44.5s-26-27-46.5-40.5C524.445,806.501,495,795.5,495,795.5z"
	/>
<path fill="#D1D3D4" d="M628.5,859.5c0,0,10,7,13,2.5s-1-18-3-24S627,816,627,816s12,25.5,13,31.5s3.5,10,1,12s-3.5,3-6,1.5
	S628.5,859.5,628.5,859.5z"/>
<path fill="#D1D3D4" d="M610,887c0,0-1.5,33.5-5.5,42.5s-19,32.5-19,32.5s15-24,18-35.5S610,887,610,887z"/>
<path fill="#D1D3D4" d="M645,894c0,0-14.5,18.5-23.5,26.5S593,943,586,947s-13,11-14.5,7s-0.5-8,1-12.5s12-21.5,12-21.5
	s-8.5,16.5-18,23s-22,16-32.5,19.5s-18.5,7.5-22,12.5s-4.5,8.5-3.5,12.5s0.5,9.5-1.5,15s-5,13.5-2.5,18.5s7.5,6.5,15-1
	s12.5-15,22.5-20.5s28-15,40-23.5s37.5-31.5,48.5-42.5s20-23,21.5-28s3-11.5,1.5-13.5s-5-0.5-5-0.5s4.5-2,4.5,2s-1,9.5-7,18.5
	s-21,25-29,32s-28,24.5-37.5,30.5s-21,13-26.5,15.5s-19.5,4-19.5,4H546c0,0-6.5,4.5-11,8s-7.5,8.5-11.5,11.5s-6.5,9-10,9.5
	s-8.5,2-7.5-5s5-11,5.5-20.5s-5-13,2.5-19.5s13.5-10.5,24.5-15.5s22.5-10.5,24.5-13s7-7.5,7-7.5s-3.5,7-2,10.5s3,6,10.5,2
	s22-14,30.5-21s18-16,23-21s13.5-16.5,13.5-16.5l3-4.5"/>
<path fill="#D1D3D4" d="M602,935c0,0,8.5-9,18-3s14.5,13.5,13.5,27.5s-10,33.5-12.5,47s-4,25.5-2.5,41.5s3.5,28,8.5,41.5
	s8.5,22.5,8.5,22.5s-18-42.5-19-61.5s0.5-38.5,5-54s10.5-29,9-41.5s-4-16.5-8.5-20s-9-2-13-1.5S602,935,602,935z"/>
<path fill="#D1D3D4" d="M663,957.5c-5.5,2-10,5.5-8.5,18.5s3.5,22-2,27.5s-13.5,12.5-22,11S611,1008,599,1007s-32,4.5-39.5,8.5
	s-10,9.5-15.5,11s-14,2.5-19,6.5s-8.5,7.5-7.5,17.5s1.5,6.5,0.5,18s-5.5,23.5-5.5,30s0.5,9.5,5.5,13.5s10.5,7,15.5,13.5
	s11,18.5,18,22.5s15,8,22.5,4s9.5-7.5,18.5-13s16-14,31-14s17.5,0.5,21,3s9.5,8.5,9.5,8.5s-1.5,13,1.5,19.5s1.5,10,6,9.5
	s7-2.5,9.5-11s4.5-15.5,3.5-28.5s-4.5-29-5.5-40s0-38,0-38s0,0,3.5-14.5s6-20,5-38s-3.5-28.5-7-33s-5.5-5-5.5-5s7.5,5,9,21
	s3,27.5-0.5,42s-10.5,38-10.5,38l-9,28.5l13.5-34.5c0,0,0,21,0.5,31.5s3,20,3.5,31.5s2,21,0,29s-3.5,16-6.5,17.5s-7,2.5-8-10
	s-0.5-27.5,0-33s0.5-15.5,0.5-15.5l-4,29.5c0,0,1-4-7.5-7s-19-5-29-2s-18.5,7-26,13s-13,12-19.5,13.5s-12.5,2.5-21-6.5
	s-13.5-16.5-20-24s-16-8.5-15.5-16.5s4.5-21.5,5.5-34s-2-18.5-0.5-24s2.5-8.5,7.5-11.5s9.5-3.5,12-4.5s4.5-3,4.5-3s-2,4-5,8
	s-4,6.5-7,8s-5.5,1-2.5-2.5s4-5,4-5s-7,3.5-7,7.5s1.5,6.5,5,3s8-9,14.5-16s8-9.5,17-13.5s14-8,26-7s16.5,1,25,3.5s11.5,5.5,23,3
	s12.5-2,17-8.5s5.5-16,4-21.5s-3-15-0.5-19.5s4.5-7,4.5-7L663,957.5z"/>
<path fill="#D1D3D4" d="M688.319,1010.534c0.407,2.159,3.318,1.771,3.177,3.965c-0.447,6.853,3.688,12.318,10.013,12.411
	c1.201,0.017,2.343-3.125,3.37-4.793c1.398-2.271,0.861-6.909,3.787-8.256c6.803-3.131,17.396-0.67,21-9.905
	c1.538-3.938,8.061-6.967,13.844-7.291c2.348-0.131,1.596-2.558,2.99-3.165c-3.727,5.127-11.464,4.748-14.272,9.436
	c-1.778,2.968-4.094,6.037-6.253,7.981c-4.067,3.663-11.576-0.494-16.254,3.822c-3.252,3.003-2.589,8.444-5.551,11.434
	c-2.752,2.775-7.129,1.366-10.591,0.109c-2.352-0.854-2.352-4.261-3.308-6.169c-4.823-9.625-6.549-20.649-7.577-31.633
	c-0.443-4.729,0.68-9.579,2.299-13.791c2.382-6.199,5.372-12.195,8.233-18.316c1.117-2.393,0.078-5.266-0.728-7.873
	c-0.312,2.455,4.271,2.229,2.868,4.932c-0.283,0.547-1.53,0.617-1.699,1.125c-0.506,1.518,0.329,3.521-0.418,4.797
	C683.7,975.665,684.932,992.597,688.319,1010.534z"/>
<path fill="#D1D3D4" d="M716.83,1032.895c1.258-1.051,1.485-3.523,3.67-3.395c-0.533-2.145,0.21-4.386,1.302-5.76
	c1.75-2.2,3.538-4.584,5.884-5.914c2.188-1.241,5.323,0.421,7.814-1.326c-3.891,1.845-8.122,0.665-10.41,5.818
	c-0.215,0.484-3.044-0.047-3.271,1.237c-0.329,1.861,1.483,3.096,3.682,2.943c-2.876,3.654,2.349,6.498,1,10
	c-1.834-2.215-1.901-5.688-5-7c-0.747,2.768-3.249,4.502-5.235,5.557c-5.536,2.941-10.445,6.33-15.317,10.03
	c-1.417,1.077-0.215,4.423-3.103,6.827c-1.497,1.249,1.994,2.289,2.309,3.665c2.216,9.727,8.028,16.928,11.141,25.991
	c0.621,1.809-0.438,4.26,0.529,5.716c0.933,1.404-0.331,4.386,2.678,4.214c-1.872,5.576,3.485,9.701,3,15
	c-1.691-5.473-7.54-10.782-5.235-17.086c0.03-0.082-1.443-0.471-1.585-0.966c-0.539-1.885,0.482-4.328-0.511-5.71
	c-2.195-3.058-0.721-6.924-4.449-9.552c-0.659-0.465,0.233-2.746-0.445-3.476c-5.875-6.307-10.121-15.449-7.012-22.894
	C701.254,1039.66,710.532,1038.153,716.83,1032.895z"/>
<path fill="#D1D3D4" d="M681.646,877.683c7.048-5.7,3.539-12.775,0.854-19.183c-4.696,3.498-7.555,10.615-12.28,6.225
	c-10.508-9.762-10.445-26.044-9.504-40.21c0.025-0.382,1.536-0.638,1.573-1.034c1.06-11.456-0.042-21.933-3.419-33.092
	c-1.79-5.914-0.97-12.545,2.303-17.438c2.429-3.633,2.769-7.641,2.465-10.354c-0.446-4.003,0.604-7.806,1.558-10.882
	c1.279-4.125,5.002-9.278,4.933-12.182c-0.15-6.282-3.056-13.749-0.848-19.746c1.995-5.42,4.173-11.471,5.96-16.717
	c2.849-8.356,1.443-18.947,5.139-27.177c1.185-2.637,0.746-6.248,3.122-8.395c-3.65,12.43-2.986,26-7.949,37.594
	c-6.369,14.876-4.901,30.281-1.08,45.157c1.688,6.566,4.781,14.405,13.029,16.249c-2.715-0.479-6.133-0.729-7.539-2.39
	c-4.354-5.149-9.486-10.775-7.705-18.666c0.041-0.184-1.183-0.938-1.704-0.777c-5.739,1.782-3.534,8.532-4.689,12.256
	c-2.28,7.338,2.498,17.828,9.638,23.577c-4.805-1.171-6.751-7.744-9.464-8.986c-5.064-2.318-1.519,8.662-6.536,11.986
	c5.333,17.628,4.463,35.726,3.515,54.026c-0.436,8.412,1.594,16.649,6.938,23.629c1.186,1.549,4.556,4.261,6.279,1.192
	c2.57-4.577,5.26-8.811,8.639-12.512c0.712-0.78,1.791-2.683,3.631-2.337c-4.656,3.74-8.073,9.698-2.629,15.582
	c2.173,2.348,2.681,7.474,1.373,11.332c-0.656,1.936-2.564,3.11-4.494,4.446c-4.754,3.296-6.875,9.253-8.137,13.938
	c-3.341,12.401-2.706,25.549-0.316,38.554c0.801,4.362,0.453,9.14,3.324,13.06c1.181,1.612,3.354,1.56,4.762,0.854
	c6.934-3.47,6.87-11.815,11.455-17.494c1.799-2.229,2.733-4.732,4.901-5.771c2.429-1.162,3.113-4.138,5.761-4.501
	c-5.814,5.647-11.074,12.983-13.731,20.749c-1.61,4.708-6.228,9.523-12.227,8.866c-1.506-0.165-3.031-2.61-3.497-3.825
	c-5.633-14.674-3.018-30.349-3.229-45.794C671.71,889.605,675.249,882.859,681.646,877.683z"/>
<path fill="#D1D3D4" d="M704.156,872.76c4.572,6.068,10.73,10.384,17.344,13.74c-8.331,0.561-14.894-4.819-19.756-11.186
	c-4.027-5.271-2.117-12.649-6.503-17.584c-0.432-0.483-1.998-0.499-2.63-1.316c-0.334-0.433-0.292-1.598-0.021-1.734
	c2.93-1.473,5.104,1.729,6.459,3.229C702.461,861.684,700.412,867.79,704.156,872.76z"/>
<path fill="#D1D3D4" d="M765.012,783.064c1.782,2.095,4.938,3.584,7.488,5.436c-5.568-1.605-11.535-3.662-14.372-8.378
	c-2.35-3.907,3.438-7.856,3.372-12.622c1.779,0.226,2.16-2.346,4-2c-2.59,1.674-2.331,5.117-4.38,7.527
	C758.65,775.934,762.726,780.377,765.012,783.064z"/>
<path fill="#D1D3D4" d="M773.38,942.562c0.993,1.893,2.063,3.526,4.139,3.797c0.625,0.08,1.673-0.422,1.794-0.906
	c0.563-2.258,0.188-4.619,0.188-6.953c-1.548,9.668,5.054,15.775,14,17c-0.202,1.179,0.46,2.068,1,3
	c-2.788,0.414,0.629-3.319-1.998-2.983c-4.192,0.535-7.805-0.304-11.002-3.017c0.546,11.431,2.039,22.488,4.639,33.854
	c2.998,13.111,5.894,25.35,8.361,38.146c-4.765-17.836-8.379-35.122-12.078-53.786c-1.358-6.856,0.951-14.623-4.215-19.929
	c-5.482-5.633-11.492-11.665-13.774-19.267c-0.9-3.001-4.437-3.368-3.933-7.02c1.129,0.478,2.552,0.854,2.835,2.04
	C764.94,933.278,770.317,936.731,773.38,942.562z"/>
<path fill="#D1D3D4" d="M831.475,877.534c8.151,6.043,12.681,14.011,21.123,19.825c5.699,3.925,11.602,6.021,16.717,10.359
	c3.477,2.949,3.88,7.58,4.942,11.841c0.041,0.164-1.55,0.784-1.523,0.85c3.145,8,1.381,16.703,6.295,24.393
	c1.418,2.222,1.479,6.392-0.031,8.302c-2.992,3.782-7.892,1.149-11.052-1.2c-4.521-3.362-8.506-7.284-12.878-10.874
	c-3.704-3.041-8.095-5.839-12.547-5.726c-4.431,0.112-9.396-0.29-12.806-3.066c-5.997-4.884-10.346-10.761-15.571-16.407
	c-3.194-3.453-8.583-4.249-11.644-8.329c6.867,3.243,14.742,6.368,18.186,13.915c0.116,0.254,1.148,0.085,1.814,0.085
	c-0.337,0.669-0.665,1.334-1,2c2.455-0.312,2.138,3.991,5,3c-0.337,0.669-0.665,1.334-1,2c2.709,1.177,4.532,2.76,6.541,4.29
	c4.062,3.095,10.355,1.365,15.356,1.827c3.706,0.343,8.128,4.381,11.703,8.34c4.216,4.667,10.509,7.973,16.597,9.93
	c2.224,0.716,2.933-3.572,2.348-5.226c-1.552-4.385-1.835-9.049-3.979-13.438c-3.351-6.851,0.764-15.519-3.983-22.437
	c-1.271-1.854-3.133-3.992-4.823-4.735c-9.872-4.342-18.351-10.312-25.123-18.104c-9.945-11.44-20.853-23.246-36.629-23.668
	c-0.354-0.009-0.586-1.495-1.043-1.578c-2.744-0.501-5.478-0.487-8.078-2.004c-1.023-0.597-2.551-0.198-3.885-0.198
	c11.206,0.97,21.202,3.839,31.969,7.105c1.775,0.537,0.496,3.25,2.082,3.728c0.527,0.159,1.427-0.848,1.875-0.657
	C828.869,872.714,829.206,875.852,831.475,877.534z"/>
<path fill="#D1D3D4" d="M825.078,1046.718c2.603,5.046,1.741,11.077,1.278,16.771c-0.061,0.739-1.489,1.375-1.546,0.97
	c-0.932-6.812,1.293-13.771-2.73-19.672c-7.98-11.7-18.455-21.31-19.58-35.286c1.146,6.465,3.469,12.982,7.614,17.427
	c2.57,2.755,3.009,6.854,6.915,9.319C820.514,1038.444,822.969,1042.624,825.078,1046.718z"/>
<path fill="#D1D3D4" d="M813.148,1057.843c4.048,4.146,9.19,6.814,12.352,11.657c-3.572,0.066-4.344-3.911-7.058-4.83
	c-0.503-0.17-1.739,0.572-1.7,0.786c1.483,8.175,5.906,14.67,12.132,19.568c9.001,7.085,17.903,12.155,25.303,20.753
	c4.83,5.611,8.681,11.99,10.72,18.899c1.031,3.499,2.144,8.38-0.688,11.562c-2.877,3.233-7.009,0.603-10.701,0.201
	c-1.687-0.184-2.225-2.102-3.188-2.559c-7.58-3.589-16.351-9.302-19.818-16.383c-0.669,0.337-1.395,0.979-1.96,0.839
	c-0.806-0.199-1.374-1.173-2.04-1.839c8.253,4.074,14.197,11.219,22.231,15.572c3.53,1.913,7.011,3.927,10.815,5.294
	c3.292,1.182,4.875-3.24,5.069-4.072c2.217-9.463-5.988-16.527-10.606-24.511c-3.037-5.248-8.161-8.89-12.937-12.758
	c-4.109-3.33-8.688-5.916-13.423-8.776c-3.05-1.841-4.635-5.143-6.766-8.034c-5.196-7.05-5.695-15.86-11.51-22.608
	c-1.491-1.729-3.945-1.871-5.972-2.924c-0.396-0.205-1.239,0.482-1.905,0.817c1.081,1.146,1.061,2.567,1,4
	c-1.697-6.357-5.931-9.509-12-11c2,0,4.063-0.359,5.948,0.18c0.497,0.144,0.614,1.516,1.097,1.63c2.103,0.5,2.072-1.323,1.955-2.81
	C800.132,1052.706,809.231,1053.832,813.148,1057.843z"/>
<path fill="#D1D3D4" d="M886.126,1177.688c1.489,2.97,3.911,5.229,5.87,7.356c9.894,10.753,19.073,20.995,30.312,30.68
	c1.604,1.384,2.191,3.775,3.192,5.776c-1.455-0.84-1.836-2.665-3.718-3.58c-1.774-0.862-2.562-4.533-4.526-6.118
	c-21.333-17.216-42.484-37.771-40.876-66.309c0.154-2.741-4.651-2.59-3.88-5.993c1.173,1.795,3.354,3.128,3.67,5.055
	C878.092,1156.209,880.786,1167.045,886.126,1177.688z"/>
<path fill="#D1D3D4" d="M891.68,1220.156c-12.381-6.499-25.98-11.319-40.18-9.656c19.954-2.654,38.244,5.727,55.6,17.084
	c4.371,2.859,12.201,6.959,17.4,1.916c0.154,1.744-0.672,3.461-2.052,3.714C910.064,1235.479,901.895,1225.518,891.68,1220.156z"/>
<path fill="#D1D3D4" d="M841.012,1199.061c2.562-2.845-1.854-6.051-3.912-8.172c-3.589-3.699-7.826-7.019-12.6-9.389
	c7.191,0.564,12.073,6.301,16.604,11.355c2.528,2.823,2.631,8.242-0.848,10.217c-10.87,6.167-17.224-6.959-24.757-12.572
	C824.02,1194.457,832.217,1208.823,841.012,1199.061z"/>
<path fill="#D1D3D4" d="M843.337,1234.334c-2.509,2.464-4.793,4.909-8.837,4.166c12.61-0.912,8.811-15.047,8-23
	C841.958,1222.215,849.963,1227.824,843.337,1234.334z"/>
<path fill="#D1D3D4" d="M810.959,1207.145c1.941,2.51,0.524,5.457,2.541,7.355c-4.459-9.58-10.755-19.354-20-24
	C801.34,1193.388,805.869,1200.569,810.959,1207.145z"/>
<path fill="#D1D3D4" d="M759.553,1193.548c3.383-3.714,5.488-7.233,6.9-12.062c0.487-1.663-1.372-2.004-1.793-1.735
	c-4.549,2.913-9.689,8.059-13.596,5.022c-7.243-5.625-6.597-16.078-10.539-24.285c-2.038-4.241-4.021-8.702-7.412-11.523
	c-5.671-4.718-11.704-11.157-11.222-18.438c0.775-11.68,10.718-18.815,16.964-28.444c3.438-5.303-1.088-12.372,1.645-18.582
	c-1.619,7.587,1.93,16.383-2.76,22.409c-5.206,6.691-10.158,12.951-14.545,20.021c-3.479,5.607-0.101,12.111,4.763,15.995
	c13.607,10.87,13.507,27.113,23.102,40.162c3.006,4.086,10.048,0.415,11.728-2.944c2.952-5.909,4.515-12.857,5.714-19.645
	c-1.764,8.615,1.552,18.015-1.828,25.632c-2.355,5.31-6.17,10.334-9.677,15.692c-2.661,4.064-4.003,10.04-0.059,13.115
	c13.327,10.392,24.939,24.163,27.562,40.561c-4.529-16.327-16.256-29.011-28.116-40.883
	C751.863,1209.093,754.357,1199.253,759.553,1193.548z"/>
<path fill="#D1D3D4" d="M775.51,1119.391c7.242,0.646,11.423-6.679,7.717-12.723c-4.356-7.104-11.446-10.407-17.727-15.168
	c6.36,1.695,9.752,9.131,16.027,9.439c4.104,0.2,2.199-4.973,2.428-7.488c0.308-3.393-2.62-6.599-4.56-9.892
	c-0.867-1.472-3.809-0.398-3.896-3.061c4.232-0.086,5.192,4.612,7.251,6.729c3.155,3.244,0.707,10.667,0.956,15.205
	c0.226,4.124,2.987,10.151,0.191,13.576c-1.821,2.232-5.403,6.077-8.108,4.851c-3.032-1.375-6.614-1.318-9.176-3.494
	c-3.135-2.663-6.062-5.256-9.114-7.865C764.008,1112.431,768.188,1118.739,775.51,1119.391z"/>
<path fill="#D1D3D4" d="M777.482,1146.92c5.599-0.172,8.155-6.722,8.018-12.42c1.229,9.119-6.807,17.008-14.645,11.495
	c-2.769-1.947-5.146-4.951-7.804-6.88c-4.146-3.01-6.735-6.446-10.553-9.615c2.838,1.829,4.457,5.257,7.202,6.581
	C766.269,1139.246,770.21,1147.145,777.482,1146.92z"/>
<path fill="#D1D3D4" d="M913.52,1138.139c6.685,0.357,13.928,0.008,19.63,2.254c5.362,2.113,11.311,1.488,16.942,5.212
	c3.723,2.459,9.303,2.761,14.453,3.631c13.24,2.233,26.586-4.229,38.582,1.104c11.634,5.172,19.647,15.939,29.535,24.983
	c1.844,1.685,5.072,1.354,6.597,3.359c0.515,0.677,0.499,2.161,1.333,2.666c0.758,0.457,2.137-0.184,2.776,0.319
	c5.946,4.669,11.92,9.776,14.224,16.16c1.224,3.39,4.306,9.122,0.533,12.214c-3.928,3.221-9.66,0.568-14.625,1.458
	c1.225,3.612-2.353,4.726-4.465,6.422c-4.115,3.306-11.124,2.244-14.938-0.312c-2.487-1.668-5.902-3.466-8.062-6.812
	c-1.248-1.935-4.578-2.644-6.835-3.591c-8.719-3.66-17.95-6.749-27.707-7.659c-8.835-0.823-17.479-0.127-25.867,2.379
	c-5.099,1.522-9.956,3.173-15.056,4.798c-4.392,1.398-6.555,6.275-11.072,7.774c0.776-3.891,4.836-4.563,7.392-6.479
	c8.163-6.12,18.479-6.259,27.773-10.124c2.864-1.191,6.463-0.804,9.798-0.195c0.459,0.083,0.702,1.132,1.037,1.798
	c5.479-4.211,13.277,3.308,19.869,0.672c1.734-0.693,1.747-3.239,0.018-4.52c-5.266-3.896-11.529-4.607-17.262-7.377
	c-4.631-2.239-10.409-2.964-15.625-4.775c6.95,1.89,14.289,2.645,20.794,5.474c14.423,6.274,26.246,15.414,39.533,25.076
	c5.919,4.306,15.287,3.599,20.521-2.862c2.936-3.625,13.241,1.322,13.688-5.716c0.443-6.974-5.346-11.894-8.866-17.773
	c-0.229-0.383-1.9-0.483-2.577-1.277c-0.965-1.131-1.202-3.265-2.2-3.569c-1.556-0.476-3.495-0.86-4.662-1.679
	c-5.396-3.776-9.588-7.719-14.855-11.233c-4.037-2.694-6.562-7.59-10.011-10.743c-3.881-3.55-8.63-7.852-14.395-8.365
	c-13.356-1.189-26.737,3.344-39.824-0.789c-11.778-3.718-22.83-8.146-35.158-9.418c-16.479-1.701-32.755-1.476-48.987-4.121
	C888.06,1138.558,900.688,1137.453,913.52,1138.139z"/>
<path fill="#D1D3D4" d="M941.553,1124.072c10.404,1.29,20.722,3.311,29.369,7.595c4.048,2.006,8.945,1.038,13.062,4.203
	c3.046,2.343,8.366,3.493,12.343,0.407c2.31-1.792,0.919-6.218-1.827-7.777c1.674,0.341,1.984-1.557,1.771-1.78
	c-5.342-5.569-6.883-11.694-11.293-17.846c-2.715-3.788-7.493-6.478-11.688-7.546c-15.107-3.843-28.979-9.038-43.234-14.707
	c-21.227-8.44-44.928-2.998-67.478-9.395c-8.037-2.278-15.715-4.854-22.57-9.479c-2.438-1.646-6.659-1.516-7.507-5.248
	c2.4,4.324,7.861,3.15,11.686,6.117c6.771,5.252,15.689,7.254,24.462,9.236c8.547,1.935,17.161,1.563,25.819,2.139
	c12.741,0.845,25.981-0.85,37.836,4.912c12.189,5.925,23.646,12.658,37.184,13.771c9.306,0.765,16.229,7.593,20.57,15.08
	c2.134,3.679,1.457,8.062,6.226,11.088c0.719,0.457,0.3,2.508-0.781,3.655c3.154,1.972,1.988,5.858,1.849,8.993
	c-0.093,2.074-4.146-0.169-3.849,3.007c-5.41-3.802-13.049-1.534-17.495-5.56c-3.989-3.609-9.009-1.15-13.101-4.768
	c-5.185-4.582-13.552-2.057-20.768-4.675c-11.006-3.993-23.609-2.468-35.638-1.999
	C918.102,1121.501,929.884,1122.624,941.553,1124.072z"/>
<path fill="#D1D3D4" d="M995.69,1239.017c4.828,1.905,10.419,1.447,15.851,2.173c10.737,1.437,21.973-2.563,31.577,1.269
	c6.893,2.75,14.073,8.243,17.382,16.043c-5.396-3.88-9.662-9.544-15.339-12.306c-13.592-6.609-29.119-0.112-43.507-4.231
	c-19.459-5.57-37.677-12.438-57.154-16.463c8.239-1.938,15.35,2.839,22.735,4.933
	C976.795,1233.145,986.347,1235.329,995.69,1239.017z"/>
<path fill="#D1D3D4" d="M1086.396,1279.652c-3.036-2.057-6.769-1.7-9.713-3.461c-5.794-3.465-8.812-9.729-14.185-13.691
	c3.522,0.002,3.326,4.547,6.919,5.357c1.639,0.369,0.521,3.686,2.18,4.418c0.665,0.293,2.236-0.106,1.901-1.775
	c0.478,1.129,0.871,2.479,2.041,2.879c4.459,1.524,8.181,4.107,12.939,5.201c2.555,0.587,2.791,3.853,3.242,5.184
	c2.062,6.08,4.708,13.125,0.246,18.277c-5.44,6.286-15.01,6.616-22.128,2.818c-7.194-3.839-14.677-6.888-21.831-10.351
	c-12.585-6.094-27.052-8.399-41.511-8.01c11.795-0.44,23.471,0.242,34.85,3.521c11.137,3.208,19.814,11.263,31.282,13.903
	c5.919,1.362,12.999,2.61,17.5-2.735c4.122-4.896-0.224-10.972,0.107-16.703C1090.365,1282.311,1088.205,1280.875,1086.396,1279.652
	z"/>
<path fill="#D1D3D4" d="M1108.553,1272.471c0.611,1.141,1.818,1.555,2.947,2.029c-3.233-0.188-3.312-4.156-6-5
	c0.666,0,1.547-0.227,1.887,0.113C1108.07,1270.297,1108.052,1271.536,1108.553,1272.471z"/>
<path fill="#D1D3D4" d="M759.84,1024.127c3.551,3.232,3.844,7.725,6.905,11.154c0.24,0.27,2.09-0.112,1.755-1.781
	c0.1,1.378-0.419,3.168,2,3c-11.829-1.399-10.977-15.244-16.542-23.641c-0.377-0.568-2.555-1.024-3.359-2.416
	c-0.297-0.515-0.099-1.277-0.099-1.943c1.362,3.646,4.514,4.17,7.766,6.349c1.062,0.711-1.336,1.044-1.541,1.721
	c-0.604,2.002,1.29,2.05,2.775,1.932C759.5,1020.501,758.82,1023.199,759.84,1024.127z"/>
<path fill="#D1D3D4" d="M748.258,1052.667c0.514,0.741,0.51,2.09,1.328,2.721c0.436,0.336,1.248,0.112,1.914,0.112
	c-6.351,1.042-4.095-7.172-9-9c0.692-0.881-1.386-2.686,1-3C743.282,1047.129,746.006,1049.409,748.258,1052.667z"/>
<path fill="#D1D3D4" d="M729.832,1100.57c-0.494,2.332-1.824,2.978-3.332,3.93c1.035-0.756,2.081-2.141,1.719-2.857
	c-2.575-5.088,2.113-8.969,3.281-13.143C729.81,1092.331,730.715,1096.396,729.832,1100.57z"/>
<path fill="#D1D3D4" d="M719.473,926.177c3.111-0.27,2.783,3.286,5.027,3.323c-5.839-2.852-12.815-8.1-19-4
	C709.68,919.527,714.127,926.637,719.473,926.177z"/>
<path fill="#D1D3D4" d="M963.5,475.5"/>
<path fill="#D1D3D4" d="M962,478c3.25,3.5,3.694,5.368,3.559,8.459c-0.25,5.693-3.367,11.5-8.059,16.041
	c1.459-6.832,9.395-12.35,5.54-19.76c-3.514-6.753-12.615-13.055-20.54-10.24c-0.25,3.5-0.75,5,0,11
	c-3.68-5.077-0.394-12.269-5.136-16.859c-7.916-7.664-18.132-9.502-28.792-7.709c-8.199,1.379-10.495,9.068-9.072,16.569
	c-0.562-2.095-1.307-10.71-1-10.875c-2.869-4.238-2.31-9.307-8.028-9.797c-3.86-0.331-7.573-0.107-11.415,3.148
	c-4.008,3.397-10.43,0.577-15.492,2.676c-4.224,1.75-10.038,4.111-8.823,9.796c0.765,3.578,3.67,6.219,3.76,10.051
	c-1.265-4.738-4.594-9.296-9.135-10.489c-8.104-2.13-12.658,6.089-14.909,11.862c-7.286,18.688-4.279,40.34,7.044,57.627
	c-5.198-2.776-5.349-8.949-7.166-13.345c-4.718-11.41-7.798-24.25-4.206-36.472c1.857-6.316,2.985-13.863,8.759-17.584
	c3.357-2.163,6.946-5.436,11.569-4.404c0.479,0.105,0.709,1.138,1.044,1.805c0.669-0.337,1.595-0.526,1.864-1.067
	c0.405-0.812-0.167-2.081,0.287-2.842c2.686-4.5,7.837-5.564,12.066-7.645c2.721-1.336,6.772,0.37,9.605-0.854
	c4.674-2.019,9.438-4.263,14.154-4.066c4.715,0.194,7.7,4.852,10.672,7.825c1.646,1.648,4.426-3.315,7.427-4.02
	c6.698-1.569,13.817-1.092,19.615,1.388c5.758,2.463,11.146,5.713,15.062,11.793c1.204,1.869,5.821,0.154,9.34,1.152
	c3.168,0.899,4.99,3.114,7.86,4.141L962,478z"/>
<path fill="#D1D3D4" d="M976.463,491.548c-3.563-2.165-6.584-0.242-9.919,0.424c-0.133,0.027-0.044,1.111-0.044,1.778
	c7.5-4,13.514,1.48,17.634,7.261c1.715,2.406,4.46,4.706,6.128,6.437c15.238,15.804,32.46,35.999,26.48,60.113
	c-0.041,0.165,1.439,0.497,1.574,0.99c1.635,6.019-0.489,11.867-3.459,16.542c-5.082,8.002-10.419,18.619-22.399,16.667
	c-0.558-0.091-1.241,1.465-1.979,1.543c-1.077,0.114-2.223-0.767-2.979-1.802c-0.203,1.179,0.291,2.475,1.083,2.793
	c1.247,0.502,2.847,0.036,2.917,2.207c-2.674,0.077-2.284,3.6-4.967,4.16c-6.551,1.367-9.295-2.916-13.407-5.995
	c-10.207-7.644-16.554-18.042-25.627-27.164c-1.357-1.364-2.47-3.208-4.088-3.721c-2.322-0.736-4.824-1.799-6.547-2.867
	c-4.27-2.646-9.613-3.814-12.203-8.501c-2.431-4.397-5.897-7.766-7.633-12.747c-0.343-0.981-2.508-2.383-4.528-2.165
	c5.673,3.281,5.074,10.615,9.34,14.64c1.783,1.683,2.493,4.047,4.644,5.39c6.057,3.784,12.657,5.521,17.771,10.239
	c4.575,4.224,9.768,7.838,12.684,13.048c6.311,11.27,10.274,23.089,12.721,35.846c3.136,16.362-15.452,19.276-27.328,23.335
	c-6.438,2.201-10.521-3.995-8.828-10.497c0.335,1.669-1.047,1.622-2,2c-3.924-13.071-0.115-27.587-11-38
	c8.179,13.464,10.329,28.637,10.497,44.005c0.05,4.525-3.964,8.532-8.493,8.497c-9.306-0.073-19.28,3.126-27.661-1.171
	c-6.401-3.283-4.144-12.554-4.343-19.331c0.144,6.002,0.29,12.564-1.178,17.661c-1.51,5.241-9.724,8.157-15.437,4.7
	c-6.881-4.163-15.144-4.569-20.264-11.453c-4.813-6.472-3.958-14.452-0.469-20.533c3.762-6.557,9.417-11.797,13.346-18.375
	c-5.424,6.233-10.835,12.213-16.83,18.171c-0.51,0.508,0.159,2.249-0.335,2.591c-7.041,4.888-12.316-5.19-12.184-10.747
	c0.321-13.446-3.469-27.336,1.968-39.744c2.966-6.773,7.27-13.321,13.721-17.779c4.34-2.999,7.28-6.406,11.844-7.946
	c9.312-3.144,21.118-2.303,28.028,6.284c0.581,0.722,1.995-0.792,2.711-0.575c1.329,0.402,1.137,2.313,1.077,3.746
	c-0.214-1.364-0.334-2.856-0.484-4.063c-0.505-4.053,4.345-6.859,8.484-5.937c-1.001,0-2.121,0.271-2.933-0.135
	c-0.542-0.271-0.592-1.458-1.136-1.729c-0.812-0.405-2.322-0.471-2.72,0.033c-2.121,2.689-1.803,10.622-4.354,7.998
	c-6.046-6.219-14.654-8.493-22.824-9.455c-0.649-0.077-1.416-2.231-0.948-2.342c9.285-2.169,14.699-7.946,20.712-14.553
	c6.976-7.665,6.871-18.167,6.202-27.816c1.979,19.067-11.014,39.012-30.094,41.166c-6.551,0.739-13.207-3.264-19.906-5.166
	c5.122,3.663,11.561,2.847,17.22,6.674c1.445,0.978,3.846-0.033,5.729,0.505c0.495,0.142,0.715,1.152,1.052,1.82
	c-7.277,3.146-14.005,6.644-20.758,11.348c-4.379,3.053-6.59,7.739-10.127,11.753c-4.01,4.551-3.879,16.366-4.284,17.594
	c-0.167,0.506-0.194,4.51,0.231,6.619c0.938,4.668-0.312,4.437-0.146,8.909c0.017,0.428-0.699,6.449-0.692,6.773
	c0.145,8.123,3.808,19.715,13.774,19.004c-0.1,6.929-0.415,14.036,5.356,18.543c6.555,5.119,13.5,9.175,21.721,11.13
	c3.569,0.85,7.13,0.291,10.967-0.443c3.367-0.646,2.198-4.653,4.956-5.229c0.239,2.543,2.312,4.496,4.014,4.548
	c10.044,0.312,19.861,0.878,29.968,0.17c3.317-0.231,4.354-4.574,5.338-7.614c0.534-1.653,3.682-1.653,4.271-0.814
	c2.677,3.805,6.001,1.379,8.578,1.931c6.078,1.304,12.068-2.729,17.56-5.721c3.962-2.158,8.094-5.488,9.822-9.684
	c2.521-6.112,3.921-13.665,1.648-19.502c-1.926-4.947-6.655-9.312-8.741-14.496c-0.216-0.537,2.413-1.332,3.366-0.589
	c5.339,4.165,11.03,6.829,16.177,10.772c-0.335-1.669,1.101-1.998,1.956-1.806c0.479,0.106,0.707,1.137,1.044,1.806
	c0.227-2.92,3.562-1.459,4.933-2.136c1.823-0.901,1.742-3.991,2.346-4.277c9.957-4.714,19.226-10.741,23.445-20.704
	c2.647-6.248,4.221-12.794,3.3-19.886c-0.964-7.426,0.467-15.386-2.562-22c-2.155-4.707-1.954-8.002-5.13-12.116
	c-4.35-5.633-11.58-16.131-14.86-19.808l-12.904-13.685L976.463,491.548z"/>
<path fill="#D1D3D4" d="M817.256,520.681c4.168,5.644,9.315,8.361,14.244,12.819c-4.875,0.212-7.091-4.254-10.724-6.456
	c-3.955-2.396-6.98-6.101-9.888-9.846c-8.755-11.282-11.829-24.106-14.897-37.809c-1.475-6.575-2.145-13.894,0.335-19.525
	c2.517-5.72,0.034-13.263,6.174-17.364C790.427,468.302,800.345,497.788,817.256,520.681z"/>
<path fill="#D1D3D4" d="M907.51,529.422c2,0.235,3.99,0.078,5.99,0.078c-5.052,2.771-12.776,0.883-13.567-5.058
	c-1.765-13.25,0.949-26.069,3.567-38.942c0,4.001,1.094,8.497-0.547,11.722c-4.002,7.87-1.713,15.566-2.81,23.369
	C899.557,524.774,902.381,528.819,907.51,529.422z"/>
<path fill="#D1D3D4" d="M932.293,526.235c-2.08,1.628-5.047,1.562-7.793,1.265c11.198-1.047,15.549-12.529,24-18
	C944.548,516.472,938.592,521.302,932.293,526.235z"/>
<path fill="#D1D3D4" d="M921.68,548.312c4.035,3.885,6.689,8.609,10.82,12.188c-5.29-4.047-11.306-7.68-13.682-14.117
	c-1.756-4.756,0.693-11.668,6.682-11.883C919.688,537.573,916.736,543.557,921.68,548.312z"/>
<path fill="#D1D3D4" d="M906.452,545.508c0.246,1.396-0.372,3.16,2.048,2.992c-1.088-0.072-2.448,0.462-2.953-1.016
	c-1.688-4.945-0.999-8.905,2.223-12.76c0.564-0.675,2.396-0.225,3.73-0.225C907.18,536.993,905.547,540.377,906.452,545.508z"/>
<path fill="#D1D3D4" d="M963.496,573.45c-6.016,0.542-12.095,0.033-16.996-3.95c12.334,8.743,25.29,0.628,35-8
	c-0.84,1.455-2.737,1.702-3.543,3.791c-0.707,1.836-3.963,3.032-5.85,4.787C970.083,571.96,966.724,573.16,963.496,573.45z"/>
<path fill="#D1D3D4" d="M967.389,585.554c2.133,4.354,6.111,7.064,11.111,6.946c-5.557,0.822-9.889-2.096-12.644-6.237
	c-3.334-5.013-1.13-10.112,5.644-9.763C967.614,577.35,965.348,581.385,967.389,585.554z"/>
<path fill="#D1D3D4" d="M904.174,600.464c-0.992,8.899-5.478,16.95-5.674,26.036c-1.179-0.202-2.257,0.268-2.889,1.086
	c-0.334,0.434-0.111,1.248-0.111,1.914c0.386-1.001-0.946-1.339,1.779-3.306c0.662-0.479-0.089-2.475,0.375-3.633
	c0.21-0.524,1.544-0.628,1.65-1.104c0.192-0.857-0.137-2.292-1.806-1.957c6.656-8.257,3.199-18.759,5.842-28.32
	c1.437-5.194-2.331-12.181,0.158-18.68C904.768,581.804,905.218,591.105,904.174,600.464z"/>
<path fill="#D1D3D4" d="M895.031,606.621c-1.283,5.616-2.366,11.15-2.531,16.879c-2.98-5.669-0.908-11.991,0.904-16.648
	c2.158-5.549,1.127-11.029,2.626-16.479c1.513-5.496,0.438-11.355-1.53-16.871c3.234,4.86,3.323,11.385,2.719,15.826
	C896.465,594.861,896.369,600.761,895.031,606.621z"/>
<path fill="#D1D3D4" d="M621.5,530.25c8.75-3.75,15.25-8.25,23.75,0.25S665,553.25,664,563.25s-4.5,16-10,19s-17.25,7-27.25-4
	s-16.25-19.25-15.25-28s4.25-14,6.25-15.75s4.5-0.5,4.5-0.5s-2,0.75-4.25,5.25s-5,8-2.25,16s8.25,14.5,12.25,18.5s7.25,8.25,14,8.5
	s10.5,1.5,14.25-4.5s5.25-12,3.75-18.25s-4.5-14.25-9.25-19.5s-9-12.25-14.5-11.75S625,530.5,624,531.5s-4.75,5-4.75,5L616,536
	c0,0,3-3.75,4.25-4.75S621.5,530.25,621.5,530.25z"/>
<path fill="#D1D3D4" d="M562.875,523.312c15.5,0.75,16.125,0.188,21.625,1.188s9.75,6.75,11.25,11.25s4.75,15.5,12,26.75
	s18,23.5,28,29.25S649,604,648.25,607.5s-3.75,8-16.5,8.25s-37.5-2.5-48-7S546,587.25,538,577s-15-22-13.25-33.5s5-16.25,9.5-18.25
	s12.25-2,16.75-2s12.5,0,12.5,0l-0.5,2c0,0-10-0.75-17-0.25s-13.5,1-15.5,5.75s-5.75,11-4.25,17.5s3.25,17,11,25.5s13.5,14.25,20,18
	s20,11.75,27.75,15s20.25,6.25,28,7s17.25,1.5,23.5-0.25s9.25-1.5,9.75-5.5s1.5-5.5-5-10s-18.25-11.25-26-20.75s-11.5-16-15.75-25.5
	s-5.75-17.5-9.25-21.25s-10.5-4-16.25-4.25s-11-1-11-1L562.875,523.312z"/>
<path fill="#D1D3D4" d="M621.5,445c0,0-23-35.5-34-47s-22.5-21.5-32-26.5s-22-9.5-23-26s4.5-30,13-40s27-30,57-39.5s51-14,72-17.5
	s31-3,51-4s29-2,39,3s33,23,45.5,33.5s35,24.5,46,31.5s35.5,24.5,43.5,38.5s11.5,30.5,7.5,40s-12.5,24-28,22s-29.5-4.5-40.5-28
	s-21.5-46.5-35-55.5s-23-16-50.5-21.5s-59-10.5-88-1s-39.5,23-42,31.5s-2.5,22.5,4.5,30.5s12.5,16,23.5,20.5s28,11.5,28,11.5
	s-26-5.5-37.5-15.5s-24-19-24.5-31.5s-2-21,14.5-34s21.5-18.5,46.5-21.5s37-1,54.5,1.5s29.5,5,44,10s33.5,17.5,39.5,26.5
	s19,32.5,23.5,41.5s10,23.5,23.5,28s20.5,7,28,1s15-17,14-26s-4-27.5-14.5-36S867,326,851,317s-37.5-24-47.5-34s-24.5-23.5-33-28
	s-12-8-33.5-7.5s-48.5,0.5-75,6.5s-50.5,11-67,19s-31,15.5-37.5,23.5S541,315.5,539,325s-5,14-2.5,21.5s4,13,11,16s11.5,3,17.5,9
	s17,14,26,25.5s17.5,22.5,21,29S621.5,445,621.5,445z"/>
<path fill="#D1D3D4" d="M615,404.5c0,0,19.5-12,33-3.5s19,18.5,19.5,33.5s-11,39-18.5,48s-22.5,21-31,26s-11.5,5.5-11.5,5.5
	s23.5-12.5,33.5-24.5s19.5-19.5,23-41s1-26.5-4-34.5s-7.5-9.5-15-12.5s-13.5,0-16.5,0S615,404.5,615,404.5z"/>
<path fill="#D1D3D4" d="M622,512c0,0,15-6,25-20s14-21.5,22.5-31.5s22.5-19,22.5-19s-17,11-28,30.5s-18.5,28.5-23.5,31.5
	S622,512,622,512z"/>
<path fill="#D1D3D4" d="M700,438c0,0,9.5-10.5,27.5-6s23.5,8.5,34,24s30,47,37.5,73s12.5,39.5,11,86s-5.5,46-8.5,66.5s-9.5,47-14,61
	s-11,35-11,35s21-77.5,22.5-93.5s7.5-23.5,8.5-54.5s-2.5-58.5-4.5-70s-4-25-12.5-46.5s-19.5-40-27-51.5s-9.5-15-19-21s-18-8.5-24-8
	s-11.5,1.5-14,2.5S700,438,700,438z"/>
<path fill="#D1D3D4" d="M757,461c0,0-7.5-9-20.5-9.5s-26.5,4.5-30.5,12s-5.5,17-1.5,22.5s6.5,8,6.5,8s-14.5,6.5-19,15.5
	s-6.5,15-6,32.5s7.5,44,14,55s15.5,21.5,24,26.5s11,6.5,13,6.5s4.5,0,4.5,0s-3.5,2-5.5,13s-2.5,17,3,25s8,8,10,14.5s2.5,23,1,31
	s-4.5,25.5-8,46s-4.5,30-5.5,40.5s-4,39-4,54.5s-1,21-1,21s3.5-59,7-80s7-42,10.5-61.5s7-30.5,5-42s-5-17-9-23s-9-12-6-21
	s1-13,4.5-16s7.5-3.5,9.5-7s4-8.5,4.5-14.5S758,600,758,600s-1,15.5-6.5,20.5s-3,8-12,5.5s-11-2-20.5-11.5s-16.5-17-21.5-32.5
	s-10.5-34.5-8-48.5s1-16,9.5-24.5s8-10,13-11s9-0.5,9-0.5s-5-0.5-9-6s-9.5-9.5-7-18s1.5-11,8-14.5s11-6,20-5.5s13,1.5,16,3.5
	S757,461,757,461z"/>
<path fill="#D1D3D4" d="M766.5,435.5c0,0,22.5-0.5,37-8.5s16.5-8,23-16s9.5-17,9.5-17s-6,23.5-23.5,31s-19,9.5-29,10
	S766.5,435.5,766.5,435.5z"/>
<path fill="#D1D3D4" d="M706.5,418c0,0-25.5-12-20.5-36s11-25.5,28-37.5s25-14.5,36.5-18s28.5-6,28.5-6s-33.5,7.5-51.5,18
	s-28,18-33,26.5s-6.5,14.5-6.5,22.5s0,10.5,5.5,17S706.5,418,706.5,418z"/>
<path fill="#D1D3D4" d="M697,370c0,0,21.5-17,38.5-24.5s17.5-10,35-12s23,0,28,1.5s9,3.5,9,3.5s-10.5-6-29-3.5s-26.5,4-37,10
	s-15.5,7.5-24,13S697,370,697,370z"/>
<path fill="#D1D3D4" d="M793,214c0,0-12,1.5-22-3s-14-3.5-15.5-9s-2-8.5,0-14.5s1.5-15-0.5-23s-3.5-7-2.5-14.5s0.5-14.5,0.5-14.5
	s-5,17.5-2.5,25s4.5,10,3.5,18s0.5,12-3.5,15.5s-7,5-14.5,4.5s-11.5,2-18-0.5s-12.5-3.5-15-6.5s-4.5-2-4.5-9s3.5-15,1-27.5
	s-9-20.5-10-29s-3.5-16.5-3.5-16.5s2.5,21,6.5,30.5s5.5,14.5,5,24.5s0,16-0.5,21.5s0.5,8-3,12.5s-14,10-23,10s-19.5,0.5-31.5,0
	s-30,5-38,8.5s-16,10.5-16,2.5s3-17-1.5-25.5s-13-16.5-13-16.5s2-1.5,4-6s2-15.5,1.5-22.5s-3-8-0.5-15s3.5-11.5,3.5-11.5s-5,6-5,17
	s0.5,17.5-1,23.5s-0.5,9.5-4,10.5s-6.5,2-11-2.5s-9.5-7.5-10.5-9s-5-5.5-5-5.5s4,10,9.5,13.5s9,4,15,8.5s11,8.5,13,16.5
	s3.5,7.5,3,15s1,12-4.5,17s-7.5,12-15,15s-14,6-24.5,11.5s-15,11.5-22,12.5s-10.5,3.5-15-3.5s-6-7.5-13-13s-8,0-12-8
	s-5-8.5-4.5-17.5s-1.5-12,1.5-20.5s4-11,5.5-15.5s4-10,4-10s-9,15-11,23.5s-1,13.5-2,21.5s0.5,13-5.5,15.5S457,243,447,241
	s-8.5-2-16-5s-16.5-1.5-16.5-1.5s8,0.5,17.5,3.5s10.5,6.5,18.5,5.5s8-1.5,15-1.5s6-0.5,12.5,3s4.5,1,12,7.5s8,4.5,11.5,13
	s6,1,4,13.5s0,16-6.5,23.5s-5,11-13.5,16s-8.5,8.5-18.5,8s-14-0.5-21-4.5s-10-6.5-12-12.5s-2.5-10-2.5-12.5s1-9,1-9s-4,12-1,19.5
	s3,10,9.5,14s8,5,14,7s7,0.5,11,6s5.5,9.5,6,17.5s1.5,14,5.5,21.5s7.5,13,14.5,17.5s7,4,15,7s7.5,1.5,12,5.5s5.5,7.5,13.5,15.5
	s13.5,12.5,20.5,18s11,8.5,20,10.5s13.5,1.5,18,0.5s10-4,10-4l4.5-6c0,0-0.5,7.5-10,8s-7.5,5-19,0.5s-11.5-1.5-23-11.5
	s-15-12.5-19.5-19.5s-8-7.5-8.5-14s-2-8.5-0.5-13s3.5-10.5,3.5-10.5s-1,11.5-8,14.5s-11.5,4.5-18.5,1s-7.5-2-13.5-8.5
	s-9.5-11-11.5-20s-3.5-16-2-24s0-10,5-14s10-7,15-13.5s10-15,12.5-22s1-12.5,8-18.5s9-7,15-11s4.5-2.5,19.5-9.5s19.5-8.5,27-15
	s6-9.5,22.5-16.5s20-8.5,29-9.5s15,0,27,0s15.5,0,23.5-2.5s12-4.5,18-7s9-3,15-2.5s13,1,19.5,1s10-0.5,16.5,1.5s7,4.5,12,6.5
	s5.5,3.5,11.5,4.5S793,214,793,214z"/>
<g>
	<path fill="#D1D3D4" d="M284,794.75c0,0-1-2.5-3.75-5.75s-3-5-5.25-2s-8.25,13.25-8.5,22.75s-1.75,18.75,0.25,22.75
		s2.25,9.5,4.5,9.75s4,0,6.5-2.5s6-7.25,6-7.25s-6.25,6.25-8.75,6.75s-3,1.5-4.75-5s-2-14.75-1-22.25s3-17.5,5-20.25
		s5.25-4.5,6.5-1.25S284,794.75,284,794.75z"/>
</g>
<path fill="#D1D3D4" d="M282,805.25c2.043-9.398,5.25-20.5,7-24.75s2.75-6.5,6.25-6s5,7.25,5.5,9.75s2,5.75,2,5.75
	s-3.5-7.75-4.75-10.25s-2.5-4-4.25-3.25s-3.25,5-5,11.75s-3.75,13.75-4,23s0.25,17.75,2,20.75s5,5.25,8.25,1.75s4.25-5.5,4.25-5.5
	s-2,9-6,9.5s-10.5-1.75-11.25-15S280.75,811,282,805.25z"/>
<path fill="#D1D3D4" d="M320.5,796c0,0-1.5-9.5-3.25-13s-4.75-8-8.25,2.25s-7.5,17.5-8.25,25s-1.25,16.25,1.75,20.25s6,5.5,9.25,2.5
	s8.5-8.25,8.5-8.25s-5,6.25-9,6.75s-8.25,1.5-9-4.75s-1.5-10.5,0.5-18.5s4.25-15,6.25-19.5s4-12,6.5-6S320.5,796,320.5,796z"/>
<path fill="#D1D3D4" d="M344,798.75c-1.5-1-1.75-0.25-4-4.75s-2-6.25-5-8s-6-3.75-8,1.25s-4.75,9.5-5.25,16.5s-1.5,13-0.25,17
	s3.5,7.75,6,9s5,2.25,8.5-1.75s6-6.75,6.5-7.5s2-2.5,2-2.5s-4,4.75-7.75,7.25s-4.5,7-8.25,2.75s-5.75-4.25-5.25-14.25
	s0.5-13.75,1.75-17.5s1-7.25,3.5-9.25s4.25-2.25,6,0s2.25,3.5,3.75,6.5s1.5,4.75,3,5.25S344,798.75,344,798.75z"/>
<path fill="#D1D3D4" d="M377.5,782.75c-3.75,1.75-5,2.75-10.25,2.5s-8.25-2.25-13,0.5s-6.75,3-8.5,8s-3.5,10.5-2.25,17
	s-1.25,8.75,3.25,12.25s8.25,5.25,12,3s4.75-3,7.25-5.75s-2.25,0.25,2.75,1s3,3,8.5,2.5s9.5-1.25,11.25-3.5s3.5-3.5,3.5-6.5
	s-2-8.25-2.5-12.25s1.75-5.25-0.25-6.75s-2.25-1.5-6.75-3s-7.5-2.5-9.5-2.5s-6.25-1.5-6.25-1.5s2.5,2.75,6.75,3.5
	s5.5,0.75,9.25,2.25s4.25-1.25,4.75,3.5s2.75,6.75,2.5,11.75s1,6.25-0.25,8.25s-3.75,4.25-7.5,4.5s-5.25-1-7.5-1.75
	s-6.5-1.25-6.5-1.25s0.25-2,2.25-3s6.25-2.5,6.25-2.5s-6.5,0.5-9,2.75s-5.5,6-9,7.25s-6.5,2.5-8.75-0.5s-2.75-3.5-3.5-8.5
	s-0.75-9.25,0-14s0.25-7,3-9.5s3.75-3.25,7.25-3.75s4.75-1,9-0.75s5.75,0.25,7.75-0.75S377.5,782.75,377.5,782.75z"/>
<path fill="#D1D3D4" d="M477.25,775.75c-5.25-0.5-4.75,0.25-8.75,1s-6,3.5-10.25,2.25s-3.75-2-8.75-2.5s-8.75,0.75-11.25,2s-3,1-6,2
	s-3.5,3-8.25,2s-4.5-1.75-9-3.75s-8.25-2.75-14.25-0.75s-7.75,5.25-9,7.75s-3.75,7.75-3.5,10.25s0.25,14.75,6.25,19s7.5,5.5,10.75,4
	s5-3.75,6.75-4.25s2.75-1,5.5,0s1.75,2.5,6.5,1.75s7.5-0.5,9.75-2.5s1-5.5,4.25-4.75s3.5,3,6.5,3.25s5.5,0.75,8.75-1.75s1-4,6.5-3
	s7.25,2.5,10.75,0.75s4.75-3,7.5-6.5s4-5,4.5-8.75s1.5-6,0.25-8.75s-2-4.75-3-6s-3.5-1.75-3.5-1.75s1.5,1.5,2.75,4.5s2.5,5,1,10
	s-0.25,7-2.75,9.75s-4.25,5.5-7,5.75s-3.5,0.5-6.25-0.25s-5.5-1.5-5.5-1.5s1,0,1.5-2.75s0.5-6.5,0.5-6.5s-0.25,2.25-1.75,5.5
	s-3.25,6.25-6.5,7.25s-5.75,2.5-7.75,1s-4.25-1.75-5-2.5s0.5-4.75,0.75-8s0.5-4.5-0.25-7.75s-1.25-5.5-2-6.25s-3.75-2.5-3.75-2.5
	s-0.75,1,0,1.5s2.75,1.75,3.25,5s1.25,8.25,1,11.5s-0.5,5.25-0.5,5.25s-1.25-0.75-2,1.5s-0.25,4.25-2.5,5.5s-5.25,3-8.25,2
	s-4-1-6-1.25s-6,1.5-4.75-1.25s1.75-2.5,2.75-5.25s1.5-7.75,1.5-7.75s0.75,5.25-1.5,7.75s-4.5,3.75-6.25,6s-3.75,5-6,4.75
	s-2.25,0.75-5.75-2s-5.25-3-6.75-7s-3-9.5-2.25-13.5s0.75-7.5,3.5-11s3.5-5.25,8.25-5.5s7.25-1.5,11.75,1.25s4.5,5,9,4.75
	s6.5,0.25,10-0.75s3-2.25,7-4s4-2.5,8.75-2s7.25,1.75,9.5,2.25s3.25,0.5,6-0.5s3-2,6.75-2.75S477.25,775.75,477.25,775.75z"/>
<path fill="#D1D3D4" d="M267.25,840.5c0,0,1.25,17.5,4,23.5s3.5,9.75,5.75,11.5s4,2.25,5.5,1.5s-1.5,1-4.5-4.25s-5-4-6.75-14.25
	S267.25,840.5,267.25,840.5z"/>
<path fill="#D1D3D4" d="M276.25,843c0,0,1.5,11.25,3.75,17.5s4.5,9.75,6.5,11.75s2,3,4.75,2.5s2.5-2,3.75-3s1.75-1,4-1.25
	s3.25-1,5.25-2.75s3.5-3.5,3.5-3.5s1,2.75,3.25,4.25s2.75,2.5,5,2s3.75-1,4.25-2.5s1-6.5,1-6.5s0.25,3.75-2.75,5
	s-4.25,2.25-6.75-1.25s-2.25-2.5-5.5-9.25s-2.25-10.25-3.5-13.75s-2.25-10.75-2.25-10.75s-0.5,9.5,1,16.25s2.25,7.5,3,11
	s2.5,4.25,0,6.5s-4,4.25-6,2.75s-3.25-1.5-5-6.75s-4.25-10-5.75-13.25s-3.5-8-3.5-9s-1-3-1-3s1.25,7,3.75,12.75s2.5,8,4.25,11.5
	S294,865,294,867.5s-0.5,3.75-2.5,4.25s-4.75,0.25-6.75-4.25s-3.5-5.5-5.25-12S276.25,843,276.25,843z"/>
<path fill="#D1D3D4" d="M313.75,832.5c0,0-2,9.25,2,17s5,10.25,8.25,13.5s4,5.5,7.5,4.75s5-0.25,7-5s3.5-7.25,3.5-7.25
	s1.75-4.75,0.75-3.75s-3.25,6-5.75,9.25s-3.75,6.5-6.5,4.25s-5-2-9-9.5s-5.5-7-6-13.5S313.75,832.5,313.75,832.5z"/>
<path fill="#D1D3D4" d="M336.75,831.25c0,0-0.5,10,3.5,15.5s4,7.25,7.75,9.25s5.5,2.75,8.25,1.25s4-2.25,6.25-3.25s2-1,5.75-0.75
	s9.5,0,12.25-2S386,846,386,846l1.5-2.5c0,0,1.25,3.75,4.5,3.5s3.25-1.5,8-1s5,3,11.5,2.75s10.25-2.25,12.75-5.25
	s6.25-7.25,6.25-7.25s3.75,1,12,0.5s10.5-2.5,16.25-5s8.5-4,10.5-6.5s4.25-8,4.25-8s0.75-7.75,0.5-7s-1,9.25-4,12s-4.25,3-7.25,5
	s-7,3.75-7,3.75s0.5-1,2.25-3.5s5.5-5,5.5-5s-4.5,2.25-7.75,5.5s-4.25,5.25-7.5,5.75s-7.25,1.5-10.25,1s-6.75,0.75-7.75-0.75
	s0.25-1.75,0.25-5.75s0-5.75-1.25-7.5s-5-5.5-5-5.5s2.25,2.25,2.5,6.5s2.5,7.25,0.75,11.75s-2.5,8-6.25,10.25s-5.5,4.25-8.5,3.25
	s-5.5-2-8.25-2.75s-7-1-9.25-0.75s-5.5,2-5.75-1.5s0.5-6.25-1-10s-3.25-6.75-3.25-6.75l-2-1.75c0,0,2,4.75,3,7.75S388,838,386,841.5
	s-3.25,5.5-5.75,7.25s-5.5,3.75-8,3.5s-5.25,1-6-0.5s-0.25-1.5,0.25-4.25s0.5-4.25,1-5s2.25-3.5,2.25-3.5s-4.25,5-5.75,8.75
	s-1,4.25-3.5,5.75s-2.25,4-6.25,2.75s-5.75-1.5-8.25-5s-3.5-3.25-5-7.75s-3-7.5-3-7.5L336.75,831.25z"/>
<path fill="#D1D3D4" d="M476,669.5c0,0-1,11.25,0.5,21s6.25,31.5,8.5,42.25s4.75,19.75,4.25,36.25s-3.75,28-8,39.75
	s-9,21.25-15.25,31.75S435.5,883,435.5,883s26.5-38,33.5-50.75s16.25-33.75,17.5-46.5s2.25-29.75-1.25-44.75s-8.5-38.25-9.75-45.5
	s-2.25-11.25-1.5-17S476,669.5,476,669.5z"/>
<path fill="#D1D3D4" d="M287.954,897.82c0.802,1.369,2.074,4.658-0.454,6.68c1.594-9.783-10.272-11.22-13-19
	C278.69,890.06,284.904,892.613,287.954,897.82z"/>
<path fill="#D1D3D4" d="M300.413,895.541c0.262,0.549,0.087,1.293,0.087,1.959c-2.033-4.73-5.188-8.71-10-11
	C294.849,888.375,298.351,891.219,300.413,895.541z"/>
<path fill="#D1D3D4" d="M320.392,889.521c0.324,1.666,0.108,3.312,0.108,4.979c1.332-8.676-8.103-10.096-12-16
	C313.492,881.302,319.155,883.154,320.392,889.521z"/>
<path fill="#D1D3D4" d="M332,877"/>
<path fill="#D1D3D4" d="M349.348,878.592c0.457,0.758,0.152,1.907,0.152,2.908c0.13-4.613-3.401-7.023-6-10
	C348.257,871.473,347.734,875.91,349.348,878.592z"/>
<path fill="#D1D3D4" d="M352.606,945.691c1.146-0.636,3.093-0.449,3.715,0.892c2.734,5.899-2.349,8.652-5.821,11.917
	c0.676-3.906,7.73-8.566,3.653-9.521c-8.417-1.973-10.966,12.391-15.653,19.521C341.562,960.461,343.993,950.468,352.606,945.691z"
	/>
<path fill="#D1D3D4" d="M211,705.75c0,0-14.171-6.364-18.5-9.25c-4.5-3-6.5-6-7-7s-4.75-7.75,8.5-3.5s15.5,8.5,24.75,10.25
	s17,4.25,22,5.25s8,2,7.5,4.5s-4.5,3.75-7.25,3.5s-17-1.25-17-1.25s14.5,4.25,19.5,3.5s7.75-1.25,8.25-5s-2.75-6.75-9-8.25
	s-17.5-4-24.5-7.5s-14.75-9-21.5-11.25s-12.25-3.5-15-0.25s-2.25,11,1.75,14.5s8,5.5,13.5,7.25S211,705.75,211,705.75z"/>
<path fill="#D1D3D4" d="M600.5,1132c0,0-3,5.5-8.25,12.5s-9,12-14,15s-13.75,7.5-15.5,15.5s-1.25,13.25,3,17.75
	s13.25,8.75,17.5,15.25s12.75,24.25,17.25,34.75s4,11.5,9.25,23.75s6.25,14.25,8.75,21.25s7.5,18,7.5,18s-16.75-47.5-21.75-59.25
	s-6.75-17.25-11.5-25.5s-7.25-13.5-10.75-17s-11.25-8.25-14-11.5s-5.25-11.75-2.75-16.75s2-7,9.25-11.25s12-6.75,16.5-13.75
	s8.5-11.75,9.75-14.25s2.5-6.25,2.5-6.25L600.5,1132z"/>
<path fill="#D1D3D4" d="M674.75,1120.5c0,0,3.75,45.75,7.5,63.5s8.25,30.75,13,45.25s12.25,44.5,16.25,54.25s7.5,19.25,7.5,19.25
	s-14.75-39.25-19.25-54.25s-8-24.75-13-42s-8.75-33.75-9.5-46.5S674.75,1120.5,674.75,1120.5z"/>
<path fill="#D1D3D4" d="M781.25,1179.5c0,0,0.5,2-0.25,5.5s-5.75,7.75-5.75,7.75s6-2.75,6.75-6.75S781.25,1179.5,781.25,1179.5z"/>
<path fill="#D1D3D4" d="M741.5,1079.75c0,0-1.25-4.5,5.25-5.25s17,2,22.5-0.5s11.75-8.75,10.75-16.5s1.25-7.5-0.5-10.25
	s-4.25-4.75-4.25-4.75s6,3.75,5.75,7.75s1.75,9.5-0.75,13.75s-4,8.75-8.5,10.25s-13,1.25-18,1s-8-1-10,1
	S741.5,1079.75,741.5,1079.75z"/>
<path fill="#D1D3D4" d="M793,984c0,0,4.75,12,12,14.25s10.5,2.75,16.25,2.5s12,2.5,22.5,5.75s21.75,7.5,26.25,10.25s7,4,7.75,5.75
	s2,3,2,3s6,2.75,11.75,6s14.25,8,17.75,10.25s7.5,6.75,8.75,10.25s0.5,4.25,0.75,6.75s1.75,5.5,0.75,7s-1.75,2.5-2.75,2.5
	s-2,0.25-2,0.25s0.25,2.25-3.75,2s-9-0.25-14.75-3s-7-3.5-13.25-6.25s-11.5-4.5-20.5-5s-14-0.25-18-0.25s-11.25,1.25-11.25,1.25
	s11.75-3,21.75-2.5s18,1.25,23,3.25s11.75,5,16.5,6.75s7.5,3.75,12,4s5.75,1,6.5-0.25s1.25-2.5-0.5-4s-1.75-2.25-4.75-3.5
	s-6.75-2.25-6.75-2.25s6.5,0.5,9,2.5s3.5,3.5,4.5,4.25s2.5,3.5,3,0.5s0-4-0.5-6.75s2-3.75-1.75-8.25s-1-3.75-5.25-6.25
	s-8.75-5.5-12.5-7.5s-8.25-4-10.25-5.25s-3.25-2.75-4.25-2.25s-0.25,1.75,0.25,3.5s0.5,2.75,1.5,4.25s2.5,3,2.5,3
	s-4.5-4.25-5.75-7.75s-1.75-6.5-6-9.75s-3.75-3.25-10.5-5.75s-10.75-5-19.75-7.75s-12.25-5-17.25-6s-8.25-0.75-12.25-0.75
	s-4,0.75-10.75-3.5s-6.75-3.25-8.5-6.5S793,984,793,984z"/>
<path fill="#D1D3D4" d="M800.5,973.75c0,0,5.5,6.75,8.25,11s1.25,8.75,7.5,8.75s7.5-3.25,12.75-2.75s11.25,2.25,15.75,4.5
	s9.25,3.25,14.25,6s5.25,4.5,8.75,4s6-0.5,6.5-2.5s0.75-2.5-0.75-4.5s-5.5-4.5-7-6s-3-2.75-4.25-4.75s3.25,2.25,5.75,4.75
	s3.5,3.75,5.5,5.25s2.5,2,4,3s3.25,2.5,6,3.75s4.5,3,5.75,1s3-2.75,1.75-7.5s-2.25-7.25-5.5-11.75s-3.5-7-11.75-10.75
	s-12.5-4.5-19-7.75S844,960,839.5,956.75s-6.25-4.25-11-5.75s-8.5-0.25-12.5-2.25s-8.5-7.5-11.75-11S796,931.5,791.5,927.5
	s-7.25-5.25-9.75-6s-4,0.5-5.5-0.75s-2-2-4.25-3.25s-7.25-2-7.25-2s6.5,1.25,9.5,2.5s3.5,1.25,6.75,2.25s3.5,0.5,8.75,4.5
	s8.5,5.25,12,8.25s6,5.25,9.25,8.5s2,5,8.75,6s8.5-0.25,13.75,3.5s10.25,6.75,14.25,10s10,6.5,15,8.25s7.25,2.75,10.5,4.25
	s10,5,12.5,9.5s6.75,11.25,7.25,14.5s0.5,9.25-2.25,9.75s-7-0.5-9.25-2s-3.75-3-5.25-2s-0.75,3-4,3.5s-7,0.25-10.5-1.5
	s-6.25-4-12.75-6.5s-9.25-3.25-15-4.75s-11,0-14,1s-5.25,1.25-7.25-0.75s-5-9.5-7.25-12.5S800.5,973.75,800.5,973.75z"/>
<path fill="#D1D3D4" d="M791.5,840.75c0,0,6.25,8,20.75,9.5s23,0.25,33,0.5s16,1,21.25,4.75s11.5,10.25,15.25,14.75s4.25,7.75,9,6.5
	s5-7.75,3.75-14.25s-6.75-18-10.5-25.75S879.5,819,873,813s-11.75-8.75-17-9.75s-8-1.5-14.75-5.75s-18-9.25-26-9s-17.25,0.75-21,0.5
	S776,789,776,789s10.5,2.25,21,2s15.5-1,21.5,0.5s11.75,3.25,17.25,6s8.75,4.75,15.25,6.5s10.25,2.5,14.25,5.25s7.5,4,9.75,10.5
	s5,15.25,7.75,20.75s6.75,11.25,8.75,17s2.25,10.75,1.25,13.5s-1.5,5-4,3.5s-8.5-9-10.5-11.75s-4.75-4.25-7.75-6.5s-4.5-6-15-7.5
	s-22.25-0.5-30,0s-15,0.75-19.5-1s-6.75-3-9-4.25S791.5,840.75,791.5,840.75z"/>
<path fill="#D1D3D4" d="M777.5,762.25c0,0,9.25,2.75,21,3.25s17-1,23.75,0.5s10.5,2.25,15.5,5.25s6.5,3.75,10,6s4.25,3.5,7.75,2.25
	s6.5-3.25,6-6.5s-2-10-2-13.5s1.75-7.25-3.25-10.25s-13-6.25-17-9.5s-8.5-7.5-13.5-9.25s-12-1.5-15.25-2s-8-1.25-9.75-2
	s-5-1.75-5-1.75s7.75,4.5,16.75,5.5s10,0,14.25,3.25s6.75,4.5,13,8.5s12,6.75,14.5,9.75s3.25,6,3,9.25s1.25,8.25,1,11.25
	s-0.75,5.75-3.5,5.5s-5.5-1.5-10.25-5s-7.5-5.25-15.25-7s-12-1.75-19.5-1.25s-9.5,0.25-16.75-0.5S777.5,762.25,777.5,762.25z"/>
<path fill="#D1D3D4" d="M845,659c0,0-26,29-37,60s-14,40-19,58s-7,31-10,52s-5.25,54.25-4,73s0-26.5,3-49s2.5-38,8.5-59.5
	s9.5-38,15.5-53.5s6.5-23.5,16.5-41s11-19.5,15.5-25S845,659,845,659z"/>
<path fill="#D1D3D4" d="M829,597.5c0,0-10.5,32.5-13.5,44.5s-7.5,28-10,36s-5.5,19.5-5.5,19.5s12.5-42.5,17.5-59.5
	S829,597.5,829,597.5z"/>
<path fill="#D1D3D4" d="M715,666.5c0,0,6,9,8.5,24s7.5,50,6.5,65s-1,31-2.5,49s-2,31.5-2.5,47s-1,25,0,40s3,24.5,3.5,36.5
	s5,50.5,5,50.5s-5-49.5-6-74s-1-24.5-0.5-47.5s3-39.5,3.5-62s2.5-23,1.5-48.5s-2.5-45-5.5-61s-6.75-31-6.75-31s-1.25,4.5-1.75,7
	S715,666.5,715,666.5z"/>
<path fill="#D1D3D4" d="M700,769c0,0,11.75,3,21.5,1.5s18.5-5,18.5-5s-11.25,6-17.75,6.25s-16.25-0.5-17.75-1s-5.25-2-5.25-2"/>
<path fill="#D1D3D4" d="M722.25,799c0,0-7.5-0.25-14.25,1.75s-10.25,3-9.75,8.25s1,7.5,7.75,9s14.25,1.25,17.25,0.75
	s9.5-1.75,16.25-1s10.5,2.75,13.5,4.5s4.25,3,8.75,4.5s12.75,2.75,12.75,2.75s-9.5-3.25-16-6.25s-9.75-6.5-14.75-7.5
	S730.5,816,724,816.5s-10.75,2-15.25-0.25s-6.5-0.75-7.25-4.5s-1.5-4.75,1.5-6.5s2.75-2.5,7.75-3.75s8-1.5,8-1.5L722.25,799z"/>
<path fill="#D1D3D4" d="M701.25,887.75c0,0,6.25,14,12.75,17.75s11,6,18.75,6.5s12.5,1,12.5,1s-19.25,1-25.5-2s-11-6.25-13.75-11.25
	S701.25,887.75,701.25,887.75z"/>
<path fill="#D1D3D4" d="M825.5,1115.75c0,0-5.5-4-9.75-3.75s-7.75,1.75-6,8.25s2,8.75,5,14.75s4.25,6,5.25,10.5
	s1.75,11.75,1.75,11.75s0.5-9.5-1.75-14.75s-5.25-7.75-7-13.25s-3.75-9.5-2.5-12.25s1.75-4,4-4s3.75-0.75,7.25,1.5s4.5,3,6,4
	s2.5,0.75,2.5,0.75"/>
<path fill="#D1D3D4" d="M785,1257.25c0,0,0,4.75,3.75,8.5s3.75,5,7.5,4s5.25-0.75,6.25-4.75s0.25-5.5,2.5-8.5s3-3.75,4.5-5.25
	s4.75-5.5,4.75-5.5s-4.25,3.75-7.5,7.25s-4,4.5-5,8.75s-1.25,6.75-4.25,6.75s-3.5,0.75-5.5-0.75s-3.25-2.25-4-4.5
	s-2.25-4.25-2.25-4.25L785,1257.25z"/>
<path fill="#D1D3D4" d="M809.5,1263.5c0,0,0.25,5.75-2.5,9.25s-7.5,7.75-9.75,11.25s-4,5.25-2.5,9s1.75,5.25,4.5,7.75
	s3.75,3.5,6.75,4.25s4,0.5,6.5,1.25s5.75,2.25,5.75,2.25l1.25,1.5c0,0-0.25-2.5-5.5-4.5s-7.25-1-9.75-2.75s-3.75-1.75-5.5-4.75
	s-2.5-4.5-2.25-7s0.75-4,2.25-6.25s5-5.25,5-5.25l1-0.75c0,0,2,0.25,3.25-3.75s1.75-4.25,1.5-6.25S809.5,1263.5,809.5,1263.5z"/>
<path fill="#D1D3D4" d="M972.5,721.5c0,0-14.5,33-22,55.5s-11.5,35-15,54S925,893.5,925,893.5s11-65.5,17.5-86s11.5-36,16-48.5
	S972.5,721.5,972.5,721.5z"/>
<path fill="#D1D3D4" d="M609,516.5c0,0-15,6-39,0.5s-32-9-60.5-24.5S472.5,468,454,465s-21.5-3-34-7s-34-23.5-44.5-35.5
	s-12-15-19-29s-14-31-12.5-54s6.5-46,12.5-60.5s13.5-35.5,25-53s28.5-41.5,59-61.5s48.5-34,89.5-46.5s59.5-13,73.5-14.5s60-7,87-6.5
	s72.5,9,93,12s67,16.5,80,20.5s29.5,11.5,44,18.5s24,15.5,32,20.5s25.5,13,41,27s18.5,18.5,29,29s21.5,23,33,40S1061,297,1068,310
	s16,29,22,46.5s12,34.5,16,57s6,49.5,1.5,67.5s-12.5,36-19,44.5s-16,16.5-24.5,18s-21.5,0.5-21.5,0.5s15.5,2,26.5-4.5
	s24-16.5,30.5-38s9-25,8.5-44.5s-2-31.5-4-42s-5-17.5-8.5-23s-3.5-7.5-8.5-5s-7.5,5.5-11,7.5s-10,2-10.5,6.5s1,7,2,12.5
	s0.5,11-0.5,13s-3.5,5.5-3.5,5.5s4.5-10,2-17.5s-2-9-6-13s-6.5-6-10-8s-8.5-4.5-8.5-4.5l-10.5-3c0,0,12.5,3.5,18.5,5.5
	s9.5,4,14.5,3.5s11,0,16.5-5.5s8.5-7,9-12s0.5-12.5-2-18.5s-7-19.5-12-26s-5.5-9.5-9.5-11.5s-6.5-1.5-9,1.5s-5.5,6-7,8s-7,8-12,10.5
	s-21.5,13-26.5,14s24-11,31-18.5s11-12.5,13.5-21s3-14-1-24s-12-22-20-34s-16-19-20.5-22s-8.5-5-10.5-3.5s-5.5,5-6,6.5
	s-0.5,10-3,15.5s-6,14-11,17.5s-14.5,9-22.5,12s-10,9-17.5,13.5s-11.5,15-23,17s-17.5,1.5-20.5-4s-5.5-9.5-2-15s9.5-12.5,14-18
	s-8,10-10,15.5s-4.5,13.5,0,16.5s10.5,5.5,19,1.5s14-7.5,19.5-14s4.5-7,14.5-12.5s21-8.5,26.5-14.5s10.5-14.5,13-25.5s5.5-11,3.5-20
	s-5.5-14-15-22.5s-15.5-12.5-23-18s-13-8-18-10s-7-3.5-8.5,1s-0.5-3-9-11s-10-10.5-15.5-11.5s-8-3-9.5,4.5s1,8-1,17.5
	S895,190,891,196s6.5-9,5.5-23s2-20.5-6.5-27.5s-14.5-11.5-21-10s-10-0.5-9,4.5s3.5,7,4.5,14.5s2,16.5,0,25.5s-6.5,13.5-7.5,20
	s-1.5,10.5,0.5,18s5,15,5,15s-6.5-15-8-18.5s-2-6.5-2-6.5s-2.5,2-5,10.5S843,226,842,235s-2,17.5-2,17.5s1.5-21.5,6.5-35.5
	s10.5-19.5,13.5-29s4.5-13,2.5-26s-3-20-8-26.5s-7.5-9-18.5-12s-16-5-26-6.5s-14.5-1-18.5-1.5s-3.5,2-1,6s4,5,5.5,9.5
	s2.5,10.5,2.5,10.5s1.5-9-12.5-20s-24.5-13.5-40-16s-25-4.5-33.5-4s-14.5,0.5-18.5,2s-6,2.5-6.5,5.5s0,8,0,8s-0.5-4.5-5.5-9.5
	s2.5-6.5-10-6.5s-12.5-0.5-26.5,1s-20,2-24.5,5s-8.5,2-10,6.5s-1,7.5,1,13.5s1,8.5,4.5,13s1,5.5,7.5,7s7.5,3,13.5,1.5s13-3.5,13-3.5
	s-10.5,5.5-19,5s-8-1-12.5-2s-4.5-0.5-5.5,4.5S611,162,613,170s1.5,10.5,5,15s7,8.5,7,8.5s-14.5-9.5-15-25s3-17,1.5-27.5
	s-2.5-14-5-20s-4.5-10.5-12-11.5s-19.5,1-28,3.5s-22.5,4-27.5,8s-9,3.5-13,12s-8,13-12.5,17.5s-7.5,10-6.5,17s3.5,14,11.5,20.5
	s8,9,9,15.5s0,10.5,3.5,17.5s5.5,11,9,13s8.5,4,8.5,4s-16.5-3.5-19.5-14s-3-16.5-4.5-22s-3.5-7.5-8.5-12.5s-11.5-6.5-11.5-15
	s-1-17.5,3-22s8-7.5,10.5-12s5-8-2-9s-9-2-20.5,4.5s-38,18.5-49,27.5s-36.5,26-43,36s-15.5,19-19,28s-4,12-2,18.5s5,9.5,9.5,13
	s10.5,4.5,14,6.5s8.5,6.5,8.5,6.5s-12-3.5-19-8.5s-9.5-7-12.5-10.5s-4.5-10.5-9-2s-9.5,16.5-10.5,21.5S357,280,362,286
	c0,0,4.5,7.5,12.5,10.5s13,2.5,18,7.5s8,9,13,15.5s5.5,8.5,9,12s6,6,6,6l-9-6.5c0,0,0,4-0.5,9.5s-0.5,6.5,1,10s0.5-10-3-18
	s-2.5-10-10-18s-7-8.5-14.5-11.5s-9-1.5-14.5-6s-8-8.5-11-5s-7.5,13-8.5,22s-3.5,14-1.5,22s2.5,9.5,6,14s8.5,9.5,8.5,9.5
	s-8-10-10-3.5s-3.5,15.5,1,25.5s8,22,18.5,34s19,23,30.5,30.5s21.5,12,37.5,15s28,5.5,35,9.5s22,12.5,31,17.5s26,15,42,20
	s24,8.5,37.5,9S609,516.5,609,516.5z"/>
<path fill="#D1D3D4" d="M599,465c0,0-9.5,11.5-23,10.5s-21,0-39.5-12.5s-32.5-22-45-29s-30.5-12.5-40-17.5S439,409,433,401
	s-11.5-13-14.5-18.5s-4.5-12.5-5-19s-1.5-11-1.5-11s2,10-1.5,14s-3.5,6.5-8,5.5s-12-2.5-12-2.5s13.5,1.5,18,5.5s4.5,4.5,10.5,12.5
	s10,12,13.5,16.5s7,9,7,9s-3.5,1.5-10,2.5s-12,1.5-14.5,1.5s-11.5,1.5-11.5,1.5s22.5-1,32.5-0.5s13,2,21,4s9.5,3,19,7.5
	s18.5,9,29,16.5s17,12.5,29,19.5s16,9.5,25,11.5s11.5,4,18,2s12-2,14-4S599,465,599,465z"/>
<path fill="#D1D3D4" d="M808.5,161c0,0,0.5,34.5-1,44.5S804,220,805,231s-1,16,8,23.5s11,9,18.5,13s12.5,8.5,18,9s7.5,1,12-0.5
	s11-5,11-5s-5,4.5-2,11s6,9.5,10.5,12s9.5,3,12,2.5s9-3.5,9-3.5s-7,4-13,1.5s-11.5-4-13-8.5s-4-3.5-1-10.5s9.5-16,15-23
	s22.5-25.5,29.5-34.5s10.5-18.5,12-23s1.5-26,1.5-26s0,7.5-1.5,16s-1.5,18-8,25s-19,21.5-25.5,29s-11,17.5-17,22s-12,11-18,11.5
	s-13,1.5-20.5-2.5s-15-8-22-13s-11.5-6.5-13-14s-1.5-16.5-0.5-25.5s4.5-21,4-33S808.5,161,808.5,161z"/>
<path fill="#D1D3D4" d="M927.5,228.5c0,0,0.5,13-1.5,21s-4,14-7.5,19s-14,18.5-14,18.5s11-14,19-20.5s11-7,18-9.5s9.5-4.5,15-7.5
	s7-5,11.5-9s8-9,8-9s-8,10-15,14s-14.5,8-19,10s-10,6-13,4s-1-2.5-0.5-9.5s0-13.5,0-13.5L927.5,228.5z"/>
<path fill="#D1D3D4" d="M918.5,313.5c0,0,11,4,16,11s6,9,10,18s5,11,5.5,18s1,18.5,1,18.5s0.5-29-7-42.5s-12-16.5-16-19
	S918.5,313.5,918.5,313.5z"/>
<path fill="#D1D3D4" d="M968.5,308c0,0-10,24-12.5,34s-5.5,25.5,5.5,36s22,0,25.5-2s15-11.5,18-20.5s-0.5-30.5,0-39s2.5-16.5,6-21.5
	s4.5-7,9.5-9.5s12-6.5,12-6.5s-19,7.5-23.5,15.5s-4.5,11-5,19s1,14.5,0.5,24.5s1,15.5-4,22s-8.5,12-16.5,16.5s-20,6-23-3
	s-6.5-7-5-20s4.5-22,7-27.5S968.5,308,968.5,308z"/>
<path fill="#D1D3D4" d="M929,395c0,0,12.5,10.5,29.5,11s26.5,0,35,1.5s14.5,5.5,16.5,8s4.5,5.5,4.5,5.5s9.5,0.5,19,4.5s15,6,23.5,16
	s10.5,20.5,13.5,28.5s8,19.5,12.5,22.5s10.5,5.5,13.5,4s6.5-6,6.5-6s-1,7-4.5,7.5s-6,1.5-6,1.5s1.5,5,2.5,7s1,6,1,6l-4.5,8.5
	c0,0,1.5-8-0.5-13.5s-4.5-8-9-11.5s-10-11.5-15-25s-6.5-22-16-30.5s-17.5-11-21-12s-6.5-3.5-9-2s-3.5,3.5-2.5,7s2.5,4,1.5,10
	s-0.5,7.5-1.5,13.5s-4,14-4,14s6-25.5,3.5-34.5s-6-15.5-11.5-20s-9.5-7-17-7.5s-12.5,1.5-25.5,0.5s-20.5-2-25-6S929,395,929,395z"/>
<g>
	<text transform="matrix(1 0 0 1 538.7939 1293.1543)" fill="#7F7F7F" font-family="'Myriad-Roman'" font-size="12.6806">cc</text>
	<circle fill="none" stroke="#81807F" stroke-width="0.7398" cx="544.673" cy="1289.904" r="8.097"/>
	<text transform="matrix(1 0 0 1 556.6968 1293.9922)" fill="#7F7F7F" font-family="'Myriad-Roman'" font-size="12.6806">Patrick J. Lynch, 2006</text>
</g>
</svg>
