<?xml version="1.0" encoding="utf-8"?>
<!-- Generator: Adobe Illustrator 12.0.1, SVG Export Plug-In . SVG Version: 6.00 Build 51448)  -->
<!DOCTYPE svg PUBLIC "-//W3C//DTD SVG 1.1//EN" "http://www.w3.org/Graphics/SVG/1.1/DTD/svg11.dtd" [
	<!ENTITY ns_svg "http://www.w3.org/2000/svg">
	<!ENTITY ns_xlink "http://www.w3.org/1999/xlink">
]>
<svg  version="1.1" id="Layer_1" xmlns="&ns_svg;" xmlns:xlink="&ns_xlink;" width="753.367" height="1228.25"
	 viewBox="0 0 753.367 1228.25" overflow="visible" enable-background="new 0 0 753.367 1228.25" xml:space="preserve">
<g>
	<path fill="#D1D3D4" d="M166.524,449.25c0,0,5-0.5,13.5-9s5.5-10.5,15.5-16s18.5-9,32-16s21.5-10.5,30.5-11.5s13.5,0.5,21.5,0
		s12-1,15-2.5s7.5-3.5,7.5-3.5s-3,7.5-14.5,8s-19-1.5-29,0.5s-25.5,7.5-33,11.5s-20.5,8.5-25,12s-9.5,7.5-12.5,10.5s-5.5,9-9.5,11
		S166.524,449.25,166.524,449.25z"/>
	<path fill="#D1D3D4" d="M185.524,444.75c0,0,5.75,0.25,11.25-5.25s10.75-11,15-14.25s11.25-9.75,20.5-11.25s19.25-2.75,31.25,0.5
		s16.5,5.75,22,11s8.25,6.25,11.75,9s5.75,3.75,5.75,7.5s1.5,5.75-2,6.25s-12.5,2.25-17,4s-8.75,2.5-14.75,3.5s-25.25,3-36.5,1.5
		s-19-3-23.5-5.5s-7.25-4.5-8.5-5.75s-2.25-2.75-2.25-2.75s6,6,13.75,8.25s13.5,4.5,23.5,4.5s15.75,0.25,23.75-0.5
		s13.5-0.75,19.5-2.5s7.5-3.5,11-4s8-0.5,9.75-1.25s3-2.25,2.25-4.75s-2.5-4.5-5.5-6.25s-9-6.25-12.75-10s-9.25-6-12.5-7.25
		s-19-5.25-25.75-4.75s-15,1.5-19.5,4s-9.5,6.25-12.75,9s-8.75,6.5-10.75,9s-3.5,4.75-6.5,6s-4.25,2.5-6.5,2.5
		S185.524,444.75,185.524,444.75z"/>
	<path fill="#D1D3D4" d="M216.274,424.25c0,0,6.75-2.25,8-1.75s2,2,1.5,4.25s-0.75,10.75,1,15s6.5,13.75,20.5,13.75
		s23.75-8,25.25-17.25s-1-15.5-1-15.5s2.375,10.875,0.125,16.75c-1.444,3.771-3.375,6.75-7.875,9.5s-8.75,4.75-14,5
		c-5,0.238-10.5-0.5-14.25-3.75s-6-5-7-10.25c-0.94-4.936-0.293-7.272,0.25-8.25c0.625-1.125,1.5-3.75,4-3.5s4.25,2,4.25,3.75
		s-6.5,7.75-6.5,7.75s7-4,8.25-3.5s-3,9.75-3,9.75s2.302-6.816,5.75-5.5c3.438,1.312,4.25,8.75,4.25,8.75s-0.75-6.875,1.5-7.125
		s3.75,6.875,3.75,6.875s-1.625-6.625,1.25-7.188c2.985-0.585,8,5.938,8,5.938s-4.75-6.688-3.25-7.688s7.938,2.688,7.938,2.688
		s-6.5-3.812-6-6.062s1.312-3.438,1.062-5.688s0.938-5.562,3.688-7.062s5.125-2.33,7.312-2.375c3.062-0.062,7.75,1.375,7.75,1.375
		c0.344-0.5-5.375-3.562-5.375-3.562l-3.062-1.125c0,0-6.062-3.5-13.812-4s-14.25-0.75-18,0s-1,3,1.25,3.75s2,0.75,4.75,0.75
		s3.051-0.313,4,2c1,2.438,1.936,3.268,0.062,6c-1.5,2.188-4.062,3.5-6.25,2.125c-2.366-1.487-2.312-4.312-0.812-6.375
		c2.09-2.874,5.688-3.688,5.688-3.688l-3.688-1.062l-4.75-1.75l-4-1c0,0-6,0-9.75,2.5S216.274,424.25,216.274,424.25z"/>
	<path fill="#D1D3D4" d="M221.774,468c0,0,17.25,1.25,29.75-0.25s19.25-2.5,22.75-4.25s16-5.5,16-5.5s-16.25,7.5-23,9
		s-16.25,2.75-23.25,3s-11.5,0.75-14.25,0S221.774,468,221.774,468z"/>
	<path fill="#D1D3D4" d="M250.274,486.25c0,0,24-8.5,30.25-13.75s13-9.5,17.5-11.5s10.5-3.25,13.5-5.5s5.75-7.5,6-11.25
		s-2-8.25-4.75-10.5s-7-4-10.75-8.25s-7.5-9.5-10.75-12.25s-6.5-6.75-9.25-7s-6.75,0.75-8-0.75s-1.5-2.25,0.75-1s6-0.25,9.25,1.75
		s9.25,6.5,12.25,10.5s6.25,8.25,11,11.5c4.75,3.25,8.75,4.75,9.75,8.75s4,6.5-0.25,12.75s-12.25,10-18.25,13s-8.75,4.25-13.75,8.25
		s-9.75,7-14.5,9s-8.25,3.75-11.75,4.5S250.274,486.25,250.274,486.25z"/>
</g>
<g>
	<path fill="#D1D3D4" d="M269.774,495.25c0,0-22.75,7.25-29.25,11.25s-24,16.25-37.75,16.25s-26-3.25-34.5-13.75
		s-16.75-25.5-16-46.75s2.5-25.25,4-30s2.5-6,5.25-8.5s12.25-12,17.75-15.5s23.25-13.75,33-17s19-8.75,22.5-10.75
		s2.75-3.75,10.25-4.5s17.75-1.75,27.75-0.25s19.5,4.75,25.75,8.75s15,10.25,18.75,16.75s9.75,17.25,10.5,26s1.5,20.25,0.25,27.75
		s-1.75,15-6,20s-12.5,11.25-17.75,13.75c-5.25,2.5-16.5,4.5-16.5,4.5s19.75-2.5,25-6.5s12.5-7.25,16-22.25s4-28.75,3.25-32.75
		s-2.5-9.25-2.25-11.25s1.25-3,2.5-2s5,2.25,6.5,2.5s9,0,9,0s-10.5-0.75-14.75-4.75s-6.25-7-6.25-7l-1.25-2.25c0,0,4.5,1,8,0.5
		s9.5-2.75,13.75-3s8.25,0.25,11.25,0.5s5.25-0.25,7.5-0.75s6.75-2.25,6.75-2.25s-4.75,2.75-12,0.75s-10.5-1.25-15.75-0.5
		s-8,3.75-13.75,2s-15.75-11.25-22.25-16.5c-6.5-5.25-16.25-11.25-24.25-13.5s-24.25-3.25-31.25-3.5s-13.75-0.5-17.5-2.25
		s-9.5-3.75-11.5-5.25s-5.5-5-5.5-5s2.25,5.25,6.5,8s5.5,3.75,8.25,4.5s5-0.25,5,1.5s-2.75,2.5-6.25,4.5s-15.5,9.5-24,13
		s-16.25,6.5-23.75,11s-14,9.75-19,13.75s-4.75,8.25-9.75,9.5s-7.25,2.25-9.5,1.75s-5,0-5.75-1.75s3.75,4.5,6.25,5s4.25-1.75,4.5,2
		s-2,9.25-2,14.75s-2.25,15-0.25,25.75s6,24.75,10.5,31.25s9.25,12.75,16.5,16.25s15.75,7.75,23.5,7s17.5-3.75,25.5-8.25
		s14.25-9.75,21-12.75s11.5-5,14.5-6S269.774,495.25,269.774,495.25z"/>
</g>
<g>
	<path fill="#D1D3D4" d="M376.524,591c0,0-1.5-82.25-2.25-93.75s0.5-45,0.25-50.5s0.5-21.5-0.75-24s-2.25-5-4.5-3.5
		s-3.75,6.5-3.75,9s0.25,10.5-0.25,13.25s-2,4.5-3,3.5s-2.75-4.75-3.5-10.75s-2.75-10.75-4.5-11s-4.25-1-6.5,3.5s-5,14.25-4.5,19.75
		s0.75,13,3.5,17.5s8.25,7.75,9.75,12.5s2,12.25-0.5,16s-3.75,14-3.75,18.5s1.5,10.25-0.75,13.5s-5.5,11.75-11,8.75s-10-6.5-9-13.75
		s3.5-11,7.25-14s8.75-10.5,8.75-16.25s-1.75-12.5-6.5-12.25s-9,2.5-11.5,6.75s-8.5,16-9,25s-2.25,21,1.25,25.25s11.75,9,18.75,12
		s11.25,2.75,12.75,16.75s1,19.75-0.25,27.5s-0.5,15-6.5,17.5s-12.75,2.75-16.75,1s-7.75-4.5-7.75-9.5s0.25-8.75,2.5-9.75
		s9-2,12.75-3.5s5.5-6,5.75-10.25s0-13.75-5-17.5s-11-8-14.5-5.5s-8,9-9.75,13.5s-1.5,7.5-1.5,11.75s1.75,12,1.75,12
		s-2-16.25,0.75-22.5s5-11.5,9.25-12.25s6.5-1.25,9.75,1.75s5,3.25,6.25,8s3.25,12,0.75,15s-3,5.25-7.25,6s-10.5,1.5-11.75,3.75
		s-1.75,6-1.25,9.75s0.75,8,5.75,10s9.5,3,14.25,2.25s9.5-3,11.25-7.25s4.5-20.25,4.25-27.75s-0.5-19.75-3-23.5s-8-7.25-12.5-9.5
		s-11.5-3-15-8s-5.75-9.5-4.5-17s1.5-14,4.5-21.5s4.25-12.5,7.5-15.25s4.75-4,7.25-3.25s5.25,0.75,5.5,4.5s1.25,9.75-1.5,13
		s-5.25,8.25-8,10s-4.75,3.75-6.25,8.5s-0.25,10.75,1.5,13.75s3.75,5,7.5,5.75s8,0.75,10-2.25s4.5-8,4.75-12.25s-1-13,0.75-18.75
		s3-6.75,4-11.75s0.75-9-0.25-12.25s-7.5-9-9.75-13.75s-4.25-8-3.75-15.75s1.25-13,3.25-17s2.5-6.25,4.75-5.75s3,2,3.75,6.5
		s1.5,8.5,3,11.25s5.25,6.5,6,2.5s1-10.75,1.25-15.25s1.25-8,2.5-8.75s2.75-1.25,3,2.75s0.5,22,0.5,31.25s0.25,33.25,0.5,39.25
		s0.75,22.25,1,29.75S376.524,591,376.524,591z"/>
</g>
<g>
	<path fill="#D1D3D4" d="M300.024,566c0,0,14-25,13.75-39.25s-6-28-10.5-30.75c-4.5-2.75-17.25-6.5-36.25,7s-29.75,22.75-39,28
		s-18.75,10.75-25,15.75s-14,11.5-14.75,17.5s-1.5,12.75,7,21.25s17,16.75,24,25.5s15,19.25,19.5,24.25s13,14.5,18.5,16.5
		s11,0.5,16-0.75s15.75-7.25,18.75-10.5s9.75-11,12.5-18c2.75-7,4-9.5,4-9.5s-5.25,11-9,16.5s-4.75,8-9.75,11.25
		s-6.25,5.75-13.75,7.75s-11.75,3.5-17,1s-14.5-11.25-19.5-17s-8-11.5-15.75-19.75s-17.25-18.75-22.75-24.5s-11.25-10.75-11.5-15.75
		s-0.75-9,4.25-14.25s8.25-8.5,14.25-12.5s17-10.75,24.75-15.75s21-15.5,26-19s15.75-9.75,20-11.5s9.75-4.25,15.5-3.5
		s9,0.25,11.5,5.5c2.5,5.25,4.75,11,5.5,17s1.75,9.75-0.25,16.75s-3.75,13-5,16.5c-1.25,3.5-6.75,14.75-6.75,14.75"/>
</g>
<path fill="#D1D3D4" d="M305.024,571.5c0,0-15,16.75-13.75,38s7.5,22.25,9.75,25s12,5.25,17.75,4.75s12-2.25,14.25-2.75
	s6-1.75,6-1.75s-17.25,3.5-23,2s-16.25-6-19.25-15s-3.75-14.5-2.5-22.5s4-15,5.75-18.5S305.024,571.5,305.024,571.5z"/>
<path fill="#D1D3D4" d="M376.524,640.75c0,0-7,0.75-16.25-4.5s-13-8.25-19.5-10.75s-14-5.5-18.25-5s-8.5,0.75-7.25,3.75
	s2.5,4.5,5.5,5s7.25,1.25,9.5,1s6.75-1,6.75-1s-5.75-0.75-10-1.5s-7.75-0.75-8-2s-0.5-2,3.5-1.5s6.5-0.5,10.5,2.25s3.5,2,11.25,5.75
	s13.75,7,19,8.5s16,2.75,22.25,1.5s14.25-5.25,18.5-7.75s11.25-9.75,17.5-11s8.25-2.25,9.5-1s-2,2.5-4.25,3s-7.5,2-7.5,2l-4,1.5
	c0,0,14-1.25,17.5-3.25s6.75-5.5,2.75-6.5s-13.75-0.75-19.25,3s-12,7.25-15.75,9.75s-10,6-14,7S381.025,641,376.524,640.75z"/>
<path fill="#D1D3D4" d="M406.275,637.25c0,0,26.25,2,33.75-1.5s18.25-9.25,19.25-18.25s0-15.25-2.25-20.5s-5.5-10.75-5.5-10.75
	l-3.25-4.75c0,0,12.25,10.25,13.25,19.75s0.75,18.5-1.75,22.5s-10.5,12.75-21.5,14.75s-19.75,0.75-24,0.25
	S406.275,637.25,406.275,637.25z"/>
<g>
	<path fill="#D1D3D4" d="M134.274,232.5c0,0,2.25,25.5,4.25,33.5s5.5,21,6.75,27.5s3.25,18.25,2.25,26s-4.25,24-7.5,32.75
		s-9.75,30.5-12.5,41.25s-6.75,28.25-7.5,47s-0.75,36-2.25,45.75s-7.25,18.25-11.5,21.25s-12.5,9.75-13.5,17.25s1,15.25,4,22.25
		s3.25,9,4,12.75s3.5,10,7,14.5s10.5,9.5,15.25,13.25s7.5,5.25,11.25,11s13.75,10.25,22,12s11.75,1.5,15.75,3.5s6.5,4.75,11.75,6.5
		s13.25,3.75,18,5.75s11.75,5.25,17,13s9.75,14.5,10.25,21s1,14.25,1,21s0.75,10,1.75,12s3.75,4.5,3.75,4.5l2,0.5
		c0,0-5-6.75-5-14.25s0.5-24.25-1.75-32.25s-9.75-19.25-14.25-23.75s-13.25-9.25-18-10s-7.75,0-11.5-0.5s-5.25-0.75-7.5-2.5
		s-3.25-5.75-13.5-7.75s-18.5-1.5-24.25-6.75c0,0-5-7-9.5-11.25s-11.5-8.5-15-11.25s-8-7.75-9.25-11s-3-5-2-6s3-0.25,3.5,1.25
		s2.75,6,2.75,6s-2.25-9-5-12.5s-7.25-6-9.25-12.5s-3.5-13.5-1.75-19.5s4-8.25,9.25-13s12.25-9.25,14.25-16s2.25-8.75,2.5-24.5
		s0-28.75,1.5-42.5s6.75-36.5,10.25-47s8.75-28.25,11-36.25s6-21.5,5.75-29.75s-1.75-14,0-18.25s4.5-7,6.25-11.75s2-6.25,2.75-9
		s2.25-8.75,2.25-8.75s-3.5,10.25-5.25,14s-2.5,6.25-4.25,8.75s-3.75,6-5.5,1s-3.75-10.5-5.5-17.5s-3.25-13.5-4.25-19.5
		S134.274,232.5,134.274,232.5z"/>
</g>
<g>
	<path fill="#D1D3D4" d="M72.524,442.25c0,0-13-28-17.5-35s-9.25-15-15.25-16.75s-13.75-0.75-18.25,1s-11,4.25-13.5,9.25
		s-4.25,10.75-4.5,17.25s-1,12.5-1.5,20s-2.25,15.25-2,24.75s2.5,20.25,5.75,27.5s11.25,23,15.25,29.75s10,20.75,13.5,28.25
		s6.75,13,9.25,22.25s4,17,7,25.5s6,12.75,8.5,15.5s3,6.25,6.75,11.75s7.75,8.75,11.75,10.25s8.5,1.75,11.75,1s5-0.75,7.25-3.5
		s1.75-5.75,4-7.25s4-2.5,6-0.75s5,5.75,7.5,9.75s4,6,6.75,11.5s2.75,4.5,4.5,8.75s4,9,4,9s-5.75-17-8.25-22.25
		s-10.25-16.75-13.25-21s-9.75-14-13.5-21s-9-20.25-12-30.75s-6-30-5.25-54s-0.5-37-1.25-45s-3.25-20.75-3.25-20.75
		s1.75,18,1.5,22.5s-1.25,10.5-1.5,16.75s1,26.75,1,34s1.25,40,7.25,55.5s12,27.25,13.75,31.5s4.5,8.75,2,14s-3.75,10.5-11.25,9.5
		s-11.5-1.25-16-8.5s-7.75-13.75-9.75-17s-4.25-5.75-5.5-11.5s-4.5-19-7.5-28.25s-14-31-19.75-42.5s-15.5-25-19.75-35.75
		s-6.25-15.75-5.5-29s0.75-11,2-23.25s1.25-22.5,3.75-28.75s5.5-9.25,13-12.5s11.25-3.5,15.75-2.5s7.25,1.75,9.75,5
		s7.75,10.5,11.25,17s9.75,19,9.75,19L72.524,442.25z"/>
	<path fill="#D1D3D4" d="M11.274,430c0,0,5.5-6.75,10.5-7s6-1.75,12.5,3.5s12.25,9.5,16.25,16.25s8,12.75,10,18.25
		s8.25,19.75,8.25,19.75l4.25,8.75l1.75,12.75c0,0-1.75-1.25-3.25,0.5s-4,8.5-4.75,14s-2.75,17.5-0.75,25.75s2.75,8.75,4.5,10.75
		s4,0.75,4,4.5s0.25,7.5-1.25,9.25s-4,2.75-4,2.75s4-1.75,3.75-5.25s1.5-5-0.5-7s-4.25-3.75-5.25-5.25s-5.75-6-5.5-14.25
		s1.25-21.25,4.25-28.75s1.5-9.75,2-13.75s0.5-5.5-1.25-11.5s-3.25-8-4.75-9.25s-2.5-3.5-4,1.75s-1.25,7-2,11s-1.5,8.75-1.5,8.75
		s2.5-20.25,2.25-26.75s-1.75-9.5-7.5-18.25s-9.25-11.25-11.25-14.5s-4.25-4.75-7-2.75s-5,4.5-6,8.5s-2.5,13.25-1.75,19.75
		s0.5,11,2,15.5s3.5,10.25,3.5,10.25l1.75,2.5c0,0,0.25-8.5-0.25-14.75s1.25-13.5,1.25-18.75s-0.75-7.25-1.5-8s-1.75-2.25-1.75-2.25
		s5,2,4.25,14s-0.75,12.25-0.75,17.75s0.5,6.75,0.75,10.5s1.5,6,4.5,13.5s6,12.5,8,21.25s3.75,17,5,24.25s2.75,12,6.5,15
		s9,4.5,11,8.25s5,7.25,5,10s1,7,2.25,7.75s2.25,0.25,2.5-0.5s0.75-3.5,0.75-3.5s1,5.5-1.25,6.5s-4.5,0-5.5-5.25s-1.75-9-4.5-12.75
		s-5.25-3.5-9.5-7.5s-7-6-11.5-26.75s-3.75-18.25-7.75-28s-2.75-6.75-9-17S18.774,475.5,18.774,461s0.25-22.75,3.25-26.5
		s4.25-5.25,6-5.5s3-0.75,0.5-2.75s-3.25-2.5-6.5-2s-5.25,1.25-6.25,2S11.274,430,11.274,430z"/>
</g>
<path fill="#D1D3D4" d="M589.525,448.53c0,0-5-0.5-13.5-9s-5.5-10.5-15.5-16s-18.5-9-32-16s-21.5-10.5-30.5-11.5
	c-9-1-13.5,0.5-21.5,0s-12-1-15-2.5s-7.5-3.5-7.5-3.5s3,7.5,14.5,8s19-1.5,29,0.5c10,2,25.5,7.5,33,11.5s20.5,8.5,25,12
	s9.5,7.5,12.5,10.5s5.5,9,9.5,11S589.525,448.53,589.525,448.53z"/>
<path fill="#D1D3D4" d="M570.525,444.03c0,0-5.75,0.25-11.25-5.25s-10.75-11-15-14.25s-11.25-9.75-20.5-11.25s-19.25-2.75-31.25,0.5
	s-16.5,5.75-22,11s-8.25,6.25-11.75,9s-5.75,3.75-5.75,7.5s-1.5,5.75,2,6.25s12.5,2.25,17,4s8.75,2.5,14.75,3.5s25.25,3,36.5,1.5
	s19-3,23.5-5.5s7.25-4.5,8.5-5.75s2.25-2.75,2.25-2.75s-6,6-13.75,8.25s-13.5,4.5-23.5,4.5s-15.75,0.25-23.75-0.5
	s-13.5-0.75-19.5-2.5s-7.5-3.5-11-4s-8-0.5-9.75-1.25s-3-2.25-2.25-4.75s2.5-4.5,5.5-6.25s9-6.25,12.75-10s9.25-6,12.5-7.25
	s19-5.25,25.75-4.75s15,1.5,19.5,4s9.5,6.25,12.75,9s8.75,6.5,10.75,9s3.5,4.75,6.5,6s4.25,2.5,6.5,2.5
	S570.525,444.03,570.525,444.03z"/>
<path fill="#D1D3D4" d="M539.775,423.53c0,0-6.75-2.25-8-1.75s-2,2-1.5,4.25s0.75,10.75-1,15s-6.5,13.75-20.5,13.75
	s-23.75-8-25.25-17.25s1-15.5,1-15.5s-2.375,10.875-0.125,16.75c1.443,3.771,3.375,6.75,7.875,9.5s8.75,4.75,14,5
	c5,0.237,10.5-0.5,14.25-3.75s6-5,7-10.25c0.939-4.937,0.293-7.272-0.25-8.25c-0.625-1.125-1.5-3.75-4-3.5s-4.25,2-4.25,3.75
	s6.5,7.75,6.5,7.75s-7-4-8.25-3.5s3,9.75,3,9.75s-2.303-6.816-5.75-5.5c-3.439,1.312-4.25,8.75-4.25,8.75s0.75-6.875-1.5-7.125
	s-3.75,6.875-3.75,6.875s1.625-6.625-1.25-7.188c-2.986-0.584-8,5.938-8,5.938s4.75-6.688,3.25-7.688s-7.939,2.688-7.939,2.688
	s6.5-3.812,6-6.062s-1.311-3.438-1.061-5.688s-0.939-5.562-3.689-7.062s-5.125-2.33-7.311-2.375c-3.062-0.062-7.75,1.375-7.75,1.375
	c-0.346-0.5,5.375-3.562,5.375-3.562l3.061-1.125c0,0,6.062-3.5,13.812-4s14.25-0.75,18,0s1,3-1.25,3.75s-9.5-0.25-12.25-0.25
	s-3.053-0.312-4,2c-1,2.438-1.936,3.268-0.062,6c1.5,2.188,4.062,3.5,6.25,2.125c2.367-1.487,2.312-4.312,0.812-6.375
	c-2.09-2.874-5.688-3.688-5.688-3.688l11.188-0.062l4.75-1.75l4-1c0,0,6,0,9.75,2.5S539.775,423.53,539.775,423.53z"/>
<path fill="#D1D3D4" d="M534.275,467.28c0,0-17.25,1.25-29.75-0.25s-19.25-2.5-22.75-4.25s-16-5.5-16-5.5s16.25,7.5,23,9
	s16.25,2.75,23.25,3s11.5,0.75,14.25,0S534.275,467.28,534.275,467.28z"/>
<path fill="#D1D3D4" d="M505.775,485.53c0,0-24-8.5-30.25-13.75s-13-9.5-17.5-11.5s-10.5-3.25-13.5-5.5s-5.75-7.5-6-11.25
	s2-8.25,4.75-10.5s7-4,10.75-8.25s7.5-9.5,10.75-12.25s6.5-6.75,9.25-7s6.75,0.75,8-0.75s1.5-2.25-0.75-1s-6-0.25-9.25,1.75
	s-9.25,6.5-12.25,10.5s-6.25,8.25-11,11.5s-8.75,4.75-9.75,8.75s-4,6.5,0.25,12.75s12.25,10,18.25,13s8.75,4.25,13.75,8.25
	s9.75,7,14.5,9s8.25,3.75,11.75,4.5S505.775,485.53,505.775,485.53z"/>
<g>
	<path fill="#D1D3D4" d="M483.275,494.53c0,0,22.75,7.25,29.25,11.25s24,16.25,37.75,16.25s26-3.25,34.5-13.75s16.75-25.5,16-46.75
		s-2.5-25.25-4-30s-2.5-6-5.25-8.5s-12.25-12-17.75-15.5s-23.25-13.75-33-17s-19-8.75-22.5-10.75s-2.75-3.75-10.25-4.5
		s-17.75-1.75-27.75-0.25s-19.5,4.75-25.75,8.75s-15,10.25-18.75,16.75s-9.75,17.25-10.5,26s-1.5,20.25-0.25,27.75s1.75,15,6,20
		s12.5,11.25,17.75,13.75s16.5,4.5,16.5,4.5s-19.75-2.5-25-6.5s-12.5-7.25-16-22.25s-4-28.75-3.25-32.75s2.5-9.25,2.25-11.25
		s-1.25-3-2.5-2s-5,2.25-6.5,2.5s-9,0-9,0s10.5-0.75,14.75-4.75s6.25-7,6.25-7l1.25-2.25c0,0-4.5,1-8,0.5s-9.5-2.75-13.75-3
		s-8.25,0.25-11.25,0.5s-5.25-0.25-7.5-0.75s-6.75-2.25-6.75-2.25s4.75,2.75,12,0.75s10.5-1.25,15.75-0.5s8,3.75,13.75,2
		s15.75-11.25,22.25-16.5s16.25-11.25,24.25-13.5s24.25-3.25,31.25-3.5s13.75-0.5,17.5-2.25s9.5-3.75,11.5-5.25s5.5-5,5.5-5
		s-2.25,5.25-6.5,8s-5.5,3.75-8.25,4.5s-5-0.25-5,1.5s2.75,2.5,6.25,4.5s15.5,9.5,24,13s16.25,6.5,23.75,11s14,9.75,19,13.75
		s4.75,8.25,9.75,9.5s7.25,2.25,9.5,1.75s5,0,5.75-1.75s-3.75,4.5-6.25,5s-4.25-1.75-4.5,2s2,9.25,2,14.75s2.25,15,0.25,25.75
		s-6,24.75-10.5,31.25s-9.25,12.75-16.5,16.25s-15.75,7.75-23.5,7s-17.5-3.75-25.5-8.25s-14.25-9.75-21-12.75s-11.5-5-14.5-6
		S483.275,494.53,483.275,494.53z"/>
</g>
<g>
	<path fill="#D1D3D4" d="M378.4,592.062c0,0,1.5-82.25,2.25-93.75s-0.5-45-0.25-50.5s-0.5-21.5,0.75-24s2.25-5,4.5-3.5
		s3.75,6.5,3.75,9s-0.25,10.5,0.25,13.25s2,4.5,3,3.5s2.75-4.75,3.5-10.75s2.75-10.75,4.5-11s4.25-1,6.5,3.5s5,14.25,4.5,19.75
		s-0.75,13-3.5,17.5s-8.25,7.75-9.75,12.5s-2,12.25,0.5,16s3.75,14,3.75,18.5s-1.5,10.25,0.75,13.5s5.5,11.75,11,8.75
		s10-6.5,9-13.75s-3.5-11-7.25-14s-8.75-10.5-8.75-16.25s1.75-12.5,6.5-12.25s9,2.5,11.5,6.75s8.5,16,9,25s2.25,21-1.25,25.25
		s-11.75,9-18.75,12s-11.25,2.75-12.75,16.75s-1,19.75,0.25,27.5s0.5,15,6.5,17.5s12.75,2.75,16.75,1s7.75-4.5,7.75-9.5
		s-0.25-8.75-2.5-9.75s-9-2-12.75-3.5s-5.5-6-5.75-10.25s0-13.75,5-17.5s11-8,14.5-5.5s8,9,9.75,13.5s1.5,7.5,1.5,11.75
		s-1.75,12-1.75,12s2-16.25-0.75-22.5s-5-11.5-9.25-12.25s-6.5-1.25-9.75,1.75s-5,3.25-6.25,8s-3.25,12-0.75,15s3,5.25,7.25,6
		s10.5,1.5,11.75,3.75s1.75,6,1.25,9.75s-0.75,8-5.75,10s-9.5,3-14.25,2.25s-9.5-3-11.25-7.25s-4.5-20.25-4.25-27.75
		s0.5-19.75,3-23.5s8-7.25,12.5-9.5s11.5-3,15-8s5.75-9.5,4.5-17s-1.5-14-4.5-21.5s-4.25-12.5-7.5-15.25s-4.75-4-7.25-3.25
		s-5.25,0.75-5.5,4.5s-1.25,9.75,1.5,13s5.25,8.25,8,10s4.75,3.75,6.25,8.5s0.25,10.75-1.5,13.75s-3.75,5-7.5,5.75s-8,0.75-10-2.25
		s-4.5-8-4.75-12.25s1-13-0.75-18.75s-3-6.75-4-11.75s-0.75-9,0.25-12.25s7.5-9,9.75-13.75s4.25-8,3.75-15.75s-1.25-13-3.25-17
		s-2.5-6.25-4.75-5.75s-3,2-3.75,6.5s-1.5,8.5-3,11.25s-5.25,6.5-6,2.5s-1-10.75-1.25-15.25s-1.25-8-2.5-8.75s-2.75-1.25-3,2.75
		s-0.5,22-0.5,31.25s-0.25,33.25-0.5,39.25s-0.75,22.25-1,29.75S378.4,592.062,378.4,592.062z"/>
</g>
<g>
	<path fill="#D1D3D4" d="M452.525,565.28c0,0-14-25-13.75-39.25s6-28,10.5-30.75s17.25-6.5,36.25,7s29.75,22.75,39,28
		s18.75,10.75,25,15.75s14,11.5,14.75,17.5s1.5,12.75-7,21.25s-17,16.75-24,25.5s-15,19.25-19.5,24.25s-13,14.5-18.5,16.5
		s-11,0.5-16-0.75s-15.75-7.25-18.75-10.5s-9.75-11-12.5-18s-4-9.5-4-9.5s5.25,11,9,16.5s4.75,8,9.75,11.25s6.25,5.75,13.75,7.75
		s11.75,3.5,17,1s14.5-11.25,19.5-17s8-11.5,15.75-19.75s17.25-18.75,22.75-24.5s11.25-10.75,11.5-15.75s0.75-9-4.25-14.25
		s-8.25-8.5-14.25-12.5s-17-10.75-24.75-15.75s-21-15.5-26-19s-15.75-9.75-20-11.5s-9.75-4.25-15.5-3.5s-9,0.25-11.5,5.5
		s-4.75,11-5.5,17s-1.75,9.75,0.25,16.75s3.75,13,5,16.5s6.75,14.75,6.75,14.75"/>
</g>
<g>
	<path fill="#D1D3D4" d="M680.841,437.933c0,0,13-28,17.5-35c4.5-7,9.25-15,15.25-16.75s13.75-0.75,18.25,1s11,4.25,13.5,9.25
		c2.5,5,4.25,10.75,4.5,17.25s1,12.5,1.5,20s2.25,15.25,2,24.75s-2.5,20.25-5.75,27.5s-11.25,23-15.25,29.75s-10,20.75-13.5,28.25
		s-6.75,13-9.25,22.25s-4,17-7,25.5s-6,12.75-8.5,15.5s-3,6.25-6.75,11.75s-7.75,8.75-11.75,10.25s-8.5,1.75-11.75,1
		s-5-0.75-7.25-3.5s-1.75-5.75-4-7.25s-4-2.5-6-0.75s-5,5.75-7.5,9.75s-4,6-6.75,11.5s-2.75,4.5-4.5,8.75s-4,9-4,9
		s5.75-17,8.25-22.25s10.25-16.75,13.25-21s9.75-14,13.5-21s9-20.25,12-30.75s6-30,5.25-54s0.5-37,1.25-45s3.25-20.75,3.25-20.75
		s-1.75,18-1.5,22.5s1.25,10.5,1.5,16.75s-1,26.75-1,34s-1.25,40-7.25,55.5s-12,27.25-13.75,31.5s-4.5,8.75-2,14
		s3.75,10.5,11.25,9.5s11.5-1.25,16-8.5s7.75-13.75,9.75-17s4.25-5.75,5.5-11.5s4.5-19,7.5-28.25s14-31,19.75-42.5
		s15.5-25,19.75-35.75s6.25-15.75,5.5-29s-0.75-11-2-23.25s-1.25-22.5-3.75-28.75c-2.5-6.25-5.5-9.25-13-12.5s-11.25-3.5-15.75-2.5
		s-7.25,1.75-9.75,5s-7.75,10.5-11.25,17s-9.75,19-9.75,19L680.841,437.933z"/>
	<path fill="#D1D3D4" d="M742.091,425.683c0,0-5.5-6.75-10.5-7s-6-1.75-12.5,3.5s-12.25,9.5-16.25,16.25s-8,12.75-10,18.25
		s-8.25,19.75-8.25,19.75l-4.25,8.75l-1.75,12.75c0,0,1.75-1.25,3.25,0.5s4,8.5,4.75,14s2.75,17.5,0.75,25.75s-2.75,8.75-4.5,10.75
		s-4,0.75-4,4.5s-0.25,7.5,1.25,9.25s4,2.75,4,2.75s-4-1.75-3.75-5.25s-1.5-5,0.5-7s4.25-3.75,5.25-5.25s5.75-6,5.5-14.25
		s-1.25-21.25-4.25-28.75s-1.5-9.75-2-13.75s-0.5-5.5,1.25-11.5s3.25-8,4.75-9.25s2.5-3.5,4,1.75s1.25,7,2,11s1.5,8.75,1.5,8.75
		s-2.5-20.25-2.25-26.75s1.75-9.5,7.5-18.25s9.25-11.25,11.25-14.5s4.25-4.75,7-2.75s5,4.5,6,8.5s2.5,13.25,1.75,19.75
		s-0.5,11-2,15.5s-3.5,10.25-3.5,10.25l-1.75,2.5c0,0-0.25-8.5,0.25-14.75s-1.25-13.5-1.25-18.75s0.75-7.25,1.5-8
		s1.75-2.25,1.75-2.25s-5,2-4.25,14s0.75,12.25,0.75,17.75s-0.5,6.75-0.75,10.5s-1.5,6-4.5,13.5s-6,12.5-8,21.25s-3.75,17-5,24.25
		s-2.75,12-6.5,15s-9,4.5-11,8.25s-5,7.25-5,10s-1,7-2.25,7.75s-2.25,0.25-2.5-0.5s-0.75-3.5-0.75-3.5s-1,5.5,1.25,6.5
		s4.5,0,5.5-5.25s1.75-9,4.5-12.75s5.25-3.5,9.5-7.5s7-6,11.5-26.75s3.75-18.25,7.75-28s2.75-6.75,9-17s10.25-18.75,10.25-33.25
		s-0.25-22.75-3.25-26.5s-4.25-5.25-6-5.5s-3-0.75-0.5-2.75s3.25-2.5,6.5-2s5.25,1.25,6.25,2S742.091,425.683,742.091,425.683z"/>
</g>
<path fill="#D1D3D4" d="M99.024,621.75c0,0,8,50,12.5,69.5s9.5,45.5,15,61s16.5,44.5,29,60.5s42,40.5,54,49.5s64,37.5,78.5,43
	s52,20.5,76.5,22c24.5,1.5,62-6,73.5-10.5s30-14.5,46-21s44-23,62.5-37.5s45.5-37,53-49.5s24-37,30.5-62s8-45.5,11.5-65.5
	s12.5-63,12.5-63l-7-2c0,0-3,22-5,39s-7.5,56-11,72.5s-13,42.5-19.5,54.5s-16.5,30-28,40s-25,22.5-38,31.5s-42.5,30-56.5,36.5
	s-38,18-53,23s-43.5,11-59.5,10.5c-16-0.5-44-5-64-12.5c-20-7.5-33-14-51.5-23.5s-32.5-18-50.5-31s-39-28.5-49.5-44
	s-17.5-23-28.5-56.5s-14.5-45-18.5-69s-9.5-68-9.5-68L99.024,621.75z"/>
<path fill="#D1D3D4" d="M152.524,607.25c0,0,8,46.5,8.5,75.5s3.5,48,4.5,63.5s1.5,18.5,3,29s1.5,17,5.5,25s12,16.5,17,22.5
	s13.5,13.5,21.5,17s10,2.5,14.5,6.5s9.5,9,19,17.5s22,14.5,30.5,18s15.5,5,22.5,8s17.5,7.5,26,12s20,7.5,28,8.5s18,1,23.5,1.5
	c5.5,0.5,22.5-2,31-3.5s15.5-4.5,23.5-8s11-7,19-10s24.5-11,32.5-15s22.5-15.5,31-21s18.5-9.5,25-13s13.5-8.5,22.5-19.5
	s16.5-23,20.5-32.5s3.5-20,5-28s6.5-16.5,7-35s0.5-35.5,0.5-51.5s1.5-29,3-37s3-18,5-23s3.5-9,3.5-9l-5,4c0,0-1.5,4.5-4,13
	s-3.5,25.5-5,36.5s-1.5,30.5-1.5,41s-1,25.5-2.5,36s-4.5,18-5,26s1.5,13.5-2.5,22.5s-9.5,20.5-17,29.5s-13.5,17-23.5,22
	s-22,12-30,18s-20,14.5-29,19s-27,9-35,14.5s-22,14-34,16.5s-28.5,5-39.5,4c-11-1-25.5-1.5-37-6s-20-9-33.5-15
	c-13.5-6-28-8.5-37.5-14.5s-20.5-14.5-27-22s-13.5-12.5-18-13s-16.5-6-23-14s-17-16-20.5-26.5s-4.5-24.5-6-41s-4.5-35.5-5.5-52
	s-2-37.5-3-51.5s-4.5-37-4.5-37l-1-7.5L152.524,607.25z"/>
<path fill="#D1D3D4" d="M183.024,618.75"/>
<g>
	<path fill="#D1D3D4" d="M621.275,232.5c0,0-2.25,25.5-4.25,33.5s-5.5,21-6.75,27.5s-3.25,18.25-2.25,26s4.25,24,7.5,32.75
		s9.75,30.5,12.5,41.25s6.75,28.25,7.5,47s0.75,36,2.25,45.75s7.25,18.25,11.5,21.25s12.5,9.75,13.5,17.25s-1,15.25-4,22.25
		s-3.25,9-4,12.75s-3.5,10-7,14.5s-10.5,9.5-15.25,13.25s-7.5,5.25-11.25,11s-13.75,10.25-22,12s-11.75,1.5-15.75,3.5
		s-6.5,4.75-11.75,6.5s-13.25,3.75-18,5.75s-11.75,5.25-17,13s-9.75,14.5-10.25,21s-1,14.25-1,21s-0.75,10-1.75,12
		s-3.75,4.5-3.75,4.5l-2,0.5c0,0,5-6.75,5-14.25s-0.5-24.25,1.75-32.25s9.75-19.25,14.25-23.75s13.25-9.25,18-10s7.75,0,11.5-0.5
		s5.25-0.75,7.5-2.5s3.25-5.75,13.5-7.75s18.5-1.5,24.25-6.75c0,0,5-7,9.5-11.25s11.5-8.5,15-11.25s8-7.75,9.25-11s3-5,2-6
		s-3-0.25-3.5,1.25s-2.75,6-2.75,6s2.25-9,5-12.5s7.25-6,9.25-12.5s3.5-13.5,1.75-19.5s-4-8.25-9.25-13s-12.25-9.25-14.25-16
		s-2.25-8.75-2.5-24.5s0-28.75-1.5-42.5s-6.75-36.5-10.25-47s-8.75-28.25-11-36.25s-6-21.5-5.75-29.75s1.75-14,0-18.25
		s-4.5-7-6.25-11.75s-2-6.25-2.75-9s-2.25-8.75-2.25-8.75s3.5,10.25,5.25,14s2.5,6.25,4.25,8.75s3.75,6,5.5,1s3.75-10.5,5.5-17.5
		s3.25-13.5,4.25-19.5S621.275,232.5,621.275,232.5z"/>
</g>
<g>
	<path fill="#D1D3D4" d="M247.524,368c0,0-7.25-10.5-0.5-17.5s5.5-6.5,10.75-8.25s15-1.75,21-4.5s16.25-11.25,21.5-16.5
		s15.5-13.25,20.75-14.75s14-3,19.25,0s15.25,11,18,16.25s5.25,16.75,7.25,23.75s3.75,18.75,4,26.25s-0.5,15-0.75,18.5
		s-0.75,6.5-0.75,6.5s0.5-20.75-2-35.25s-4-22.5-6.25-28.25s-3.75-10.75-7.5-15.5s-7.5-8.25-13-10.5s-13.25-2-17.75,0
		s-10.25,6-13.75,9.25c-3.5,3.25-9.75,9.25-14.5,13s-10.5,7.75-17,9.75s-12.5,1.25-17.25,3.5s-9.25,5-11,8s-2.5,3.5-2,7
		S247.524,368,247.524,368z"/>
</g>
<g>
	<path fill="#D1D3D4" d="M507.244,365.122c0,0,7.25-10.5,0.5-17.5s-5.5-6.5-10.75-8.25s-15-1.75-21-4.5s-16.25-11.25-21.5-16.5
		s-15.5-13.25-20.75-14.75s-14-3-19.25,0s-15.25,11-18,16.25s-5.25,16.75-7.25,23.75s-3.75,18.75-4,26.25s0.5,15,0.75,18.5
		s0.75,6.5,0.75,6.5s-0.5-20.75,2-35.25s4-22.5,6.25-28.25s3.75-10.75,7.5-15.5s7.5-8.25,13-10.5s13.25-2,17.75,0
		s10.25,6,13.75,9.25s9.75,9.25,14.5,13s10.5,7.75,17,9.75s12.5,1.25,17.25,3.5s9.25,5,11,8s2.5,3.5,2,7
		S507.244,365.122,507.244,365.122z"/>
</g>
<path fill="#D1D3D4" d="M183.024,618.75c0,0,7,55.5,14.5,78s15,41.5,20,52s25.5,35.5,25.5,35.5s-26.5-34.5-37.5-70s-14-53.5-16-63.5
	S183.024,618.75,183.024,618.75z"/>
<path fill="#D1D3D4" d="M376.524,734.5c1-4.5-1.75-37.75-3.25-42.25s-5.5-18.5-12-18.75s-12.5,2.5-14.25,8.75s-1.75,15.5-2.25,18.25
	s-2.25,13-2.5,17.25s-0.75,12.5,2.75,15.25s10,5.75,15.5,5.75s11,0.5,13.5-0.5s4-3.25,0.5-3.25c-3.5,0-6.75,2.375-14.5,1.625
	s-15.5-3.875-15.75-9.375c-0.239-5.25-0.812-10.016,1-17c1.75-6.75,0.75-8.25,1.5-14.5c0.56-4.662,0.939-13.004,3.75-16.75
	c3-4,6.5-5.5,10.25-4.5s6.5,5.25,7.75,9.75s3,13.5,3.5,17.25s2.5,12.5,2.75,17s0.75,11,0.5,12.75s-1.75,5.25-0.75,5.25
	s2-0.438,2-0.438V734.5z"/>
<path fill="#D1D3D4" d="M345.024,708c0,0-4-14.5-7.75-18.25s-7.25-6.25-10.75-5.5s-5.75,3.5-8,8.5s-3.5,11.25-4,17.5
	s-1.25,9.5,0.5,13.75s3.75,7,7,8.75s5,5.25,9,4.75s4.75-0.75,6.75-2.75s5.25-7,5.25-7s-1.25,3.75-5.75,5.75s-6.5,3.5-10,1
	s-8-3.75-9.5-8s-4.25-6.75-2.5-13s2-12.5,3.5-16.25s0.75-7.25,4.75-9.5s6-2.75,9,0.75s6,6,7.25,10.75s3,9,3,9l0.75,5.5L345.024,708z
	"/>
<path fill="#D1D3D4" d="M315.524,706c0,0-2.75-4.25-4.75-8s-6.25-8-10-7.25s-7.75,4-9.25,9.75s-3,9.75-2,16.25s1.25,10.5,4.5,14
	s5.5,5.75,7.5,6.75s4.25-0.25,5.5-2.75c1.25-2.5,2.5-5,4-7s4-3.75,4-3.75s-4.25,0.75-6,4s-1.25,6.5-4,7
	c-2.75,0.5-5.75,0.25-8.75-3.5s-5.25-7.75-5.5-12.5s-0.25-9.5,1-14.25s2.25-8,4.5-10.25s3-2.5,5.75-2.25s4.5,2,6.25,4.5
	c1.75,2.5,2.25,4.5,3.5,7s2,4.25,2,4.25l0.75,2.25L315.524,706z"/>
<path fill="#D1D3D4" d="M289.524,709c0,0-3-1.25-4.25-5.25s-1-6.25-3.25-9s-3.25-4.5-5.5-3.75s-4.5,2.75-5.25,6.75s-1.5,9.5-1,15.25
	s1.75,10.25,3.75,13s4,5.25,5.5,6s4,0.5,5.5-1s3-3.75,4-4s2.75-1.25,2.75-1.25s-5.25,2.25-7.25,3.25s-3.75,3-5.5,0.5
	s-4.5-3-5.75-8.5s-2.25-8.5-2-13.75s0.75-10,2.5-12.75s2.5-3,4-2.25s2.25,2.25,3.5,4.75s1.5,4.5,2.75,7s2.25,4.25,3.5,5
	s2.25,1.5,2.25,1.5L289.524,709z"/>
<path fill="#D1D3D4" d="M270.774,702.5c0,0-1.5-2-3-4.25s-2.5-3.75-4.5-3.5s-4,1.5-5,2.5s-2,3-2.25,6.25s-1,8.5-1,10.75
	s-1.25,5,0,8.25s2,6,4.5,6.25s4,0.75,7,0.5s4.25-0.75,5.5-1.75s2-1.5,2-1.5s-2.25,1.25-6.25,1.75s-6,2-8,0s-3.5-1-3.75-5
	s-0.25-5.5,0-8.5s0.25-3.75,0.75-8.25s0.25-5.25,1.5-6.75s1.75-2.5,3.5-2.75s2-1.25,3.5,0.25s2.5,3.25,3.5,4.5
	S270.774,702.5,270.774,702.5z"/>
<path fill="#D1D3D4" d="M257.024,699c0,0-1.5-1.5-3.75-3s-1.5-3.25-6-3s-4.25-0.5-6.25,3.25s-2.5,7-2,11.5s-1,7.75,1.75,10.5
	s4,5.25,6.25,5.5s4,0,5-0.25s3-1,3-1s-1,1.25-4.5,0.5s-4,0.5-6-2.25s-2.5-1-3.5-5.75s-0.5-7,0-9.75s0.25-5.25,1.25-7.25
	s0.75-3,3-2.75s4.75,0.25,5.75,0.75s3.25,2,3.25,2l2,2L257.024,699z"/>
<path fill="#D1D3D4" d="M233.024,695.75c-0.25,4.25-0.5,4.25-0.25,9.5s0.75,9,2,10.75s1,2.75,2.75,3.25s4.25,0.5,4.25,0.5
	s-1.25,0.25-3.25-1.25s-2.5-0.25-3-4.25s-1-5.25-1-8.5s0.25-3.75,0.25-5.75s0.5-4,0.5-4L233.024,695.75z"/>
<path fill="#D1D3D4" d="M233.774,710.5c0,0-1,2.5-2,7.75s-1.75,9.25-0.25,13.25s3,8,4.25,9.25s2,3.25,3.75,4s4,0,4,0
	s0.25,1.25-2.5-0.75s-2.25-0.75-5-6s-2.75-3.25-3.5-8.25s-0.75-6,0.25-8.5s1.5-3.25,1.75-4.25s1-2.75,1-2.75L233.774,710.5z"/>
<path fill="#D1D3D4" d="M243.524,720.5c0,0-2.25,5.5-1.75,10.25s1.5,8.75,3,11.75s2.5,5,4.5,4.75s3-0.5,3.75-1.25s2.75-4,2.75-4
	s-2,3.75-4.5,4s-3,2-4.25-2.75s-1.5-4.25-2.75-8.75s-1.25-5.25-0.5-8s1.25-4.75,1.25-4.75L243.524,720.5z"/>
<path fill="#D1D3D4" d="M255.774,725c0,0-1,5.25-0.5,10s0.25,5.5,1.25,8.75s1.5,5.25,3.25,6.5s3.5,2.75,4.5,2s3.25-2.75,3.25-2.75
	s-3.25,2.5-5,1.25s-3-0.75-4-4.5s-1.5-5.5-1.75-9.25s0-5.25,0-7.25s0.25-3.5,0.25-3.5L255.774,725z"/>
<path fill="#D1D3D4" d="M266.524,729.25c0,0-1,5,0,10s1,7.25,2,11s1.75,6,4,7.25s3.25,2.25,4.75,0.5s2.75-2.5,3.5-4.25
	s1.5-2.75,2.25-3.25s1.5-1,1.5-1s-3.25,1.25-4.75,3.75s-1.25,4.25-3.25,4s-4,0.5-5-3.25s-2.5-5.25-3-9.5s-1.25-7-1-9.75s0-6,0-6
	L266.524,729.25z"/>
<path fill="#D1D3D4" d="M284.024,730.5c0,0,0.25,5.75,0.25,11s0.25,7,1.5,10.75s2,5.25,3.25,6.75s1.75,2.5,3.75,3s2.5,1.5,4.5-0.25
	s3.5-2.5,4-5s1-4.75,1.5-5.75s1.75-4,1.75-4s-1.75,3.5-3,6s-1,3.25-2.75,5.5s-2,3.5-4.5,2.25s-3.75-0.5-4.75-3.25s-2.5-6.25-2.75-7
	s-2-3.25-1.5-7.5s0.75-6.5,0.5-8.25s-0.5-4.5-0.5-4.5L284.024,730.5z"/>
<path fill="#D1D3D4" d="M304.024,738.25c0,0,0.5,5.25,0.5,8.75s-1.25,4.75,1.25,9.25c2.5,4.5,3.25,6.75,5.5,8.5s3.5,3.75,5.5,3.75
	s3,0,5-3s2.25-1,4-6s1.75-6.25,2.5-7s0.25-0.5,0.75-5s0.25-7.75,0.25-7.75l0.25-3c0,0-0.25,1.5-1.5,6.75s1,3.5-1.5,10.25
	s-3,9.25-5.25,11s-2.75,3.5-4.75,2.25s-3.5-0.75-5.75-4.5s-3.25-3-4-7.25c-0.75-4.25-1.25-3-1.25-7.75s0.25-7.5,0.25-7.5l-1-3.75
	L304.024,738.25z"/>
<path fill="#D1D3D4" d="M332.024,737c0,0,0,8,0,10.25s0.25,3.5,0.25,3.5l-4,1.75l4.5-0.5c0,0,0.75,1.75,2,5s1.25,4.25,3,6.5
	s2.75,3.75,4.75,3.5s3,0.5,4.5-2.25s2.25-3.25,3.25-5.5s2-3.75,2-3.75s0.25,3.75,2,6.75s0.25,3.75,4.25,6.5s4.5,5.5,7.25,5.25
	s3.5-0.75,5.25-2.75s3-4.25,3.75-7s2-5.5,2.5-9c0.5-3.5,0-17.5,0-17.5l-2-1.25c0,0,1.25,1,1.25,6.75s-0.25,7.75-1.25,13.5
	s-0.25,6.5-2.75,10.5s-2.75,5.75-5,5.5s-2.75,0.75-5.5-2.75s-4.25-3.75-5.25-7.5s-1.75-4.5-2.75-10.5s-1-10.75-1-10.75l-0.5-6
	c0,0-0.25,7.75-1.25,12.5s0.5,6.75-1,9.5s-2.25,5.75-4,6.75s-3,2-4.5,1s-3.5-1.75-4.5-4.75s-1.75-4.75-2.5-7.5s-1.25-4-1.25-8
	s0-6.25,0-6.25l0.25-2.25L332.024,737z"/>
<path fill="#D1D3D4" d="M319.551,779.148c2.296,0.602,3.664-2.16,5.975-1.898c-2.776,2.019-4.51,4.34-7.884,2.751
	c-0.834-0.394-1.082-1.995-2.116-2.751C316.861,777.919,318.105,778.77,319.551,779.148z"/>
<path fill="#D1D3D4" d="M350.524,787.02c3.233-0.005,2.342-4.595,5-5.77c-0.695,1.851-2.058,3.432-3.276,4.743
	c-3.436,3.693-9.135,0.066-10.724-3.743C345.04,782.989,346.98,787.024,350.524,787.02z"/>
<path fill="#D1D3D4" d="M338.054,797.725c2.097,2.079,3.812,5.789,3.472,9.525c-2.354-5.966-3.898-12.516-11-15
	C334.447,791.91,336.039,795.727,338.054,797.725z"/>
<path fill="#D1D3D4" d="M291.781,828.656c1.688,3.091,8.375,4.729,5.207,8.087c-4.651,4.928-12.719-0.551-16.463-5.493
	c1.179-0.202,2.609,0.902,2.715,0.771c-0.212,0.264,21.224,5.926-6.715-13.771C281.834,821.627,288.936,823.444,291.781,828.656z"/>
<path fill="#D1D3D4" d="M346.402,872.697c-4.116,0.912-9.028,2.373-12.877-1.447c8.686,5.127,19.697-0.198,25-8
	C356.011,868.367,351.473,871.573,346.402,872.697z"/>
<path fill="#D1D3D4" d="M364.524,842.25c0,1.334,0,2.666,0,4c0-2.334,0-4.666,0-7C364.524,840.253,364.524,841.244,364.524,842.25z"
	/>
<path fill="#D1D3D4" d="M285.524,669.5c0,6.5-0.25,9.75,0.5,13.75s1.75,7.25,1.75,7.25s-2-10-2-12.5S285.524,669.5,285.524,669.5z"
	/>
<g>
	<path fill="#D1D3D4" d="M308.524,656.25c-1,5.5-2.75,9.25-1.25,14.75c1.5,5.5,4,10.25,4,10.25s-2-6.75-2.5-10.5s-0.75-6.25-0.5-9
		s0.25-4.75,0.25-4.75"/>
</g>
<path fill="#D1D3D4" d="M339.024,654.75c0,0-0.75,4.5-0.25,8.75s0.5,5.5,1.25,7.25c0.695,1.625,2,4,2,4s-1.25-3.75-1.75-8.5
	S339.024,654.75,339.024,654.75z"/>
<path fill="#D1D3D4" d="M197.524,623.25c0,0,5,24,8.5,34.25s6.75,19.75,9.5,26s6.5,17,9,21s9,11,9,11l-0.25-1.5
	c0,0-8.5-12.25-12.25-22s-8.5-20.25-11.75-31.25s-8.5-29.75-9.25-33s-1.5-4-1.5-4L197.524,623.25z"/>
<g>
	<path fill="#D1D3D4" d="M264.524,666.25c-1,5.5-2.75,9.25-1.25,14.75s4,10.25,4,10.25s-2-6.75-2.5-10.5s-0.75-6.25-0.5-9
		s0.25-4.75,0.25-4.75"/>
</g>
<g>
	<path fill="#D1D3D4" d="M251.524,662.25c-1,5.5-2.75,9.25-1.25,14.75s4,10.25,4,10.25s-2-6.75-2.5-10.5s-0.75-6.25-0.5-9
		s0.25-4.75,0.25-4.75"/>
</g>
<g>
	<path fill="#D1D3D4" d="M241.524,659.25c-1,5.5-2.75,9.25-1.25,14.75s4,10.25,4,10.25s-2-6.75-2.5-10.5s-0.75-6.25-0.5-9
		s0.25-4.75,0.25-4.75"/>
</g>
<path fill="#D1D3D4" d="M570.025,618.75c0,0-7,55.5-14.5,78s-15,41.5-20,52s-25.5,35.5-25.5,35.5s26.5-34.5,37.5-70s14-53.5,16-63.5
	S570.025,618.75,570.025,618.75z"/>
<path fill="#D1D3D4" d="M376.524,734.5c-1-4.5,1.75-37.75,3.25-42.25s6.5-15,13-15.25s11.5-1,13.25,5.25s1.75,15.5,2.25,18.25
	s2.25,13,2.5,17.25s0.75,12.5-2.75,15.25s-10,5.75-15.5,5.75s-11,0.5-13.5-0.5c-2.5-1-4-2.375-0.5-2.375
	c3.5,0,6.625,1.625,14.375,0.875s15.625-4,15.875-9.5c0.238-5.25,0.811-10.016-1-17c-1.75-6.75-0.75-8.25-1.5-14.5
	c-0.561-4.662-0.191-11.254-3-15c-3-4-6.168-3.36-10-2.75c-5.5,0.875-10.5,8.25-11.75,12.75s-1.5,6.875-2,10.625
	s-1,12.625-1.25,17.125s-0.75,11-0.5,12.75s1.75,5.25,0.75,5.25s-2-0.438-2-0.438V734.5z"/>
<path fill="#D1D3D4" d="M408.025,708c0,0,4-14.5,7.75-18.25s7.25-6.25,10.75-5.5s5.75,3.5,8,8.5s3.5,11.25,4,17.5
	s1.25,9.5-0.5,13.75s-3.75,7-7,8.75s-5,5.25-9,4.75s-4.75-0.75-6.75-2.75s-5.25-7-5.25-7s1.25,3.75,5.75,5.75s6.5,3.5,10,1
	s8-3.75,9.5-8s4.25-6.75,2.5-13s-2-12.5-3.5-16.25s-0.75-7.25-4.75-9.5s-6-2.75-9,0.75s-6,6-7.25,10.75s-3,9-3,9l-0.75,5.5
	L408.025,708z"/>
<path fill="#D1D3D4" d="M437.525,706c0,0,2.75-4.25,4.75-8s6.25-8,10-7.25s7.75,4,9.25,9.75s3,9.75,2,16.25s-1.25,10.5-4.5,14
	s-5.5,5.75-7.5,6.75s-4.25-0.25-5.5-2.75s-2.5-5-4-7s-4-3.75-4-3.75s4.25,0.75,6,4s1.25,6.5,4,7s5.75,0.25,8.75-3.5
	s5.25-7.75,5.5-12.5s0.25-9.5-1-14.25s-2.25-8-4.5-10.25s-3-2.5-5.75-2.25s-4.5,2-6.25,4.5s-2.25,4.5-3.5,7s-2,4.25-2,4.25
	l-0.75,2.25L437.525,706z"/>
<path fill="#D1D3D4" d="M463.525,709c0,0,3-1.25,4.25-5.25s1-6.25,3.25-9s3.25-4.5,5.5-3.75s4.5,2.75,5.25,6.75s1.5,9.5,1,15.25
	s-1.75,10.25-3.75,13s-4,5.25-5.5,6s-4,0.5-5.5-1s-3-3.75-4-4s-2.75-1.25-2.75-1.25s5.25,2.25,7.25,3.25s3.75,3,5.5,0.5
	s4.5-3,5.75-8.5s2.25-8.5,2-13.75s-0.75-10-2.5-12.75s-2.5-3-4-2.25s-2.25,2.25-3.5,4.75s-1.5,4.5-2.75,7s-2.25,4.25-3.5,5
	s-2.25,1.5-2.25,1.5L463.525,709z"/>
<path fill="#D1D3D4" d="M482.275,702.5c0,0,1.5-2,3-4.25s2.5-3.75,4.5-3.5s4,1.5,5,2.5s2,3,2.25,6.25s1,8.5,1,10.75s1.25,5,0,8.25
	s-2,6-4.5,6.25s-4,0.75-7,0.5s-4.25-0.75-5.5-1.75s-2-1.5-2-1.5s2.25,1.25,6.25,1.75s6,2,8,0s3.5-1,3.75-5s0.25-5.5,0-8.5
	s-0.25-3.75-0.75-8.25s-0.25-5.25-1.5-6.75s-1.75-2.5-3.5-2.75s-2-1.25-3.5,0.25s-2.5,3.25-3.5,4.5S482.275,702.5,482.275,702.5z"/>
<path fill="#D1D3D4" d="M496.025,699c0,0,1.5-1.5,3.75-3s1.5-3.25,6-3s4.25-0.5,6.25,3.25s2.5,7,2,11.5s1,7.75-1.75,10.5
	s-4,5.25-6.25,5.5s-4,0-5-0.25s-3-1-3-1s1,1.25,4.5,0.5s4,0.5,6-2.25s2.5-1,3.5-5.75s0.5-7,0-9.75s-0.25-5.25-1.25-7.25
	s-0.75-3-3-2.75s-4.75,0.25-5.75,0.75s-3.25,2-3.25,2l-2,2L496.025,699z"/>
<path fill="#D1D3D4" d="M520.025,695.75c0.25,4.25,0.5,4.25,0.25,9.5s-0.75,9-2,10.75s-1,2.75-2.75,3.25s-4.25,0.5-4.25,0.5
	s1.25,0.25,3.25-1.25s2.5-0.25,3-4.25s1-5.25,1-8.5s-0.25-3.75-0.25-5.75s-0.5-4-0.5-4L520.025,695.75z"/>
<path fill="#D1D3D4" d="M519.275,710.5c0,0,1,2.5,2,7.75s1.75,9.25,0.25,13.25s-3,8-4.25,9.25s-2,3.25-3.75,4s-4,0-4,0
	s-0.25,1.25,2.5-0.75s2.25-0.75,5-6s2.75-3.25,3.5-8.25s0.75-6-0.25-8.5s-1.5-3.25-1.75-4.25s-1-2.75-1-2.75L519.275,710.5z"/>
<path fill="#D1D3D4" d="M509.525,720.5c0,0,2.25,5.5,1.75,10.25s-1.5,8.75-3,11.75s-2.5,5-4.5,4.75s-3-0.5-3.75-1.25s-2.75-4-2.75-4
	s2,3.75,4.5,4s3,2,4.25-2.75s1.5-4.25,2.75-8.75s1.25-5.25,0.5-8s-1.25-4.75-1.25-4.75L509.525,720.5z"/>
<path fill="#D1D3D4" d="M497.275,725c0,0,1,5.25,0.5,10s-0.25,5.5-1.25,8.75s-1.5,5.25-3.25,6.5s-3.5,2.75-4.5,2
	s-3.25-2.75-3.25-2.75s3.25,2.5,5,1.25s3-0.75,4-4.5s1.5-5.5,1.75-9.25s0-5.25,0-7.25s-0.25-3.5-0.25-3.5L497.275,725z"/>
<path fill="#D1D3D4" d="M486.525,729.25c0,0,1,5,0,10s-1,7.25-2,11s-1.75,6-4,7.25s-3.25,2.25-4.75,0.5s-2.75-2.5-3.5-4.25
	s-1.5-2.75-2.25-3.25s-1.5-1-1.5-1s3.25,1.25,4.75,3.75s1.25,4.25,3.25,4s4,0.5,5-3.25s2.5-5.25,3-9.5s1.25-7,1-9.75s0-6,0-6
	L486.525,729.25z"/>
<path fill="#D1D3D4" d="M469.025,730.5c0,0-0.25,5.75-0.25,11s-0.25,7-1.5,10.75s-2,5.25-3.25,6.75s-1.75,2.5-3.75,3
	s-2.5,1.5-4.5-0.25s-3.5-2.5-4-5s-1-4.75-1.5-5.75s-1.75-4-1.75-4s1.75,3.5,3,6s1,3.25,2.75,5.5s2,3.5,4.5,2.25s3.75-0.5,4.75-3.25
	s2.5-6.25,2.75-7s2-3.25,1.5-7.5s-0.75-6.5-0.5-8.25s0.5-4.5,0.5-4.5L469.025,730.5z"/>
<path fill="#D1D3D4" d="M449.025,738.25c0,0-0.5,5.25-0.5,8.75s1.25,4.75-1.25,9.25s-3.25,6.75-5.5,8.5s-3.5,3.75-5.5,3.75s-3,0-5-3
	s-2.25-1-4-6s-1.75-6.25-2.5-7s-0.25-0.5-0.75-5s-0.25-7.75-0.25-7.75l-0.25-3c0,0,0.25,1.5,1.5,6.75s-1,3.5,1.5,10.25
	s3,9.25,5.25,11s2.75,3.5,4.75,2.25s3.5-0.75,5.75-4.5s3.25-3,4-7.25s1.25-3,1.25-7.75s-0.25-7.5-0.25-7.5l1-3.75L449.025,738.25z"
	/>
<path fill="#D1D3D4" d="M421.025,737c0,0,0,8,0,10.25s-0.25,3.5-0.25,3.5l4,1.75l-4.5-0.5c0,0-0.75,1.75-2,5s-1.25,4.25-3,6.5
	s-2.75,3.75-4.75,3.5s-3,0.5-4.5-2.25s-2.25-3.25-3.25-5.5s-2-3.75-2-3.75s-0.25,3.75-2,6.75s-0.25,3.75-4.25,6.5
	s-4.5,5.5-7.25,5.25s-3.5-0.75-5.25-2.75s-3-4.25-3.75-7s-2-5.5-2.5-9s0-17.5,0-17.5l2-1.25c0,0-1.25,1-1.25,6.75
	s0.25,7.75,1.25,13.5c1,5.75,0.25,6.5,2.75,10.5s2.75,5.75,5,5.5s2.75,0.75,5.5-2.75s4.25-3.75,5.25-7.5s1.75-4.5,2.75-10.5
	s1-10.75,1-10.75l0.5-6c0,0,0.25,7.75,1.25,12.5s-0.5,6.75,1,9.5s2.25,5.75,4,6.75s3,2,4.5,1s3.5-1.75,4.5-4.75s1.75-4.75,2.5-7.5
	s1.25-4,1.25-8s0-6.25,0-6.25l-0.25-2.25L421.025,737z"/>
<path fill="#D1D3D4" d="M432.998,784.148c-2.297,0.602-3.664-2.16-5.973-1.898c2.775,2.019,4.508,4.34,7.883,2.751
	c0.834-0.394,1.082-1.995,2.117-2.751C435.687,782.919,434.443,783.77,432.998,784.148z"/>
<path fill="#D1D3D4" d="M394.525,793.52c-3.234-0.005-2.344-4.595-5-5.77c0.693,1.851,2.057,3.432,3.273,4.743
	c3.436,3.693,9.135,0.066,10.727-3.743C400.009,789.489,398.068,793.524,394.525,793.52z"/>
<path fill="#D1D3D4" d="M414.996,797.725c-2.098,2.079-3.812,5.789-3.471,9.525c2.354-5.966,3.896-12.516,11-15
	C418.601,791.91,417.009,795.727,414.996,797.725z"/>
<path fill="#D1D3D4" d="M466.269,822.156c-1.688,3.091-8.375,4.729-5.209,8.087c4.652,4.928,12.721-0.551,16.465-5.493
	c-1.18-0.202-2.609,0.902-2.715,0.771c0.213,0.264-21.225,5.926,6.715-13.771C476.214,815.127,469.113,816.944,466.269,822.156z"/>
<path fill="#D1D3D4" d="M408.806,868.379c4.115,0.912,9.027,2.374,12.877-1.446c-8.686,5.128-19.697-0.197-25-8
	C399.197,864.049,403.734,867.255,408.806,868.379z"/>
<path fill="#D1D3D4" d="M388.525,842.25c0,1.334,0,2.666,0,4c0-2.334,0-4.666,0-7C388.525,840.253,388.525,841.244,388.525,842.25z"
	/>
<path fill="#D1D3D4" d="M467.525,669.5c0,6.5,0.25,9.75-0.5,13.75s-1.75,7.25-1.75,7.25s2-10,2-12.5S467.525,669.5,467.525,669.5z"
	/>
<g>
	<path fill="#D1D3D4" d="M444.525,656.25c1,5.5,2.75,9.25,1.25,14.75s-4,10.25-4,10.25s2-6.75,2.5-10.5s0.75-6.25,0.5-9
		s-0.25-4.75-0.25-4.75"/>
</g>
<path fill="#D1D3D4" d="M414.025,654.75c0,0,0.75,4.5,0.25,8.75s-0.5,5.5-1.25,7.25s-2,4-2,4s1.25-3.75,1.75-8.5
	S414.025,654.75,414.025,654.75z"/>
<path fill="#D1D3D4" d="M555.525,623.25c0,0-5,24-8.5,34.25s-6.75,19.75-9.5,26s-6.5,17-9,21s-9,11-9,11l0.25-1.5
	c0,0,8.5-12.25,12.25-22s8.5-20.25,11.75-31.25s8.5-29.75,9.25-33s1.5-4,1.5-4L555.525,623.25z"/>
<g>
	<path fill="#D1D3D4" d="M488.525,666.25c1,5.5,2.75,9.25,1.25,14.75s-4,10.25-4,10.25s2-6.75,2.5-10.5s0.75-6.25,0.5-9
		s-0.25-4.75-0.25-4.75"/>
</g>
<g>
	<path fill="#D1D3D4" d="M501.525,662.25c1,5.5,2.75,9.25,1.25,14.75s-4,10.25-4,10.25s2-6.75,2.5-10.5s0.75-6.25,0.5-9
		s-0.25-4.75-0.25-4.75"/>
</g>
<path fill="#D1D3D4" d="M376.531,655.032c0,0-0.679,4.997-0.709,9.275c-0.032,4.279-0.188,5.021,0.339,6.851
	c0.49,1.697,0.863,4.092,0.863,4.092s0.225-4.751,0.319-9.526C377.435,660.949,376.531,655.032,376.531,655.032z"/>
<g>
	<path fill="#D1D3D4" d="M201.274,377.75c-1.5,2-25.25,16.5-37.25,19s-29,8.5-42-6.5s-20.25-36-21.5-53.25
		c-1.192-16.457-1-25.5,5.5-30.5s10.5-7.75,18-7.75s13,0.5,17,0.5s14-0.5,20-2s10-6,15.5-5c9.095,1.654,9.572,0.68,14.5,13
		c2,5,4.5,9,4,15.5s-2,13-3,15.5s-1.5,9.5-1.5,9.5s3.75-14.5,8.25-19c3.833-3.833,9-3.75,12-4.25s5.75-3.25,5.75-3.25
		s-9.5,3.5-13.5,1s-5.5-7-7.5-12s-4.042-5.992-5-11.5c-1-5.75-1.75-3,1.5-14c2.063-6.982,2.5-9.5,6-13s4-5,7-6.5s8-1,8-1
		s-9,0-11.5-3s-1.25-8.5-0.25-13.5s1.25-5,2.75-8.5s5-11.5,5-11.5s-7,9.5-8.5,16s-1.5,10.5-2,14.5s-2,9-4,13s-3,9.5-6.5,13
		s-7,5.5-11.5,6.5s-6.5,3-13.5,4.5s-15.5,4.5-22.5,4s-17-1.5-21.5,0s-13,6-16,1.5s-2.5-11-2.5-20s-0.5-18.5,3-28.5s4-17.5,8-25
		s6.5-15.5,10-19.5s6.5-8,11-7s7,2,9.5,5.5s5.5,5,6.5,8s4.5,9,4.5,9s-3.5-11.5-8.5-17.5s-8-5.5-11-9.5s-5.5-6.5-3.5-10.5s8-18,13-25
		s12.5-18,17.5-23s9.5-10,13.5-12.5s6.5-4.5,10-4s3.5,4,3.5,7s-0.5,8,2,11s8,4.5,7.5,10s1,10.5,0.5,12.5s-5,7.5-5,7.5l-4,5.5
		c0,0,3.767-5.923,8-6.5c5.5-0.75,2.5-0.75,7.75,0.5c3.799,0.904,7,3.75,7,3.75l8.25,5.25c0,0-12-9.5-15.5-12s-4-1-4-6
		s1-7.5-0.5-11.5s-4.5-6-7-10s-3-6.5-2.5-10s-1-4.5,0-9.5s-2-4,4.5-10s9.5-10,17.5-15.5s13.5-11,20-14.5s12-5,15.5-4.5s6,0,7,4
		s2.5,6,2.5,9.5s0.5,7.5,2,11s3,3,3.5,7s1.5,5,1.5,8s-5,10-5,10s3-5.5,6.5-6.5s4-2.5,7.5-2.5s7.5,0,7.5,0s-9.5,0.5-12.5-2
		s-2.5-6.5-4.5-9.5s-3-4-3.5-8.5s0.5-8.5-1-12.5s-3-4.5-1.5-8.5s-1-5,6-9.5s17.5-9,27.5-13s18.5-6.5,27.5-7s15,0.5,21.5,2.5
		s14,3.5,19,8.5s5,3,8.5,10.5s3.5,7.75,5,15.75c0,0,2,9.25,1.5,16.25s-0.5,9-3.5,11.5s-8.5,5-11,4s-2.5-3.25-3.5-6.25
		s-2-4.75-2-4.75s2.278,8.012,2.5,10c0.25,2.25-1.5,13-1.5,13s0.5-9,4.5-10s5.5-2,9-0.5s4.5,0.5,5.5,5.5s1.25,5.25,1.25,11.25
		s0.75,8.75-1.25,12.25s-3.25,5.75-5.5,6.5c-1.897,0.633-3,1.5-5.5-1s-4-6-4-6s3.25,5,2.25,8s-3.75,10-3.75,10s2.5-9,7.5-9
		s9.75-5.5,10.25-2.5s0.321,11.391-0.25,14.25c-0.5,2.5-2,4.75-4.5,6.75s-5,3.5-5,3.5l11-5.5v-81.5c0,0-2-13.5-4.5-19.5
		s-5-9.5-8.5-12.5s-9-7-11-7.5s-7.5-3-10.5-4s7.5-2.5,14-2.5s10-1,14-1s6.5,0.5,6.5,0.5v-5c0,0-12.5,0.5-27.5,1.5
		s-33.5,2.5-45.5,6.5c-12,4-24.5,9-39.5,15.5s-26,12.5-39.5,21s-25,17-35.5,26.5s-14.5,11-24,21.5s-19.5,23-27,35
		s-12.5,22.5-19.5,37s-8.5,20-13,34.5s-7,23-8.5,44s-2.5,31-2,42.5s3,33,6.5,42.5s9,20,14,25s14,13,20,14.5s12.75,0,22.25-1
		s16.75-4.75,23.75-8.75S201.274,377.75,201.274,377.75z"/>
</g>
<path fill="#D1D3D4" d="M552.054,377.75c1.5,2,25.25,16.5,37.25,19s29,8.5,42-6.5s20.25-36,21.5-53.25c1.193-16.457,1-25.5-5.5-30.5
	s-10.5-7.75-18-7.75s-13,0.5-17,0.5s-14-0.5-20-2s-10-6-15.5-5c-9.094,1.654-9.57,0.68-14.5,13c-2,5-4.5,9-4,15.5s2,13,3,15.5
	s1.5,9.5,1.5,9.5s-3.75-14.5-8.25-19c-3.832-3.833-9-3.75-12-4.25s-5.75-3.25-5.75-3.25s9.5,3.5,13.5,1s5.5-7,7.5-12
	s4.043-5.992,5-11.5c1-5.75,1.75-3-1.5-14c-2.061-6.982-2.5-9.5-6-13s-4-5-7-6.5s-8-1-8-1s9,0,11.5-3s1.25-8.5,0.25-13.5
	s-1.25-5-2.75-8.5s-5-11.5-5-11.5s7,9.5,8.5,16s1.5,10.5,2,14.5s2,9,4,13s3,9.5,6.5,13s7,5.5,11.5,6.5s6.5,3,13.5,4.5
	s15.5,4.5,22.5,4s17-1.5,21.5,0s13,6,16,1.5s2.5-11,2.5-20s0.5-18.5-3-28.5s-4-17.5-8-25s-6.5-15.5-10-19.5s-6.5-8-11-7
	s-7,2-9.5,5.5s-5.5,5-6.5,8s-4.5,9-4.5,9s3.5-11.5,8.5-17.5s8-5.5,11-9.5s5.5-6.5,3.5-10.5s-8-18-13-25s-12.5-18-17.5-23
	s-9.5-10-13.5-12.5s-6.5-4.5-10-4s-3.5,4-3.5,7s0.5,8-2,11s-8,4.5-7.5,10s-1,10.5-0.5,12.5s5,7.5,5,7.5l4,5.5c0,0-3.766-5.923-8-6.5
	c-5.5-0.75-2.5-0.75-7.75,0.5c-3.799,0.904-7,3.75-7,3.75l-8.25,5.25c0,0,12-9.5,15.5-12s4-1,4-6s-1-7.5,0.5-11.5s4.5-6,7-10
	s3-6.5,2.5-10s1-4.5,0-9.5s2-4-4.5-10s-9.5-10-17.5-15.5s-13.5-11-20-14.5s-12-5-15.5-4.5s-6,0-7,4s-2.5,6-2.5,9.5s-0.5,7.5-2,11
	s-2.25,1.5-2.75,5.5s-1.5,5-1.5,8s5,10,5,10s-3-5.5-6.5-6.5s-4-2.5-7.5-2.5s-7.5,0-7.5,0s9.5,0.5,12.5-2s1.75-5,3.75-8s3-4,3.5-8.5
	s-0.5-8.5,1-12.5s4.5-7,3-11s-0.5-2.5-7.5-7s-17.5-9-27.5-13s-18.5-6.5-27.5-7s-15,0.5-21.5,2.5s-14,3.5-19,8.5s-5,3-8.5,10.5
	s-3.5,7.75-5,15.75c0,0-2,9.25-1.5,16.25s0.5,9,3.5,11.5s13.25,11.75,15.75,10.75s2.5-3.25,3.5-6.25s2-4.75,2-4.75
	s-2.277,8.012-2.5,10c-0.25,2.25,1.5,13,1.5,13s-0.5-9-4.5-10s-10.25-8.75-13.75-7.25s-4.5,0.5-5.5,5.5s-1.25,5.25-1.25,11.25
	s-0.75,8.75,1.25,12.25s3.25,5.75,5.5,6.5c1.898,0.633,10.75,7.25,13.25,4.75s4-6,4-6s-3.25,5-2.25,8s3.75,10,3.75,10s-2.5-9-7.5-9
	s-17.5-11.25-18-8.25s-0.32,11.391,0.25,14.25c0.5,2.5,2,4.75,4.5,6.75s9,6,9,6l-15-8v-81.5c0,0,2-13.5,4.5-19.5s5-9.5,8.5-12.5
	s9-7,11-7.5s7.5-3,10.5-4s-7.5-2.5-14-2.5s-10-1-14-1s-6.5,0.5-6.5,0.5v-5c0,0,12.5,0.5,27.5,1.5s33.5,2.5,45.5,6.5
	s24.5,9,39.5,15.5s26,12.5,39.5,21s25,17,35.5,26.5s14.5,11,24,21.5s19.5,23,27,35s12.5,22.5,19.5,37s8.5,20,13,34.5s7,23,8.5,44
	s2.5,31,2,42.5s-3,33-6.5,42.5s-9,20-14,25s-14,13-20,14.5s-12.75,0-22.25-1s-16.75-4.75-23.75-8.75S552.054,377.75,552.054,377.75z
	"/>
<g>
	<g>
		<path fill="#D1D3D4" d="M376.524,286.375c0,0-2.75,0.625-4.75-2.125s-2.875-5-5-7.875s-6.5-5.125-8.5-10.25s-3-6.625-2.625-11.625
			s2-8.125,5.625-13.375s5.5-7.75,6.375-12.125s1.75-9.875,0.75-15.625s-5.875-13.125-8.25-16.125s-11-7-16.625-7.5
			s-15.75-0.875-22.5-1.875s-12.75-3.375-19.875-5.875c-7.125-2.5-15.125-5.125-18.875-6.875s-8.375-4-10.875-3.625s-4.5,1.5-3.75,3
			s3.625,3.375,5.625,4.5s6.75,4.125,11.875,7.25s11.375,7.75,16.125,10.875s14.875,11.375,17.375,16.25s5,10.625,5.625,15.75
			s2.25,10.75,2.875,16.125s1.5,11.625,2.25,15s1.875,5.875,3.375,8.875s7.875,10.5,11.625,13.125s8.5,5.375,10.625,7.125
			s4.875,5.125,6.5,8.75s4.125,8.75,5.75,14.125s1.75,8.25,2.5,13.875s1.125,8.125,2,13.875s1.5,13.75,2.25,18.375
			s1.125,9.125,1.5,13.875s1,23.125,1,23.125v-22.5c0,0-0.75-15.625-1.125-19.125s-2.375-20.375-3.25-25.875s-3.5-17.25-5.75-22.875
			s-3.875-9.75-7.375-13.875s-13.25-9.375-16.5-12.875s-7.75-9.25-8.875-12.875s-2.5-5.625-3.625-13.875s-2-15-3-21.375
			s-4.25-13.75-7-17.875s-5.75-7.625-10.5-11c-4.75-3.375-10.375-7.625-15.875-11s-11.375-7-14.375-8.875s-8.375-4.375-9.375-5.625
			s-1.875-2.625-0.375-3s3.875-0.5,7.25,1.125s9.875,4.25,14.125,6s9.5,4,13.375,5.25c3.875,1.25,18,4.375,23.875,4.75
			s14.125,1.125,19.25,2.75s10.375,2.125,14,8.375s5.5,12.625,5.5,18.25s-1.25,11.125-2.875,14.375s-4.625,6.625-7,9.875
			s-4.25,8-4,11.625s2.375,10.375,4.375,13.25s4,4.75,5.5,6s2.625,2.875,4,5s3.5,5.75,4.875,6.875s2.75,1.5,3.375,1.75
			s1.375,0.25,1.375,0.25V286.375z"/>
	</g>
</g>
<g>
	<g>
		<path fill="#D1D3D4" d="M376.244,286.375c0,0,2.75,0.625,4.75-2.125s2.875-5,5-7.875s6.5-5.125,8.5-10.25s3-6.625,2.625-11.625
			s-2-8.125-5.625-13.375s-5.5-7.75-6.375-12.125s-1.75-9.875-0.75-15.625s5.875-13.125,8.25-16.125s11-7,16.625-7.5
			s15.75-0.875,22.5-1.875s12.75-3.375,19.875-5.875s15.125-5.125,18.875-6.875s8.375-4,10.875-3.625s4.5,1.5,3.75,3
			s-3.625,3.375-5.625,4.5s-6.75,4.125-11.875,7.25s-11.375,7.75-16.125,10.875s-14.875,11.375-17.375,16.25s-5,10.625-5.625,15.75
			s-2.25,10.75-2.875,16.125s-1.5,11.625-2.25,15s-1.875,5.875-3.375,8.875s-7.875,10.5-11.625,13.125s-8.5,5.375-10.625,7.125
			s-4.875,5.125-6.5,8.75s-4.125,8.75-5.75,14.125s-1.75,8.25-2.5,13.875s-1.125,8.125-2,13.875s-1.5,13.75-2.25,18.375
			s-1.125,9.125-1.5,13.875c-0.375,4.75-1,23.125-1,23.125v-22.5c0,0,0.75-15.625,1.125-19.125c0.375-3.5,2.375-20.375,3.25-25.875
			s3.5-17.25,5.75-22.875s3.875-9.75,7.375-13.875s13.25-9.375,16.5-12.875s7.75-9.25,8.875-12.875s2.5-5.625,3.625-13.875
			s2-15,3-21.375s4.25-13.75,7-17.875s5.75-7.625,10.5-11s10.375-7.625,15.875-11s11.375-7,14.375-8.875s8.375-4.375,9.375-5.625
			s1.875-2.625,0.375-3s-3.875-0.5-7.25,1.125s-9.875,4.25-14.125,6s-9.5,4-13.375,5.25s-18,4.375-23.875,4.75
			s-14.125,1.125-19.25,2.75s-10.375,2.125-14,8.375s-5.5,12.625-5.5,18.25s1.25,11.125,2.875,14.375s4.625,6.625,7,9.875
			s4.25,8,4,11.625s-2.375,10.375-4.375,13.25s-4,4.75-5.5,6s-2.625,2.875-4,5s-3.5,5.75-4.875,6.875s-2.75,1.5-3.375,1.75
			c-0.625,0.25-1.375,0.25-1.375,0.25V286.375z"/>
	</g>
</g>
<path fill="#D1D3D4" d="M376.524,252.25c0,0-1.5-22-2.75-31.25s-2-16.25-3.25-19.25s-1.75-4.75-3-6s-3.125-2.625-3.125-2.625
	s5.625,1.625,8.875,1.625s5.75,0.5,7.5,0s6.375-1.875,6.375-1.875s-3.375,3.875-5.125,8.875s-3,7.75-3.5,12.25s-1.25,8-1.25,12
	s-0.75,25-0.75,25s-0.5-33.25,1-39c1.5-5.75,2.75-10,4-12s2.75-5.125,2.75-5.125s-4.25,0.75-6,0.875c-1.747,0.125-3.5,0-5.25-0.25
	s-3.75,0-3.75,0s1.5,2,2.75,6.5s1.75,8.25,2.25,12.75s1.5,11.25,1.5,15.5S376.524,252.25,376.524,252.25z"/>
<g>
	<path fill="#D1D3D4" d="M109.024,506.75c0,0-4-3.5-5-10.5s-2-15-3-21s-8.5-17.5-13-30.5s-14-44-15.5-57.5s-4.5-34.5-2.5-61.5
		s5-66,11-84.5s18.5-55,26.5-69.5s17.5-35.5,39-59.5s43.5-43.5,63.5-54.5s67-30.5,93.5-36c26.5-5.5,51.5-9,73-9c21.5,0,0,3,0,3
		s-23-0.5-40.5,3s-48,9.5-65.5,16s-18.5,5.5-35,13.5s-34.5,18-43,25s-19,16.5-27.5,24s-20,18-29,31s-19,28.5-26,44
		s-14.5,31.5-19.5,48.5s-7.5,19.5-11,43.5s-5.5,36.5-6,53s0,37,1.5,53.5s5,37.5,9.5,53s15,34.5,17.5,43.5s2.5,13,3,18.5
		s1.5,8,2.5,11.5s3.5,7.5,3.5,7.5L109.024,506.75z"/>
	<path fill="#D1D3D4" d="M72.524,442.25l-15.5-30c0,0,3,4.25,4.75,3s0.25-11-0.5-14.75s-3.75-16.75-4.75-36.5s-1.5-53,0.25-73.75
		s9-57,16-77s22.75-53.75,33.25-71.25s30.25-46.25,47.25-60s44.5-32,62.5-41s35.25-18,61-25s43.5-10.25,57.25-12.25
		s20.25-3.25,27.5-3.5s-0.75-0.25,15-0.25c15.75,0,9.5,2.25,0,2.25c-9.5,0-32,2.5-44.25,4.5s-34.5,6.25-50.25,10.75
		s-40,13.75-53.75,20.5s-32,16.25-45.75,25.75s-21.5,13.75-34,27s-24.25,26.75-32,39.25s-18,30-23.75,43.25s-15.5,32-19.25,45.25
		s-10.5,35-12,49.5s-4.75,30-4.5,52s0.75,37,1.75,47.25s3,23.75,4.25,34.5s0.75,12.75,2.25,18.75s3.25,11,4.5,14
		S72.524,442.25,72.524,442.25z"/>
</g>
<path fill="#D1D3D4" d="M645.525,506.877c0,0,4-3.5,5-10.5s2-15,3-21s8.5-17.5,13-30.5s14-44,15.5-57.5s4.5-34.5,2.5-61.5
	s-5-66-11-84.5s-18.5-55-26.5-69.5s-17.5-35.5-39-59.5s-43.5-43.5-63.5-54.5s-67-30.5-93.5-36s-51.5-9-73-9c-21.5,0,0,3,0,3
	s23-0.5,40.5,3s48,9.5,65.5,16s18.5,5.5,35,13.5s34.5,18,43,25s19,16.5,27.5,24s20,18,29,31s19,28.5,26,44s14.5,31.5,19.5,48.5
	s7.5,19.5,11,43.5s5.5,36.5,6,53s0,37-1.5,53.5s-5,37.5-9.5,53s-15,34.5-17.5,43.5s-2.5,13-3,18.5s-1.5,8-2.5,11.5s-3.5,7.5-3.5,7.5
	L645.525,506.877z"/>
<path fill="#D1D3D4" d="M682.025,436.377l15.5-30c0,0-3,4.25-4.75,3s-0.25-11,0.5-14.75s3.75-10.75,4.75-30.5s1.5-53-0.25-73.75
	s-9-57-16-77s-22.75-53.75-33.25-71.25s-30.25-46.25-47.25-60s-44.5-32-62.5-41s-35.25-18-61-25s-43.5-10.25-57.25-12.25
	s-20.25-3.25-27.5-3.5s0.75-0.25-15-0.25c-15.75,0-9.5,2.25,0,2.25c9.5,0,32,2.5,44.25,4.5s34.5,6.25,50.25,10.75
	s40,13.75,53.75,20.5s32,16.25,45.75,25.75s21.5,13.75,34,27s24.25,26.75,32,39.25s18,30,23.75,43.25s15.5,32,19.25,45.25
	s10.5,35,12,49.5s4.75,30,4.5,52s-0.75,37-1.75,47.25s-3,17.75-4.25,28.5s-0.75,12.75-2.25,18.75s-3.25,11-4.5,14
	S682.025,436.377,682.025,436.377z"/>
<path fill="#D1D3D4" d="M153.024,806.25c0,0,1.5,45.5,1,64.5s-0.5,34.5-6,51.5s-15,36-23.5,48s-23.5,32-33.5,42s-24,23.5-32.5,31.5
	s-24.5,21.5-24.5,21.5s42.5-35,53-45.5s27.5-30.5,36.5-44s24.5-35.5,30-65s4.5-47,4-60s-2-40-2-40L153.024,806.25z"/>
<g>
	<path fill="#D1D3D4" d="M175.024,853.25c0,0,6,24.5,10.5,38s11.5,33.5,11.5,33.5L175.024,853.25z"/>
	<g>
		<path fill="#D1D3D4" d="M199.524,891.25c0,0,15.5,66,21.5,82s30.5,79,30.5,79s-22.5-61-27.5-76.5S199.524,891.25,199.524,891.25z"
			/>
		<path fill="#D1D3D4" d="M376.524,965.75v-2.5c0,0-2.25-1.75-3.5-10s-3.75-16.75-7.25-21.25s-15.5-9-20.25-10.25
			s-18.75-4.75-29.5-3.5c-10.75,1.25-20.25,4-23.75,6.5s-7.75,6.75-7,14s1.75,14.25,5.25,19.5s7.75,12.75,10.25,18.5
			s5.25,9.75,6.75,15.75c1.5,6,1.75,8.5,1.75,12s0.75-8.5-1-14c-1.75-5.5-6.5-18.5-11.25-26.25s-8.75-14.25-9.25-20
			s-1.25-10,1.25-13.25s5-6,11-7.5s14-3.25,20.25-3.25s15.75,1.5,22,3s15.25,3.75,20.25,8s5.25,6.25,7,12.75s2.5,13.75,3.75,15.75
			s1.25,3.75,1.75,4.75S376.524,965.75,376.524,965.75z"/>
		<path fill="#D1D3D4" d="M336.274,938.5c0,0,13,2.5,17.5,8.75s8,11.5,10,17s3.5,7.5,3.75,12.5s0.25,8.5,0.25,8.5s-1.25-12-4-18.25
			s-4.5-9-8-14s-4.5-7-8.25-9.25S336.274,938.5,336.274,938.5z"/>
		<path fill="#D1D3D4" d="M330.024,936.75c0,0-10-3.25-15.5-3.25s-11,0-12.25,5.25s-1.25,8.75-0.25,12.75s2,6.75,3.75,11.25
			c1.75,4.5,3,8.75,3,8.75s-5.25-14.5-5.75-19.75s-1.25-9.25,0.5-12s1.25-3.75,4.25-4.5c3-0.75,4.5-1,7.25-0.5s2.5,0.5,6.25,1
			S330.024,936.75,330.024,936.75z"/>
		<path fill="#D1D3D4" d="M297.024,967.5c0,0,2.25,20.5,1.5,29s-1.5,17-1,23.75s1.75,18.25,3.75,21.75s4.75,7,8,7.5
			c3.25,0.5,4.75,0.5,5-2.25s-0.75-12-0.75-16.5s0.25-9.25,1.25-12.5s3.25-9.25,3.25-9.25s-4,4.5-5.25,9s-1.75,12.25-1,16.5
			s0.5,9.75,0.25,11.5s-3.25,3-5.75-0.25c-2.5-3.25-4.75-10.25-5.5-16.25s-1.25-16.5-0.75-23.25s0.5-20.25,0.25-24
			s-0.5-9.25-0.5-9.25L297.024,967.5z"/>
		<path fill="#D1D3D4" d="M312.774,1023.5c0,0,6.75,0.5,9.25,3s7,8,12,9.5s9,2.5,13.75,2.5s10.25,0.25,13.75,2.5s5.25,4,8.25,5
			s6.75,0.75,6.75,0.75v1.5c0,0-3.5,0.5-6-0.5s-5.75-3-8.5-4.5s-5.5-2.75-9.5-3s-8.75,0.25-10.75,0.25s-4,3,1.75,10.25
			s11.756,12.754,15.5,15c3.75,2.25,5.302,3.139,10.75,4.5c3,0.75,2.75,1.25,6.75,1.25c4,0,3.5,1,0,1c-3.5,0-10.75-1.25-15.75-4.25
			s-13.25-10.25-15.875-13.5c-1.555-1.924-4.057-5.777-5.25-8.812c-0.815-2.071-0.963-3.774-1.875-4.688
			c-2.25-2.25-3.5-2.75-5.75-4.25s-4-2.75-6-4.5s-2.5-2-2.5,1s0,9.75-1,13.75s-2.75,7.25-2.75,12.25s-0.5,14.25,4.5,20.25
			s9,10.25,14.75,12s14.25,5.25,18.5,7s7,4,10.5,4.5s4,0.25,8.5,0.25c4.5,0,4,1.5,0,1.5c-4,0-12.25-0.5-17.5-3.5s-7.25-4-11-5
			s-4.75-1.25-6.5-1.75s-2.75,1.5,1.75,5.25s7.75,7.5,12,9s5.75,2.5,11.5,3s4.25,0,9.75,0c5.5,0,6.5,2.5,0,2.5
			c-6.5,0-12.25,0.75-18.25-2.25s-8.75-4.5-13-8.25s-4-6.75-7.25-9.25s-4.5-1.5-7.5-4s-6.75-5.5-9.25-11.25s-4.75-9.25-4.25-15.75
			s1.75-11.25,3-14.5s2.5-6.75,2.25-11.25s1.25-5-0.5-7.75s-2-4-4.25-4.5s-4.75-0.25-4.75-0.25V1023.5z"/>
		<path fill="#D1D3D4" d="M287.274,932.25c0,0-6.5-10.75-7.5-20.75s-1.75-18.25,0.5-20.75s6-4.25,8.25,3s4.25,12.75,6.25,17.25
			s7,11.25,7,11.25l-1.75,0.5c0,0-6.5-9-8.25-14.25s-4-12.25-5.5-15.25s-1.5-3.25-3-2.75s-2.75,1.25-2.75,4.25
			s0.25,12.25,1.25,17.25s2.25,8.5,3.5,12s3,6.25,3,6.25L287.274,932.25z"/>
		<path fill="#D1D3D4" d="M266.024,892.75c0,0-5,3.5-5.75,7.75s-2.5,7,1,9.5s3.5,2.75,7.75,3.5s6.75,0.5,8.75,1.75s3.5,3,2,5.5
			s-3.5,8.5-7.75,11s-14.75,7.5-18.75,8.75s-8,6.25-8,10s1.75,6.5,2.75,9.5s-0.75,4.5,3.75,6s8,1.75,11,0s5-3,9-3s5.25-0.75,9,1
			s4.25,2.5,6.75,3.5s7.25,1.25,7.25,1.25s-3.5-1.75-8.25-4s-5.5-4.5-11.25-4s-4.75,1.25-9.75,2.25s-3.75,2.25-7.5,2
			s-6.5,0.75-7.5-2s-1.75-3.75-2.5-6.5s-3-4.75-0.75-8s3-5,7-6.75s5.25-1.75,9-3.5s6.75-2.5,10-5.5s6-7.25,7-10.25
			s1.75-7.5-1.75-8.5s-6.75-2-9.25-2.5s-5.25-0.25-6.75-2.75s-1.5-4.75-0.75-7s1.25-4.25,2.5-5.5s2.5-2.75,2.5-2.75L266.024,892.75z
			"/>
		<path fill="#D1D3D4" d="M267.024,963.25c0,0,0.25,7.75-1.5,10.5s-4,7.25-6.5,8.25s-8.25,2.25-10.5,3.25s-6,1.75-6.75,5.5
			s-0.25,8.5,1,12.5s2,7.25,4.5,8.5s3.5,2.25,6.25,1s2.5-2.5,4.5-3.75s0.75-1.75,4-1.25s5,0.25,7.25,2.75s4.25,4.25,6.75,6.25
			s4,3.25,7.75,4s5.25,1.25,7.75,1s6.75-1.5,6.75-1.5s-4,1.25-8.5,0.25s-9-2-12-4.75s-4.5-5-7.5-6.5s-5.75-2-8-2.5s-3.5-0.25-3-2.5
			s1.5-2.75,2.25-4.75s0.75-3.25,1.75-4.25s-2.75,4.5-3.75,6.25s-0.75,3-1.5,4.75s-1.75,3.25-3.75,4.25s-5.75,1.75-7-1.25
			s-2.75-4-3.25-6.5s-1.75-6-1.25-8.5s-0.5-3.25,3.25-5.5s7.25-3,10.25-4.25s5.25-2.5,7.25-5.25s3.25-5,3.75-7.5
			S267.024,963.25,267.024,963.25z"/>
		<path fill="#D1D3D4" d="M291.024,982.5c0,0-6.5-0.75-9.25,2s-4.75,4-4.5,7s2,6.5,5.5,7.5s6.75,1.5,9.5,1s7.5-2.75,7.5-2.75
			s-6.5,2.75-11.5,1.5s-7.5-1.75-8.5-4.5s-1.5-2.75,0-5.25s1.75-3.75,4-4.5S291.024,982.5,291.024,982.5z"/>
		<path fill="#D1D3D4" d="M260.024,1007.25c0,0,4,3,2.5,7.75s-2.25,8-5.25,9.75s-7.5,4.25-10.5,5.5s-9.5,3.5-12,6.75
			s-4,5.5-3.75,8.75s0.75,5.75,2.5,7s3,2.5,3,5s0.5,7.5,0.5,7.5s-4.75,1.75-6.75,3.75s-4,4-4.5,7.25s-0.25,5.5,1.25,6.25
			s3.75,1.25,4,3.25s0,6.5,0.5,9.5s0.75,7,3.75,8.5s5.5,2,7.25,1.5s3.75-2.25,3.75-2.25s-0.25,2.75,1,4.75s0,3.75,3.5,3.5
			s4.5-1,8-2.25s3.5-2.25,7.75-1.75s5.5-0.25,10,2s6,3,8.5,4s3.25,1,5.5,0.5s3.5-1.5,5-0.25s3.5,3.25,4.25,5.75s2,7.75,4.25,10
			s4,3.25,6.75,3.75s3.25,1,6.5,1.25s7.5,0.25,7.5,0.25s-12-0.75-16-4c-4-3.25-4-3.5-5.5-7.25s-2-5.5-4.25-8.25s-2.5-4.5-6-4
			s-6.5,1.75-9.75-0.5s-6.5-4.25-10-4.5s-8.25,0-9.5-0.5s-1.75-1.5-0.25-3.25s3-3.75,4.5-5.25s2.25-2.25,2.25-4.5
			s-0.25,1.25-2.5,3.5s-4,4.25-5.5,6.25s-1.75,4-4.5,5.25s-4.5,3-6.25,2s-3.5-1.75-3-4.5s2.25-7.5,4.5-10.5s3.75-5.5,5.75-7.75
			s2.25-2.5,4-3.5s4.5-2,4.5-2s-7.5,2.5-9.5,4.75s-3.5,4.5-5.25,7.25s-2,4.75-4.25,6.75s-3,3.5-6,3.5s-5.25,1.25-7-2
			s-2.75-4.5-2.75-7.75s0.75-6.75-1-9.25s-3.75-2.25-4.25-5s-0.75-4.25,1.25-6.75s2.25-4,4.75-4.5s3-2.5,4-0.75s-1,4.75,2.5,5
			s8.25-0.5,10.25-2.5s3.75-5,6.25-7.25s5-3.75,8-3s7.25,3.5,10.25,5.5s4,3.75,7.75,6.75s5,5,10.5,6s7.5,1.25,12,0
			c4.5-1.25,4.75-2.5,7.5-4s6-4.25,6-4.25l-0.25-2c0,0-1.5,2.5-6.25,5s-5,4.75-10,4.5s-7,0.75-11.5-2s-5.5-2.75-10-6.75
			s-5.75-6.25-8.75-7.5s-4.5-2.75-7-3s-3.5,0.25-5,0.75s-2-1-0.25-2.75s3.25-4,5-6s2.5-3.5,4.5-4.75s5-3.25,5-3.25
			s-9,4.75-11.75,8.25s-4.25,4.75-6,8s-1.75,4.25-4,7s-4.25,4.25-6.5,5s-4.75,2.5-5.75,0.5s-0.75-3-1.5-5.75s-0.5-6.25-0.5-8
			s-2.25-4.5-3.25-5.75s-3-2.5-2-6.5s2.25-6.25,5-8s5-3,9.75-5s9.25-3.75,11-5.5s3.5-3.5,4.5-6.5s1.5-6.25,1-8.25
			s-1.75-3.75-1.75-3.75L260.024,1007.25z"/>
		<path fill="#D1D3D4" d="M296.524,1035.75c0,0-8.25-0.5-10.75,4.5s-3,6.75-1.5,9.75s5,4,10,4.25s8.5-1,10.25-1.25s5-1.25,5-1.25
			s-6.75,2.25-12,1.75s-8,0.5-10-2.5s-3.5-3.75-2.25-6.5s-0.25-4,3.25-5.5s3.5-2.25,5-2.25S296.524,1035.75,296.524,1035.75z"/>
		<path fill="#D1D3D4" d="M298.274,1083.25c0,0-9.75,0-12.5,3.75s-1.5,5.75,0.5,7.5s6,3.25,9.75,2.75s5.5-1.25,8-0.25
			s5.25,1.75,7,4.5s2.25,3.75,4.5,5.25s2.5,1.75,5.25,2.5s5.75,0.75,5.75,0.75s-6-1.5-9-4s-3.25-3.5-5.25-5.5s-2.75-3.75-5.75-4.75
			c-3-1-3.75-1.25-6.5-1s-5.25,1.75-7.5,0.75s-4.25-0.75-5.5-2.75s-1-3.25,0-4.75s1.5-2,4-2.75s3.25-1,4.25-1
			S298.274,1083.25,298.274,1083.25z"/>
		<path fill="#D1D3D4" d="M329.774,1089c0,0-0.75,13,0,18.75s0.5,8.75,4.5,13.25s8.5,7.25,12.75,9.75s7.75,4.5,12.5,5.75
			s10.25,1.75,10.25,1.75l6.75,0.25v-2.5c0,0-4.5,0-9-0.5s-10.75-1.25-14.75-3.75s-9-4.25-12-7.25s-6-3.25-7.25-8
			s-2.25-7.75-2.25-12.25s0.25-14,0.25-14L329.774,1089z"/>
		<path fill="#D1D3D4" d="M338.024,1126.25c0,0,0.5,6,5.5,8.5s9.75,6,15.25,7.25s6.75,2,9.75,2s6.5,0.25,6.5,0.25l1.5,0.25v-2
			c0,0-7.25,0.5-12.5-1s-9.5-1.75-13.75-4.25s-5.5-2.25-8-5S338.024,1126.25,338.024,1126.25z"/>
		<path fill="#D1D3D4" d="M336.274,1122.5c0,0-1.5-0.25-2.5,2.25s-1.25,4.25-1.25,8s-1.25,10.75-0.5,12.75s2.5,6,5.75,8.75
			s7,5,10.5,6.75s8,3.75,11.5,4.75s6.25,1.75,9,2s7.75,0.5,7.75,0.5V1166c0,0-9,0.5-15.5-1.75s-10.75-3.5-15.5-6.75
			s-8-3.75-9.75-7.5s-2.75-6.5-2.5-9.75s0.5-8.25,1-11s1-4,1.75-4.5s2.25-1,2.25-1L336.274,1122.5z"/>
		<path fill="#D1D3D4" d="M333.774,1148c0,0-1,5.25-1,7.5s1,2.75,0,5s-0.75,3-0.75,6.5s-0.25,5.25,0.25,7.25s0.75,3,1,4.5
			s0.25,3.5-0.25,4.5s-2,2.25-2.25,4.5s-0.75,12.25-0.5,14.25s0.75,4,1.75,5.25s0,2.75-0.5,3.5s-0.75,4.75-1,7.75
			s0.25,9.75,0.25,9.75s0-13.75,1-15.5s0.25-2.75,3.25-1.75s3.75,2.25,6.75,4.5s5.25,3.5,10.25,5.75s8.5,3.5,13.25,4
			s11.25,0.5,11.25,0.5v-2c0,0-2.75,1.25-9.5,0.25s-11-2.5-15.75-5s-6-3.5-9.25-6s-5.25-2.75-7-5s-2.75-6-2.75-10.25
			s-0.75-7.5,0.25-9s1.5-2.5,3-0.5s6,5.5,10,7.5s7.25,5,14,6.25s6.75,0.75,10.75,0.75s6.25,0,6.25,0V1201h-11.75c0,0-1,0.75-6.75-1
			s-8.5-3.75-11.5-5.25s-5-3.25-6.75-4.5s-4-1.5-4.75-3.5s-1.75-3.25-0.25-4.5s1.5-2.5,4.5-0.25s5.5,3.5,9,5.5s5.5,4.25,11,5.5
			s12.75,1.75,15,1.75s2.25,0,2.25,0.25s0-1.75,0-1.75s-3.5,0-6.5,0s-5.5,0-10-1.75s-7.5-3-9.75-4.5s-5.25-2.75-7.5-4.5
			s-4.25-2.5-5.5-3.5s-2.75-1.75-3-4s-0.5-2.75-0.5-5.75s0.5-4.75,0.75-5.75s1.25-1.75,4.5,0s5.75,3.5,10.25,5.75s6,3.25,10.75,4.25
			s8.5,1,11,1s5.5,0,5.5,0v-1.75c0,0-4.5,0.25-10-0.5s-11-1.75-14.75-3.75s-8.5-5-11-6.5s-4.5-0.75-5.25-3.75s-1.75-3-0.75-4.5
			s1.75-1.75,1.75-1.75L333.774,1148z"/>
	</g>
</g>
<path fill="#D1D3D4" d="M578.025,853.25c0,0-6,24.5-10.5,38s-11.5,33.5-11.5,33.5L578.025,853.25z"/>
<path fill="#D1D3D4" d="M553.525,891.25c0,0-15.5,66-21.5,82s-30.5,79-30.5,79s22.5-61,27.5-76.5S553.525,891.25,553.525,891.25z"/>
<path fill="#D1D3D4" d="M376.524,965.75v-2.5c0,0,2.25-1.75,3.5-10s3.75-16.75,7.25-21.25s15.5-9,20.25-10.25s18.75-4.75,29.5-3.5
	s20.25,4,23.75,6.5s7.75,6.75,7,14s-1.75,14.25-5.25,19.5s-7.75,12.75-10.25,18.5s-5.25,9.75-6.75,15.75s-1.75,8.5-1.75,12
	s-0.75-8.5,1-14s6.5-18.5,11.25-26.25s8.75-14.25,9.25-20s1.25-10-1.25-13.25s-5-6-11-7.5s-14-3.25-20.25-3.25s-15.75,1.5-22,3
	s-15.25,3.75-20.25,8s-5.25,6.25-7,12.75s-2.5,13.75-3.75,15.75s-1.25,3.75-1.75,4.75S376.524,965.75,376.524,965.75z"/>
<path fill="#D1D3D4" d="M416.775,938.5c0,0-13,2.5-17.5,8.75s-8.5,10.25-10.5,15.75s-4,12.25-4.25,17.25s-0.5,27.75-0.5,27.75
	s0.639-16.486,2.234-28.752c0.75-5.763,2.295-10.01,3.016-12.248c2.09-6.501,4.5-9,8-14s4.5-7,8.25-9.25
	S416.775,938.5,416.775,938.5z"/>
<path fill="#D1D3D4" d="M423.025,936.75c0,0,10-3.25,15.5-3.25s11,0,12.25,5.25s1.25,8.75,0.25,12.75s-2,6.75-3.75,11.25
	s-3,8.75-3,8.75s5.25-14.5,5.75-19.75s1.25-9.25-0.5-12s-1.25-3.75-4.25-4.5s-4.5-1-7.25-0.5s-2.5,0.5-6.25,1
	S423.025,936.75,423.025,936.75z"/>
<path fill="#D1D3D4" d="M456.025,967.5c0,0-2.25,20.5-1.5,29s1.5,17,1,23.75s-1.75,18.25-3.75,21.75s-4.75,7-8,7.5s-4.75,0.5-5-2.25
	s0.75-12,0.75-16.5s-0.25-9.25-1.25-12.5s-3.25-9.25-3.25-9.25s4,4.5,5.25,9s1.75,12.25,1,16.5s-0.5,9.75-0.25,11.5
	s3.25,3,5.75-0.25s4.75-10.25,5.5-16.25s1.25-16.5,0.75-23.25s-0.5-20.25-0.25-24s0.5-9.25,0.5-9.25L456.025,967.5z"/>
<path fill="#D1D3D4" d="M440.275,1023.5c0,0-6.75,0.5-9.25,3s-7,8-12,9.5s-9,2.5-13.75,2.5s-10.25,0.25-13.75,2.5s-5.25,4-8.25,5
	s-6.75,0.75-6.75,0.75v1.5c0,0,3.5,0.5,6-0.5s5.75-3,8.5-4.5s5.5-2.75,9.5-3s8.75,0.25,10.75,0.25s4,3-1.75,10.25
	s-11.758,12.754-15.5,15c-3.75,2.25-5.303,3.139-10.75,4.5c-3,0.75-2.75,1.25-6.75,1.25c-4,0-3.5,1,0,1c3.5,0,10.75-1.25,15.75-4.25
	s13.25-10.25,15.875-13.5c1.553-1.924,4.057-5.777,5.25-8.812c0.812-2.071,0.963-3.774,1.875-4.688c2.25-2.25,3.5-2.75,5.75-4.25
	s4-2.75,6-4.5s2.5-2,2.5,1s0,9.75,1,13.75s2.75,7.25,2.75,12.25s0.5,14.25-4.5,20.25s-9,10.25-14.75,12s-14.25,5.25-18.5,7
	s-7,4-10.5,4.5s-4,0.25-8.5,0.25c-4.5,0-4,1.5,0,1.5c4,0,12.25-0.5,17.5-3.5s7.25-4,11-5s4.75-1.25,6.5-1.75s2.75,1.5-1.75,5.25
	s-7.75,7.5-12,9s-5.75,2.5-11.5,3s-4.25,0-9.75,0c-5.5,0-6.5,2.5,0,2.5c6.5,0,12.25,0.75,18.25-2.25s8.75-4.5,13-8.25
	s4-6.75,7.25-9.25s4.5-1.5,7.5-4s6.75-5.5,9.25-11.25s4.75-9.25,4.25-15.75s-1.75-11.25-3-14.5s-2.5-6.75-2.25-11.25
	s-1.25-5,0.5-7.75s2-4,4.25-4.5s4.75-0.25,4.75-0.25V1023.5z"/>
<path fill="#D1D3D4" d="M465.775,932.25c0,0,6.5-10.75,7.5-20.75s1.75-18.25-0.5-20.75s-6-4.25-8.25,3s-4.25,12.75-6.25,17.25
	s-7,11.25-7,11.25l1.75,0.5c0,0,6.5-9,8.25-14.25s4-12.25,5.5-15.25s1.5-3.25,3-2.75s2.75,1.25,2.75,4.25s-0.25,12.25-1.25,17.25
	s-2.25,8.5-3.5,12s-3,6.25-3,6.25L465.775,932.25z"/>
<path fill="#D1D3D4" d="M487.025,892.75c0,0,5,3.5,5.75,7.75s2.5,7-1,9.5s-3.5,2.75-7.75,3.5s-6.75,0.5-8.75,1.75s-3.5,3-2,5.5
	s3.5,8.5,7.75,11s14.75,7.5,18.75,8.75s8,6.25,8,10s-1.75,6.5-2.75,9.5s0.75,4.5-3.75,6s-8,1.75-11,0s-5-3-9-3s-5.25-0.75-9,1
	s-4.25,2.5-6.75,3.5s-7.25,1.25-7.25,1.25s3.5-1.75,8.25-4s5.5-4.5,11.25-4s4.75,1.25,9.75,2.25s3.75,2.25,7.5,2s6.5,0.75,7.5-2
	s1.75-3.75,2.5-6.5s3-4.75,0.75-8s-3-5-7-6.75s-5.25-1.75-9-3.5s-6.75-2.5-10-5.5s-6-7.25-7-10.25s-1.75-7.5,1.75-8.5
	s6.75-2,9.25-2.5s5.25-0.25,6.75-2.75s1.5-4.75,0.75-7s-1.25-4.25-2.5-5.5s-2.5-2.75-2.5-2.75L487.025,892.75z"/>
<path fill="#D1D3D4" d="M486.025,963.25c0,0-0.25,7.75,1.5,10.5s4,7.25,6.5,8.25s8.25,2.25,10.5,3.25s6,1.75,6.75,5.5
	s0.25,8.5-1,12.5s-2,7.25-4.5,8.5s-3.5,2.25-6.25,1s-2.5-2.5-4.5-3.75s-0.75-1.75-4-1.25s-5,0.25-7.25,2.75s-4.25,4.25-6.75,6.25
	s-4,3.25-7.75,4s-5.25,1.25-7.75,1s-6.75-1.5-6.75-1.5s4,1.25,8.5,0.25s9-2,12-4.75s4.5-5,7.5-6.5s5.75-2,8-2.5s3.5-0.25,3-2.5
	s-1.5-2.75-2.25-4.75s-0.75-3.25-1.75-4.25s2.75,4.5,3.75,6.25s0.75,3,1.5,4.75s1.75,3.25,3.75,4.25s5.75,1.75,7-1.25
	s2.75-4,3.25-6.5s1.75-6,1.25-8.5s0.5-3.25-3.25-5.5s-7.25-3-10.25-4.25s-5.25-2.5-7.25-5.25s-3.25-5-3.75-7.5
	S486.025,963.25,486.025,963.25z"/>
<path fill="#D1D3D4" d="M462.025,982.5c0,0,6.5-0.75,9.25,2s4.75,4,4.5,7s-2,6.5-5.5,7.5s-6.75,1.5-9.5,1s-7.5-2.75-7.5-2.75
	s6.5,2.75,11.5,1.5s7.5-1.75,8.5-4.5s1.5-2.75,0-5.25s-1.75-3.75-4-4.5S462.025,982.5,462.025,982.5z"/>
<path fill="#D1D3D4" d="M493.025,1007.25c0,0-4,3-2.5,7.75s2.25,8,5.25,9.75s7.5,4.25,10.5,5.5s9.5,3.5,12,6.75s4,5.5,3.75,8.75
	s-0.75,5.75-2.5,7s-3,2.5-3,5s-0.5,7.5-0.5,7.5s4.75,1.75,6.75,3.75s4,4,4.5,7.25s0.25,5.5-1.25,6.25s-3.75,1.25-4,3.25
	s0,6.5-0.5,9.5s-0.75,7-3.75,8.5s-5.5,2-7.25,1.5s-3.75-2.25-3.75-2.25s0.25,2.75-1,4.75s0,3.75-3.5,3.5s-4.5-1-8-2.25
	s-3.5-2.25-7.75-1.75s-5.5-0.25-10,2s-6,3-8.5,4s-3.25,1-5.5,0.5s-3.5-1.5-5-0.25s-3.5,3.25-4.25,5.75s-2,7.75-4.25,10
	s-4,3.25-6.75,3.75s-3.25,1-6.5,1.25s-7.5,0.25-7.5,0.25s12-0.75,16-4s4-3.5,5.5-7.25s2-5.5,4.25-8.25s2.5-4.5,6-4
	s6.5,1.75,9.75-0.5s6.5-4.25,10-4.5s8.25,0,9.5-0.5s1.75-1.5,0.25-3.25s-3-3.75-4.5-5.25s-2.25-2.25-2.25-4.5s0.25,1.25,2.5,3.5
	s4,4.25,5.5,6.25s1.75,4,4.5,5.25s4.5,3,6.25,2s3.5-1.75,3-4.5s-2.25-7.5-4.5-10.5s-3.75-5.5-5.75-7.75s-2.25-2.5-4-3.5
	s-4.5-2-4.5-2s7.5,2.5,9.5,4.75s3.5,4.5,5.25,7.25s2,4.75,4.25,6.75s3,3.5,6,3.5s5.25,1.25,7-2s2.75-4.5,2.75-7.75
	s-0.75-6.75,1-9.25s3.75-2.25,4.25-5s0.75-4.25-1.25-6.75s-2.25-4-4.75-4.5s-3-2.5-4-0.75s1,4.75-2.5,5s-8.25-0.5-10.25-2.5
	s-3.75-5-6.25-7.25s-5-3.75-8-3s-7.25,3.5-10.25,5.5s-4,3.75-7.75,6.75s-5,5-10.5,6s-7.5,1.25-12,0s-4.75-2.5-7.5-4s-6-4.25-6-4.25
	l0.25-2c0,0,1.5,2.5,6.25,5s5,4.75,10,4.5s7,0.75,11.5-2s5.5-2.75,10-6.75s5.75-6.25,8.75-7.5s4.5-2.75,7-3s3.5,0.25,5,0.75
	s2-1,0.25-2.75s-3.25-4-5-6s-2.5-3.5-4.5-4.75s-5-3.25-5-3.25s9,4.75,11.75,8.25s4.25,4.75,6,8s1.75,4.25,4,7s4.25,4.25,6.5,5
	s4.75,2.5,5.75,0.5s0.75-3,1.5-5.75s0.5-6.25,0.5-8s2.25-4.5,3.25-5.75s3-2.5,2-6.5s-2.25-6.25-5-8s-5-3-9.75-5s-9.25-3.75-11-5.5
	s-3.5-3.5-4.5-6.5s-1.5-6.25-1-8.25s1.75-3.75,1.75-3.75L493.025,1007.25z"/>
<path fill="#D1D3D4" d="M456.525,1035.75c0,0,8.25-0.5,10.75,4.5s3,6.75,1.5,9.75s-5,4-10,4.25s-8.5-1-10.25-1.25s-5-1.25-5-1.25
	s6.75,2.25,12,1.75s8,0.5,10-2.5s3.5-3.75,2.25-6.5s0.25-4-3.25-5.5s-3.5-2.25-5-2.25S456.525,1035.75,456.525,1035.75z"/>
<path fill="#D1D3D4" d="M454.775,1083.25c0,0,9.75,0,12.5,3.75s1.5,5.75-0.5,7.5s-6,3.25-9.75,2.75s-5.5-1.25-8-0.25
	s-5.25,1.75-7,4.5s-2.25,3.75-4.5,5.25s-2.5,1.75-5.25,2.5s-5.75,0.75-5.75,0.75s6-1.5,9-4s3.25-3.5,5.25-5.5s2.75-3.75,5.75-4.75
	s3.75-1.25,6.5-1s5.25,1.75,7.5,0.75s4.25-0.75,5.5-2.75s1-3.25,0-4.75s-1.5-2-4-2.75s-3.25-1-4.25-1
	S454.775,1083.25,454.775,1083.25z"/>
<path fill="#D1D3D4" d="M423.275,1089c0,0,0.75,13,0,18.75s-0.5,8.75-4.5,13.25s-8.5,7.25-12.75,9.75s-7.75,4.5-12.5,5.75
	s-10.25,1.75-10.25,1.75l-6.75,0.25v-2.5c0,0,4.5,0,9-0.5s10.75-1.25,14.75-3.75s9-4.25,12-7.25s6-3.25,7.25-8s2.25-7.75,2.25-12.25
	s-0.25-14-0.25-14L423.275,1089z"/>
<path fill="#D1D3D4" d="M415.025,1126.25c0,0-0.5,6-5.5,8.5s-9.75,6-15.25,7.25s-6.75,2-9.75,2s-6.5,0.25-6.5,0.25l-1.5,0.25v-2
	c0,0,7.25,0.5,12.5-1s9.5-1.75,13.75-4.25s5.5-2.25,8-5S415.025,1126.25,415.025,1126.25z"/>
<path fill="#D1D3D4" d="M416.775,1122.5c0,0,1.5-0.25,2.5,2.25s1.25,4.25,1.25,8s1.25,10.75,0.5,12.75s-2.5,6-5.75,8.75
	s-7,5-10.5,6.75s-8,3.75-11.5,4.75s-6.25,1.75-9,2s-7.75,0.5-7.75,0.5V1166c0,0,9,0.5,15.5-1.75s10.75-3.5,15.5-6.75
	s8-3.75,9.75-7.5s2.75-6.5,2.5-9.75s-0.5-8.25-1-11s-1-4-1.75-4.5s-2.25-1-2.25-1L416.775,1122.5z"/>
<path fill="#D1D3D4" d="M419.275,1148c0,0,1,5.25,1,7.5s-1,2.75,0,5s0.75,3,0.75,6.5s0.25,5.25-0.25,7.25s-0.75,3-1,4.5
	s-0.25,3.5,0.25,4.5s2,2.25,2.25,4.5s0.75,12.25,0.5,14.25s-0.75,4-1.75,5.25s0,2.75,0.5,3.5s0.75,4.75,1,7.75s-0.25,9.75-0.25,9.75
	s0-13.75-1-15.5s-0.25-2.75-3.25-1.75s-3.75,2.25-6.75,4.5s-5.25,3.5-10.25,5.75s-8.5,3.5-13.25,4s-11.25,0.5-11.25,0.5v-2
	c0,0,2.75,1.25,9.5,0.25s11-2.5,15.75-5s6-3.5,9.25-6s5.25-2.75,7-5s2.75-6,2.75-10.25s0.75-7.5-0.25-9s-1.5-2.5-3-0.5
	s-6,5.5-10,7.5s-7.25,5-14,6.25s-6.75,0.75-10.75,0.75s-6.25,0-6.25,0V1201h11.75c0,0,1,0.75,6.75-1s8.5-3.75,11.5-5.25
	s5-3.25,6.75-4.5s4-1.5,4.75-3.5s1.75-3.25,0.25-4.5s-1.5-2.5-4.5-0.25s-5.5,3.5-9,5.5s-5.5,4.25-11,5.5s-12.75,1.75-15,1.75
	c-2.25,0-2.25,0-2.25,0.25s0-1.75,0-1.75s3.5,0,6.5,0s5.5,0,10-1.75s7.5-3,9.75-4.5s5.25-2.75,7.5-4.5s4.25-2.5,5.5-3.5
	s2.75-1.75,3-4s0.5-2.75,0.5-5.75s-0.5-4.75-0.75-5.75s-1.25-1.75-4.5,0s-5.75,3.5-10.25,5.75s-6,3.25-10.75,4.25s-8.5,1-11,1
	s-5.5,0-5.5,0v-1.75c0,0,4.5,0.25,10-0.5s11-1.75,14.75-3.75s8.5-5,11-6.5s4.5-0.75,5.25-3.75s1.75-3,0.75-4.5s-1.75-1.75-1.75-1.75
	L419.275,1148z"/>
<path fill="#D1D3D4" d="M385.025,1016c0,0-0.5,5,2,8.75s4.75,5,7.5,6s8.25,1,8.25,1s-8.75-1-11-3.5s-4-4.75-5-6.75
	S385.025,1016,385.025,1016z"/>
<path fill="#D1D3D4" d="M363.434,1028.124c-3.414,2.456-7.247,0.74-10.909,1.126c7.399,0.558,14.75-2.881,18-9
	C369.57,1024.124,366.44,1025.962,363.434,1028.124z"/>
<g>
	<path fill="#D1D3D4" d="M598.025,806.25c0,0-1.5,45.5-1,64.5s0.5,34.5,6,51.5s15,36,23.5,48s23.5,32,33.5,42s24,23.5,32.5,31.5
		s24.5,21.5,24.5,21.5s-42.5-35-53-45.5s-27.5-30.5-36.5-44s-24.5-35.5-30-65s-4.5-47-4-60s2-40,2-40L598.025,806.25z"/>
</g>
<g>
	<text transform="matrix(1 0 0 1 58.4771 1114.2793)" fill="#7F7F7F" font-family="'Myriad-Roman'" font-size="12.6806">cc</text>
	<circle fill="none" stroke="#81807F" stroke-width="0.7398" cx="64.356" cy="1111.029" r="8.097"/>
	<text transform="matrix(1 0 0 1 76.3799 1115.1172)" fill="#7F7F7F" font-family="'Myriad-Roman'" font-size="12.6806">Patrick J. Lynch, 2006</text>
</g>
</svg>
